  0
SECTION
  2
HEADER
  9
$ACADVER
  1
AC1032
  9
$ACADMAINTVER
 90
      248
  9
$DWGCODEPAGE
  3
ANSI_1252
  9
$REQUIREDVERSIONS
160
                 0
  9
$INSBASE
 10
0.0
 20
0.0
 30
0.0
  9
$EXTMIN
 10
0.0
 20
0.0
 30
0.0
  9
$EXTMAX
 10
8000.000000000019
 20
6000.000000000005
 30
0.0
  9
$LIMMIN
 10
0.0
 20
0.0
  9
$LIMMAX
 10
12.0
 20
9.0
  9
$ORTHOMODE
 70
     0
  9
$REGENMODE
 70
     1
  9
$FILLMODE
 70
     1
  9
$QTEXTMODE
 70
     0
  9
$MIRRTEXT
 70
     0
  9
$LTSCALE
 40
1.0
  9
$ATTMODE
 70
     1
  9
$TEXTSIZE
 40
0.2
  9
$TRACEWID
 40
0.05
  9
$TEXTSTYLE
  7
Standard
  9
$CLAYER
  8
0
  9
$CELTYPE
  6
ByLayer
  9
$CECOLOR
 62
   256
  9
$CELTSCALE
 40
1.0
  9
$DISPSILH
 70
     0
  9
$DIMSCALE
 40
1.0
  9
$DIMASZ
 40
0.18
  9
$DIMEXO
 40
0.0625
  9
$DIMDLI
 40
0.38
  9
$DIMRND
 40
0.0
  9
$DIMDLE
 40
0.0
  9
$DIMEXE
 40
0.18
  9
$DIMTP
 40
0.0
  9
$DIMTM
 40
0.0
  9
$DIMTXT
 40
0.18
  9
$DIMCEN
 40
0.09
  9
$DIMTSZ
 40
0.0
  9
$DIMTOL
 70
     0
  9
$DIMLIM
 70
     0
  9
$DIMTIH
 70
     1
  9
$DIMTOH
 70
     1
  9
$DIMSE1
 70
     0
  9
$DIMSE2
 70
     0
  9
$DIMTAD
 70
     0
  9
$DIMZIN
 70
     0
  9
$DIMBLK
  1

  9
$DIMASO
 70
     1
  9
$DIMSHO
 70
     1
  9
$DIMPOST
  1

  9
$DIMAPOST
  1

  9
$DIMALT
 70
     0
  9
$DIMALTD
 70
     2
  9
$DIMALTF
 40
25.4
  9
$DIMLFAC
 40
1.0
  9
$DIMTOFL
 70
     0
  9
$DIMTVP
 40
0.0
  9
$DIMTIX
 70
     0
  9
$DIMSOXD
 70
     0
  9
$DIMSAH
 70
     0
  9
$DIMBLK1
  1

  9
$DIMBLK2
  1

  9
$DIMSTYLE
  2
Standard
  9
$DIMCLRD
 70
     0
  9
$DIMCLRE
 70
     0
  9
$DIMCLRT
 70
     0
  9
$DIMTFAC
 40
1.0
  9
$DIMGAP
 40
0.09
  9
$DIMJUST
 70
     0
  9
$DIMSD1
 70
     0
  9
$DIMSD2
 70
     0
  9
$DIMTOLJ
 70
     1
  9
$DIMTZIN
 70
     0
  9
$DIMALTZ
 70
     0
  9
$DIMALTTZ
 70
     0
  9
$DIMUPT
 70
     0
  9
$DIMDEC
 70
     4
  9
$DIMTDEC
 70
     4
  9
$DIMALTU
 70
     2
  9
$DIMALTTD
 70
     2
  9
$DIMTXSTY
  7
Standard
  9
$DIMAUNIT
 70
     0
  9
$DIMADEC
 70
     0
  9
$DIMALTRND
 40
0.0
  9
$DIMAZIN
 70
     0
  9
$DIMDSEP
 70
    46
  9
$DIMATFIT
 70
     3
  9
$DIMFRAC
 70
     0
  9
$DIMLDRBLK
  1

  9
$DIMLUNIT
 70
     2
  9
$DIMLWD
 70
    -2
  9
$DIMLWE
 70
    -2
  9
$DIMTMOVE
 70
     0
  9
$DIMFXL
 40
1.0
  9
$DIMFXLON
 70
     0
  9
$DIMJOGANG
 40
0.7853981633974483
  9
$DIMTFILL
 70
     0
  9
$DIMTFILLCLR
 70
     0
  9
$DIMARCSYM
 70
     0
  9
$DIMLTYPE
  6

  9
$DIMLTEX1
  6

  9
$DIMLTEX2
  6

  9
$DIMTXTDIRECTION
 70
     0
  9
$LUNITS
 70
     2
  9
$LUPREC
 70
     4
  9
$SKETCHINC
 40
0.1
  9
$FILLETRAD
 40
0.0
  9
$AUNITS
 70
     0
  9
$AUPREC
 70
     0
  9
$MENU
  1
.
  9
$ELEVATION
 40
0.0
  9
$PELEVATION
 40
0.0
  9
$THICKNESS
 40
0.0
  9
$LIMCHECK
 70
     0
  9
$CHAMFERA
 40
0.0
  9
$CHAMFERB
 40
0.0
  9
$CHAMFERC
 40
0.0
  9
$CHAMFERD
 40
0.0
  9
$SKPOLY
 70
     0
  9
$TDCREATE
 40
2460447.612523148
  9
$TDUCREATE
 40
2460447.529189815
  9
$TDUPDATE
 40
2460447.612523148
  9
$TDUUPDATE
 40
2460447.529189815
  9
$TDINDWG
 40
0.0000115741
  9
$TDUSRTIMER
 40
0.0000115741
  9
$USRTIMER
 70
     1
  9
$ANGBASE
 50
0.0
  9
$ANGDIR
 70
     0
  9
$PDMODE
 70
     0
  9
$PDSIZE
 40
0.0
  9
$PLINEWID
 40
0.0
  9
$SPLFRAME
 70
     0
  9
$SPLINETYPE
 70
     6
  9
$SPLINESEGS
 70
     8
  9
$HANDSEED
  5
1CB
  9
$SURFTAB1
 70
     6
  9
$SURFTAB2
 70
     6
  9
$SURFTYPE
 70
     6
  9
$SURFU
 70
     6
  9
$SURFV
 70
     6
  9
$UCSBASE
  2

  9
$UCSNAME
  2

  9
$UCSORG
 10
0.0
 20
0.0
 30
0.0
  9
$UCSXDIR
 10
1.0
 20
0.0
 30
0.0
  9
$UCSYDIR
 10
0.0
 20
1.0
 30
0.0
  9
$UCSORTHOREF
  2

  9
$UCSORTHOVIEW
 70
     0
  9
$UCSORGTOP
 10
0.0
 20
0.0
 30
0.0
  9
$UCSORGBOTTOM
 10
0.0
 20
0.0
 30
0.0
  9
$UCSORGLEFT
 10
0.0
 20
0.0
 30
0.0
  9
$UCSORGRIGHT
 10
0.0
 20
0.0
 30
0.0
  9
$UCSORGFRONT
 10
0.0
 20
0.0
 30
0.0
  9
$UCSORGBACK
 10
0.0
 20
0.0
 30
0.0
  9
$PUCSBASE
  2

  9
$PUCSNAME
  2

  9
$PUCSORG
 10
0.0
 20
0.0
 30
0.0
  9
$PUCSXDIR
 10
1.0
 20
0.0
 30
0.0
  9
$PUCSYDIR
 10
0.0
 20
1.0
 30
0.0
  9
$PUCSORTHOREF
  2

  9
$PUCSORTHOVIEW
 70
     0
  9
$PUCSORGTOP
 10
0.0
 20
0.0
 30
0.0
  9
$PUCSORGBOTTOM
 10
0.0
 20
0.0
 30
0.0
  9
$PUCSORGLEFT
 10
0.0
 20
0.0
 30
0.0
  9
$PUCSORGRIGHT
 10
0.0
 20
0.0
 30
0.0
  9
$PUCSORGFRONT
 10
0.0
 20
0.0
 30
0.0
  9
$PUCSORGBACK
 10
0.0
 20
0.0
 30
0.0
  9
$USERI1
 70
     0
  9
$USERI2
 70
     0
  9
$USERI3
 70
     0
  9
$USERI4
 70
     0
  9
$USERI5
 70
     0
  9
$USERR1
 40
0.0
  9
$USERR2
 40
0.0
  9
$USERR3
 40
0.0
  9
$USERR4
 40
0.0
  9
$USERR5
 40
0.0
  9
$WORLDVIEW
 70
     1
  9
$SHADEDGE
 70
     3
  9
$SHADEDIF
 70
    70
  9
$TILEMODE
 70
     1
  9
$MAXACTVP
 70
    64
  9
$PINSBASE
 10
0.0
 20
0.0
 30
0.0
  9
$PLIMCHECK
 70
     0
  9
$PEXTMIN
 10
1.000000000000000E+20
 20
1.000000000000000E+20
 30
1.000000000000000E+20
  9
$PEXTMAX
 10
-1.000000000000000E+20
 20
-1.000000000000000E+20
 30
-1.000000000000000E+20
  9
$PLIMMIN
 10
0.0
 20
0.0
  9
$PLIMMAX
 10
12.0
 20
9.0
  9
$UNITMODE
 70
     0
  9
$VISRETAIN
 70
     1
  9
$PLINEGEN
 70
     0
  9
$PSLTSCALE
 70
     1
  9
$TREEDEPTH
 70
  3020
  9
$CMLSTYLE
  2
Standard
  9
$CMLJUST
 70
     0
  9
$CMLSCALE
 40
1.0
  9
$PROXYGRAPHICS
 70
     1
  9
$MEASUREMENT
 70
     1
  9
$CELWEIGHT
370
    -1
  9
$ENDCAPS
280
     0
  9
$JOINSTYLE
280
     0
  9
$LWDISPLAY
290
     0
  9
$INSUNITS
 70
     4
  9
$HYPERLINKBASE
  1

  9
$STYLESHEET
  1

  9
$XEDIT
290
     1
  9
$CEPSNTYPE
380
     0
  9
$PSTYLEMODE
290
     1
  9
$FINGERPRINTGUID
  2
{083E27E7-0D96-FC46-B077-45CB0FAAB0D4}
  9
$VERSIONGUID
  2
{1B503100-E4CB-2A42-960A-35BE81AE610A}
  9
$EXTNAMES
290
     1
  9
$PSVPSCALE
 40
0.0
  9
$OLESTARTUP
290
     0
  9
$SORTENTS
280
   127
  9
$INDEXCTL
280
     0
  9
$HIDETEXT
280
     1
  9
$XCLIPFRAME
280
     2
  9
$HALOGAP
280
     0
  9
$OBSCOLOR
 70
   257
  9
$OBSLTYPE
280
     0
  9
$INTERSECTIONDISPLAY
280
     0
  9
$INTERSECTIONCOLOR
 70
   257
  9
$DIMASSOC
280
     2
  9
$PROJECTNAME
  1

  9
$CAMERADISPLAY
290
     0
  9
$LENSLENGTH
 40
50.0
  9
$CAMERAHEIGHT
 40
0.0
  9
$STEPSPERSEC
 40
2.0
  9
$STEPSIZE
 40
6.0
  9
$3DDWFPREC
 40
2.0
  9
$PSOLWIDTH
 40
0.25
  9
$PSOLHEIGHT
 40
4.0
  9
$LOFTANG1
 40
1.570796326794896
  9
$LOFTANG2
 40
1.570796326794896
  9
$LOFTMAG1
 40
0.0
  9
$LOFTMAG2
 40
0.0
  9
$LOFTPARAM
 70
     7
  9
$LOFTNORMALS
280
     1
  9
$LATITUDE
 40
37.795
  9
$LONGITUDE
 40
-122.394
  9
$NORTHDIRECTION
 40
0.0
  9
$TIMEZONE
 70
 -8000
  9
$LIGHTGLYPHDISPLAY
280
     1
  9
$TILEMODELIGHTSYNCH
280
     1
  9
$CMATERIAL
347
11
  9
$SOLIDHIST
280
     0
  9
$SHOWHIST
280
     1
  9
$DWFFRAME
280
     2
  9
$DGNFRAME
280
     0
  9
$REALWORLDSCALE
290
     1
  9
$INTERFERECOLOR
 62
     1
  9
$INTERFEREOBJVS
345
33
  9
$INTERFEREVPVS
346
30
  9
$CSHADOW
280
     0
  9
$SHADOWPLANELOCATION
 40
0.0
  0
ENDSEC
  0
SECTION
  2
CLASSES
  0
CLASS
  1
ACDBDICTIONARYWDFLT
  2
AcDbDictionaryWithDefault
  3
ObjectDBX Classes
 90
        0
 91
        1
280
     0
281
     0
  0
CLASS
  1
MATERIAL
  2
AcDbMaterial
  3
ObjectDBX Classes
 90
     1153
 91
        3
280
     0
281
     0
  0
CLASS
  1
VISUALSTYLE
  2
AcDbVisualStyle
  3
ObjectDBX Classes
 90
     4095
 91
       24
280
     0
281
     0
  0
CLASS
  1
SCALE
  2
AcDbScale
  3
ObjectDBX Classes
 90
     1153
 91
       17
280
     0
281
     0
  0
CLASS
  1
TABLESTYLE
  2
AcDbTableStyle
  3
ObjectDBX Classes
 90
     4095
 91
        1
280
     0
281
     0
  0
CLASS
  1
MLEADERSTYLE
  2
AcDbMLeaderStyle
  3
ACDB_MLEADERSTYLE_CLASS
 90
     4095
 91
        1
280
     0
281
     0
  0
CLASS
  1
ACDBSECTIONVIEWSTYLE
  2
AcDbSectionViewStyle
  3
ObjectDBX Classes
 90
     1025
 91
        1
280
     0
281
     0
  0
CLASS
  1
ACDBDETAILVIEWSTYLE
  2
AcDbDetailViewStyle
  3
ObjectDBX Classes
 90
     1025
 91
        1
280
     0
281
     0
  0
CLASS
  1
RASTERVARIABLES
  2
AcDbRasterVariables
  3
ISM
 90
        0
 91
        1
280
     0
281
     0
  0
CLASS
  1
DICTIONARYVAR
  2
AcDbDictionaryVar
  3
ObjectDBX Classes
 90
        0
 91
        5
280
     0
281
     0
  0
CLASS
  1
CELLSTYLEMAP
  2
AcDbCellStyleMap
  3
ObjectDBX Classes
 90
     1152
 91
        2
280
     0
281
     0
  0
CLASS
  1
SORTENTSTABLE
  2
AcDbSortentsTable
  3
ObjectDBX Classes
 90
        0
 91
        1
280
     0
281
     0
  0
ENDSEC
  0
SECTION
  2
TABLES
  0
TABLE
  2
VPORT
  5
8
330
0
100
AcDbSymbolTable
 70
     1
  0
VPORT
  5
57
330
8
100
AcDbSymbolTableRecord
100
AcDbViewportTableRecord
  2
*Active
 70
     0
 10
0.0
 20
0.0
 11
1.0
 21
1.0
 12
4000.000000000009
 22
3000.000000000003
 13
0.0
 23
0.0
 14
1.0
 24
1.0
 15
0.0
 25
0.0
 16
0.0
 26
0.0
 36
1.0
 17
0.0
 27
0.0
 37
0.0
 40
6000.000000000005
 41
1.333333333333335
 42
50.0
 43
0.0
 44
0.0
 50
0.0
 51
0.0
 71
     0
 72
  1000
 73
     1
 74
     1
 75
     0
 76
     0
 77
     0
 78
     0
281
     0
 65
     1
110
0.0
120
0.0
130
0.0
111
1.0
121
0.0
131
0.0
112
0.0
122
1.0
132
0.0
 79
     0
146
0.0
 60
     3
 61
     5
292
     1
282
     1
141
0.0
142
0.0
 63
   250
421
  3355443
  0
ENDTAB
  0
TABLE
  2
LTYPE
  5
5
330
0
100
AcDbSymbolTable
 70
     1
  0
LTYPE
  5
5B
330
5
100
AcDbSymbolTableRecord
100
AcDbLinetypeTableRecord
  2
ByBlock
 70
     0
  3

 72
    65
 73
     0
 40
0.0
  0
LTYPE
  5
5C
330
5
100
AcDbSymbolTableRecord
100
AcDbLinetypeTableRecord
  2
ByLayer
 70
     0
  3

 72
    65
 73
     0
 40
0.0
  0
LTYPE
  5
5D
330
5
100
AcDbSymbolTableRecord
100
AcDbLinetypeTableRecord
  2
Continuous
 70
     0
  3
Solid line
 72
    65
 73
     0
 40
0.0
  0
ENDTAB
  0
TABLE
  2
LAYER
  5
2
330
0
100
AcDbSymbolTable
 70
     9
  0
LAYER
  5
54
330
2
100
AcDbSymbolTableRecord
100
AcDbLayerTableRecord
  2
0
 70
     0
 62
     7
  6
Continuous
370
    -3
390
F
347
21
348
0
  0
LAYER
  5
84
330
2
100
AcDbSymbolTableRecord
100
AcDbLayerTableRecord
  2
L-SITE-WALL
 70
     0
 62
    31
  6
Continuous
370
     9
390
F
347
21
348
0
  0
LAYER
  5
85
330
2
100
AcDbSymbolTableRecord
100
AcDbLayerTableRecord
  2
A-FLOR
 70
     0
 62
   192
  6
Continuous
370
     9
390
F
347
21
348
0
  0
LAYER
  5
86
330
2
100
AcDbSymbolTableRecord
100
AcDbLayerTableRecord
  2
A-DOOR
 70
     0
 62
    31
  6
Continuous
370
     9
390
F
347
21
348
0
  0
LAYER
  5
87
330
2
100
AcDbSymbolTableRecord
100
AcDbLayerTableRecord
  2
I-FURN
 70
     0
 62
    30
  6
Continuous
370
     9
390
F
347
21
348
0
  0
LAYER
  5
88
330
2
100
AcDbSymbolTableRecord
100
AcDbLayerTableRecord
  2
A-WALL-PATT
 70
     0
 62
   111
  6
Continuous
370
    35
390
F
347
21
348
0
  0
LAYER
  5
9B
330
2
100
AcDbSymbolTableRecord
100
AcDbLayerTableRecord
  2
A-WALL
 70
     0
 62
   113
  6
Continuous
370
    35
390
F
347
21
348
0
  0
LAYER
  5
15B
330
2
100
AcDbSymbolTableRecord
100
AcDbLayerTableRecord
  2
A-DOOR-OPNG
 70
     0
 62
    31
  6
Continuous
370
     5
390
F
347
21
348
0
  0
LAYER
  5
186
330
2
100
AcDbSymbolTableRecord
100
AcDbLayerTableRecord
  2
A-DOOR-FRAM
 70
     0
 62
    31
  6
Continuous
370
     9
390
F
347
21
348
0
  0
ENDTAB
  0
TABLE
  2
STYLE
  5
3
330
0
100
AcDbSymbolTable
 70
     2
  0
STYLE
  5
55
330
3
100
AcDbSymbolTableRecord
100
AcDbTextStyleTableRecord
  2
Standard
 70
     0
 40
0.0
 41
1.0
 50
0.0
 71
     0
 42
0.2
  3
txt
  4

  0
STYLE
  5
5A
330
3
100
AcDbSymbolTableRecord
100
AcDbTextStyleTableRecord
  2
Annotative
 70
     0
 40
0.0
 41
1.0
 50
0.0
 71
     0
 42
0.2
  3
txt
  4

1001
AcadAnnotative
1000
AnnotativeData
1002
{
1070
     1
1070
     1
1002
}
  0
ENDTAB
  0
TABLE
  2
VIEW
  5
6
330
0
100
AcDbSymbolTable
 70
     0
  0
ENDTAB
  0
TABLE
  2
UCS
  5
7
330
0
100
AcDbSymbolTable
 70
     1
  0
UCS
  5
1C2
330
7
100
AcDbSymbolTableRecord
100
AcDbUCSTableRecord
  2
REVIT60-Intern
 70
     0
 10
0.0
 20
0.0
 30
0.0
 11
1.0
 21
0.0
 31
0.0
 12
0.0
 22
1.0
 32
0.0
 79
     0
146
0.0
  0
ENDTAB
  0
TABLE
  2
APPID
  5
9
330
0
100
AcDbSymbolTable
 70
     3
  0
APPID
  5
56
330
9
100
AcDbSymbolTableRecord
100
AcDbRegAppTableRecord
  2
ACAD
 70
     0
  0
APPID
  5
5E
330
9
100
AcDbSymbolTableRecord
100
AcDbRegAppTableRecord
  2
AcadAnnotative
 70
     0
  0
APPID
  5
78
330
9
100
AcDbSymbolTableRecord
100
AcDbRegAppTableRecord
  2
REVIT
 70
     0
  0
ENDTAB
  0
TABLE
  2
DIMSTYLE
  5
A
330
0
100
AcDbSymbolTable
 70
     2
100
AcDbDimStyleTable
 71
     0
  0
DIMSTYLE
105
58
330
A
100
AcDbSymbolTableRecord
100
AcDbDimStyleTableRecord
  2
Standard
 70
     0
340
55
  0
DIMSTYLE
105
59
330
A
100
AcDbSymbolTableRecord
100
AcDbDimStyleTableRecord
  2
Annotative
 70
     0
340
55
1001
AcadAnnotative
1000
AnnotativeData
1002
{
1070
     1
1070
     1
1002
}
  0
ENDTAB
  0
TABLE
  2
BLOCK_RECORD
  5
1
330
0
100
AcDbSymbolTable
 70
     4
  0
BLOCK_RECORD
  5
70
102
{ACAD_XDICTIONARY
360
1C6
102
}
330
1
100
AcDbSymbolTableRecord
100
AcDbBlockTableRecord
  2
*Model_Space
340
73
 70
     0
280
     1
281
     0
  0
BLOCK_RECORD
  5
6C
330
1
100
AcDbSymbolTableRecord
100
AcDbBlockTableRecord
  2
*Paper_Space
340
6F
 70
     0
280
     1
281
     0
  0
BLOCK_RECORD
  5
74
330
1
100
AcDbSymbolTableRecord
100
AcDbBlockTableRecord
  2
*Paper_Space0
340
77
 70
     0
280
     1
281
     0
  0
BLOCK_RECORD
  5
120
330
1
100
AcDbSymbolTableRecord
100
AcDbBlockTableRecord
  2
TU DF 1 - Haustüre - ML - 1135 x 2250-2509477-Ebene 0
340
0
102
{BLKREFS
331
199
102
}
 70
     0
280
     1
281
     0
  0
BLOCK_RECORD
  5
19A
330
1
100
AcDbSymbolTableRecord
100
AcDbBlockTableRecord
  2
Tisch-01 - 1700 x 900 x 780-2296047-Ebene 0
340
0
102
{BLKREFS
331
1A9
102
}
 70
     0
280
     1
281
     0
  0
BLOCK_RECORD
  5
1AA
330
1
100
AcDbSymbolTableRecord
100
AcDbBlockTableRecord
  2
Stuhl-04 - Typ1-2296858-Ebene 0
340
0
102
{BLKREFS
331
1BE
331
1BF
102
}
 70
     0
280
     1
281
     0
  0
ENDTAB
  0
ENDSEC
  0
SECTION
  2
BLOCKS
  0
BLOCK
  5
71
330
70
100
AcDbEntity
  8
0
100
AcDbBlockBegin
  2
*Model_Space
 70
     0
 10
0.0
 20
0.0
 30
0.0
  3
*Model_Space
  1

  0
ENDBLK
  5
72
330
70
100
AcDbEntity
  8
0
100
AcDbBlockEnd
  0
BLOCK
  5
6D
330
6C
100
AcDbEntity
 67
     1
  8
0
100
AcDbBlockBegin
  2
*Paper_Space
 70
     0
 10
0.0
 20
0.0
 30
0.0
  3
*Paper_Space
  1

  0
ENDBLK
  5
6E
330
6C
100
AcDbEntity
 67
     1
  8
0
100
AcDbBlockEnd
  0
BLOCK
  5
75
330
74
100
AcDbEntity
 67
     1
  8
0
100
AcDbBlockBegin
  2
*Paper_Space0
 70
     0
 10
0.0
 20
0.0
 30
0.0
  3
*Paper_Space0
  1

  0
ENDBLK
  5
76
330
74
100
AcDbEntity
 67
     1
  8
0
100
AcDbBlockEnd
  0
BLOCK
  5
197
330
120
100
AcDbEntity
  8
0
100
AcDbBlockBegin
  2
TU DF 1 - Haustüre - ML - 1135 x 2250-2509477-Ebene 0
 70
     0
 10
0.0
 20
0.0
 30
0.0
  3
TU DF 1 - Haustüre - ML - 1135 x 2250-2509477-Ebene 0
  1

  0
HATCH
  5
137
330
120
100
AcDbEntity
  8
A-DOOR
100
AcDbHatch
 10
0.0
 20
0.0
 30
0.0
210
0.0
220
0.0
230
1.0
  2
SOLID
 70
     1
 71
     0
 91
        1
 92
        1
 93
       22
 72
     1
 10
518.4999999999948
 20
-105.0000000000064
 11
503.5000000000068
 21
-105.0000000000064
 72
     1
 10
503.5000000000068
 20
-105.0000000000064
 11
503.5000000000068
 21
-55.00000000000483
 72
     1
 10
503.5000000000068
 20
-55.00000000000483
 11
488.5000000000015
 21
-55.00000000000483
 72
     1
 10
488.5000000000015
 20
-55.00000000000483
 11
488.5000000000015
 21
-35.00000000000504
 72
     1
 10
488.5000000000015
 20
-35.00000000000504
 11
282.4999999999964
 21
-35.00000000000504
 72
     1
 10
282.4999999999964
 20
-35.00000000000504
 11
279.6715728752609
 21
-36.17157287525559
 72
     1
 10
279.6715728752609
 20
-36.17157287525559
 11
278.500000000006
 21
-39.00000000000846
 72
     1
 10
278.500000000006
 20
-39.00000000000846
 11
277.3284271247511
 21
-36.17157287525559
 72
     1
 10
277.3284271247511
 20
-36.17157287525559
 11
274.4999999999982
 21
-35.00000000000504
 72
     1
 10
274.4999999999982
 20
-35.00000000000504
 11
-488.4999999999842
 21
-35.00000000000504
 72
     1
 10
-488.4999999999842
 20
-35.00000000000504
 11
-488.4999999999842
 21
-55.00000000001349
 72
     1
 10
-488.4999999999842
 20
-55.00000000001349
 11
-503.4999999999895
 21
-55.00000000000483
 72
     1
 10
-503.4999999999895
 20
-55.00000000000483
 11
-503.4999999999895
 21
-105.0000000000108
 72
     1
 10
-503.4999999999895
 20
-105.0000000000108
 11
-518.4999999999861
 21
-105.0000000000108
 72
     1
 10
-518.4999999999861
 20
-105.0000000000108
 11
-518.4999999999861
 21
-125.0000000000062
 72
     1
 10
-518.4999999999861
 20
-125.0000000000062
 11
274.4999999999982
 21
-125.0000000000062
 72
     1
 10
274.4999999999982
 20
-125.0000000000062
 11
277.3284271247511
 21
-123.8284271247513
 72
     1
 10
277.3284271247511
 20
-123.8284271247513
 11
278.500000000006
 21
-121.0000000000028
 72
     1
 10
278.500000000006
 20
-121.0000000000028
 11
279.6715728752609
 21
-123.8284271247513
 72
     1
 10
279.6715728752609
 20
-123.8284271247513
 11
282.4999999999964
 21
-125.0000000000062
 72
     1
 10
282.4999999999964
 20
-125.0000000000062
 11
518.4999999999948
 21
-125.0000000000062
 72
     1
 10
518.4999999999948
 20
-125.0000000000062
 11
518.4999999999948
 21
-105.0000000000064
 97
        0
 75
     0
 76
     1
 98
        1
 10
0.0
 20
0.0
450
        0
451
        0
460
0.0
461
0.0
452
        0
462
0.0
453
        0
470

1001
REVIT
1002
{
1070
     1
1000
2509294
1002
}
1002
{
1070
     5
1000
2125215
1002
}
  0
HATCH
  5
148
330
120
100
AcDbEntity
  8
A-DOOR
100
AcDbHatch
 10
0.0
 20
0.0
 30
0.0
210
0.0
220
0.0
230
1.0
  2
SOLID
 70
     1
 71
     0
 91
        2
 92
        1
 93
        8
 72
     1
 10
567.4999999999836
 20
-125.0000000000062
 11
567.4999999999836
 21
-35.00000000000504
 72
     1
 10
567.4999999999836
 20
-35.00000000000504
 11
492.5000000000266
 21
-35.00000000000504
 72
     1
 10
492.5000000000266
 20
-35.00000000000504
 11
492.5000000000266
 21
-55.00000000000915
 72
     1
 10
492.5000000000266
 20
-55.00000000000915
 11
507.5000000000232
 21
-55.00000000000915
 72
     1
 10
507.5000000000232
 20
-55.00000000000915
 11
507.5000000000319
 21
-105.0000000000064
 72
     1
 10
507.5000000000319
 20
-105.0000000000064
 11
522.5000000000285
 21
-105.0000000000064
 72
     1
 10
522.5000000000285
 20
-105.0000000000064
 11
522.5000000000285
 21
-125.0000000000062
 72
     1
 10
522.5000000000285
 20
-125.0000000000062
 11
567.4999999999836
 21
-125.0000000000062
 97
        0
 92
        1
 93
        8
 72
     1
 10
-492.4999999999746
 20
-35.00000000000504
 11
-567.5000000000182
 21
-35.00000000000504
 72
     1
 10
-567.5000000000182
 20
-35.00000000000504
 11
-567.5000000000182
 21
-125.0000000000019
 72
     1
 10
-567.5000000000182
 20
-125.0000000000019
 11
-522.4999999999678
 21
-125.0000000000019
 72
     1
 10
-522.4999999999678
 20
-125.0000000000019
 11
-522.4999999999678
 21
-105.0000000000064
 72
     1
 10
-522.4999999999678
 20
-105.0000000000064
 11
-507.4999999999712
 21
-105.0000000000064
 72
     1
 10
-507.4999999999712
 20
-105.0000000000064
 11
-507.4999999999712
 21
-55.00000000000483
 72
     1
 10
-507.4999999999712
 20
-55.00000000000483
 11
-492.4999999999746
 21
-55.00000000000483
 72
     1
 10
-492.4999999999746
 20
-55.00000000000483
 11
-492.4999999999746
 21
-35.00000000000504
 97
        0
 75
     0
 76
     1
 98
        1
 10
0.0
 20
0.0
450
        0
451
        0
460
0.0
461
0.0
452
        0
462
0.0
453
        0
470

1001
REVIT
1002
{
1070
     1
1000
2509294
1002
}
1002
{
1070
     5
1000
2125215
1002
}
  0
LINE
  5
149
330
120
100
AcDbEntity
  8
A-DOOR
370
     5
100
AcDbLine
 10
395.0000000000315
 20
-35.00000000000504
 30
0.0
 11
395.0000000000315
 21
12.49999999999283
 31
0.0
1001
REVIT
1002
{
1070
     1
1000
2509294
1002
}
1002
{
1070
     5
1000
2125215
1002
}
1002
{
1070
     3
1000
963149
1002
}
  0
LINE
  5
14A
330
120
100
AcDbEntity
  8
A-DOOR
370
     5
100
AcDbLine
 10
370.0000000000285
 20
12.49999999999283
 30
0.0
 11
370.0000000000285
 21
-35.00000000000504
 31
0.0
1001
REVIT
1002
{
1070
     1
1000
2509294
1002
}
1002
{
1070
     5
1000
2125215
1002
}
1002
{
1070
     3
1000
963149
1002
}
  0
HATCH
  5
153
330
120
100
AcDbEntity
  8
A-DOOR
370
     5
100
AcDbHatch
 10
0.0
 20
0.0
 30
0.0
210
0.0
220
0.0
230
1.0
  2
FP_3
 70
     0
 71
     0
 91
        1
 92
        1
 93
        8
 72
     1
 10
395.0000000000315
 20
12.49999999999283
 11
391.3388347648643
 21
21.33883476482282
 72
     1
 10
391.3388347648643
 20
21.33883476482282
 11
382.5000000000343
 21
24.99999999999432
 72
     1
 10
382.5000000000343
 20
24.99999999999432
 11
373.6611652351957
 21
21.33883476482282
 72
     1
 10
373.6611652351957
 20
21.33883476482282
 11
370.0000000000285
 21
12.49999999999283
 72
     1
 10
370.0000000000285
 20
12.49999999999283
 11
373.6611652351957
 21
3.661165235158501
 72
     1
 10
373.6611652351957
 20
3.661165235158501
 11
382.5000000000343
 21
-0.0000000000043316
 72
     1
 10
382.5000000000343
 20
-0.0000000000043315
 11
391.3388347648643
 21
3.661165235158501
 72
     1
 10
391.3388347648643
 20
3.661165235158501
 11
395.0000000000315
 21
12.49999999999283
 97
        0
 75
     0
 76
     2
 52
0.0
 41
1.0
 77
     0
 78
     2
 53
135.0
 43
4182.5
 44
-7875.0
 45
-125.7235856949681
 46
-125.7235856949681
 79
     0
 53
135.0
 43
3992.0
 44
-7875.0
 45
-125.7235856949681
 46
-125.7235856949681
 79
     0
 98
        1
 10
0.0
 20
0.0
1001
REVIT
1002
{
1070
     1
1000
2509294
1002
}
1002
{
1070
     5
1000
2125215
1002
}
1002
{
1070
     3
1000
963149
1002
}
  0
SPLINE
  5
154
330
120
100
AcDbEntity
  8
A-DOOR
370
     5
100
AcDbSpline
210
0.0
220
0.0
230
1.0
 70
     8
 71
     3
 72
    41
 73
    37
 74
     0
 42
0.000000001
 43
0.0000000001
 40
-1.0
 40
-1.0
 40
-1.0
 40
-1.0
 40
-0.9166666666666666
 40
-0.875
 40
-0.8333333333333333
 40
-0.7916666666666668
 40
-0.7708333333333334
 40
-0.75
 40
-0.7083333333333333
 40
-0.6875
 40
-0.6666666666666666
 40
-0.6458333333333333
 40
-0.625
 40
-0.6041666666666668
 40
-0.5833333333333334
 40
-0.5625
 40
-0.5416666666666668
 40
-0.5208333333333334
 40
-0.5
 40
-0.4791666666666667
 40
-0.4583333333333334
 40
-0.4375
 40
-0.4166666666666667
 40
-0.3958333333333334
 40
-0.375
 40
-0.3541666666666666
 40
-0.3333333333333333
 40
-0.3125
 40
-0.2916666666666666
 40
-0.25
 40
-0.2291666666666666
 40
-0.2083333333333333
 40
-0.1666666666666666
 40
-0.125
 40
-0.0833333333333333
 40
0.0
 40
0.0
 40
0.0
 40
0.0
 10
382.5000000000341
 20
-0.0000000000179773
 30
0.0
 10
381.4091692175377
 20
-0.0000000000179936
 30
0.0
 10
379.7730692582559
 20
0.2155658640683004
 30
0.0
 10
377.7027806391523
 20
0.9185050739979349
 30
0.0
 10
376.2321229127342
 20
1.643714099002584
 30
0.0
 10
375.0959602438856
 20
2.402896721542402
 30
0.0
 10
374.2522933907343
 20
3.09529282044754
 30
0.0
 10
373.4556979019735
 20
3.841365607729759
 30
0.0
 10
372.7349239456743
 20
4.663252285901982
 30
0.0
 10
372.099208358757
 20
5.550413509857706
 30
0.0
 10
371.6669505935392
 20
6.245535892099421
 30
0.0
 10
371.2810839834572
 20
6.967442921635922
 30
0.0
 10
370.9432578578839
 20
7.713040654823156
 30
0.0
 10
370.6549196468647
 20
8.479137031581036
 30
0.0
 10
370.4173038427283
 20
9.262451321007047
 30
0.0
 10
370.2314280107464
 20
10.05962930159324
 30
0.0
 10
370.0980880842475
 20
10.86725732130199
 30
0.0
 10
370.0178550494315
 20
11.68187699658684
 30
0.0
 10
369.9910724753352
 20
12.49999999998203
 30
0.0
 10
370.0178550494315
 20
13.31812300337724
 30
0.0
 10
370.0980880842474
 20
14.132742678662
 30
0.0
 10
370.2314280107464
 20
14.94037069837071
 30
0.0
 10
370.417303842728
 20
15.73754867895686
 30
0.0
 10
370.6549196468647
 20
16.52086296838289
 30
0.0
 10
370.9432578578839
 20
17.28695934514073
 30
0.0
 10
371.2810839834572
 20
18.03255707832796
 30
0.0
 10
371.6669505935393
 20
18.75446410786446
 30
0.0
 10
372.0992083587573
 20
19.44958649010616
 30
0.0
 10
372.7349239456742
 20
20.33674771406187
 30
0.0
 10
373.4556979019735
 20
21.15863439223408
 30
0.0
 10
374.252293390734
 20
21.9047071795163
 30
0.0
 10
375.0959602438849
 20
22.59710327842146
 30
0.0
 10
376.232122912734
 20
23.35628590096132
 30
0.0
 10
377.7027806391519
 20
24.08149492596597
 30
0.0
 10
379.7730692582555
 20
24.78443413589563
 30
0.0
 10
381.4091692175372
 20
24.99999999998201
 30
0.0
 10
382.5000000000338
 20
24.99999999998202
 30
0.0
1001
REVIT
1002
{
1070
     1
1000
2509294
1002
}
1002
{
1070
     5
1000
2125215
1002
}
1002
{
1070
     3
1000
963149
1002
}
  0
SPLINE
  5
155
330
120
100
AcDbEntity
  8
A-DOOR
370
     5
100
AcDbSpline
210
0.0
220
0.0
230
1.0
 70
     8
 71
     3
 72
    41
 73
    37
 74
     0
 42
0.000000001
 43
0.0000000001
 40
-1.0
 40
-1.0
 40
-1.0
 40
-1.0
 40
-0.9166666666666666
 40
-0.875
 40
-0.8333333333333333
 40
-0.7916666666666668
 40
-0.7708333333333334
 40
-0.75
 40
-0.7083333333333333
 40
-0.6875
 40
-0.6666666666666666
 40
-0.6458333333333333
 40
-0.625
 40
-0.6041666666666668
 40
-0.5833333333333334
 40
-0.5625
 40
-0.5416666666666668
 40
-0.5208333333333334
 40
-0.5
 40
-0.4791666666666667
 40
-0.4583333333333334
 40
-0.4375
 40
-0.4166666666666667
 40
-0.3958333333333334
 40
-0.375
 40
-0.3541666666666666
 40
-0.3333333333333333
 40
-0.3125
 40
-0.2916666666666666
 40
-0.25
 40
-0.2291666666666666
 40
-0.2083333333333333
 40
-0.1666666666666666
 40
-0.125
 40
-0.0833333333333333
 40
0.0
 40
0.0
 40
0.0
 40
0.0
 10
382.5000000000339
 20
24.99999999998202
 30
0.0
 10
383.5908307825304
 20
24.99999999998202
 30
0.0
 10
385.2269307418123
 20
24.78443413589567
 30
0.0
 10
387.2972193609159
 20
24.08149492596602
 30
0.0
 10
388.767877087334
 20
23.35628590096137
 30
0.0
 10
389.9040397561823
 20
22.59710327842155
 30
0.0
 10
390.7477066093335
 20
21.90470717951643
 30
0.0
 10
391.5443020980943
 20
21.15863439223421
 30
0.0
 10
392.2650760543937
 20
20.33674771406201
 30
0.0
 10
392.9007916413106
 20
19.44958649010632
 30
0.0
 10
393.3330494065289
 20
18.75446410786461
 30
0.0
 10
393.7189160166105
 20
18.03255707832815
 30
0.0
 10
394.056742142184
 20
17.2869593451409
 30
0.0
 10
394.3450803532031
 20
16.52086296838308
 30
0.0
 10
394.5826961573397
 20
15.73754867895707
 30
0.0
 10
394.7685719893215
 20
14.94037069837088
 30
0.0
 10
394.9019119158204
 20
14.13274267866217
 30
0.0
 10
394.9821449506364
 20
13.31812300337734
 30
0.0
 10
395.0089275247326
 20
12.49999999998215
 30
0.0
 10
394.9821449506365
 20
11.68187699658699
 30
0.0
 10
394.9019119158204
 20
10.86725732130219
 30
0.0
 10
394.7685719893215
 20
10.05962930159355
 30
0.0
 10
394.5826961573398
 20
9.262451321007375
 30
0.0
 10
394.3450803532034
 20
8.479137031581377
 30
0.0
 10
394.0567421421841
 20
7.713040654823553
 30
0.0
 10
393.7189160166107
 20
6.967442921636295
 30
0.0
 10
393.3330494065291
 20
6.245535892099807
 30
0.0
 10
392.9007916413108
 20
5.550413509858052
 30
0.0
 10
392.2650760543938
 20
4.663252285902297
 30
0.0
 10
391.5443020980945
 20
3.841365607730034
 30
0.0
 10
390.7477066093335
 20
3.095292820447796
 30
0.0
 10
389.9040397561829
 20
2.402896721542674
 30
0.0
 10
388.7678770873341
 20
1.643714099002827
 30
0.0
 10
387.297219360916
 20
0.9185050739981502
 30
0.0
 10
385.2269307418125
 20
0.2155658640684311
 30
0.0
 10
383.5908307825308
 20
-0.0000000000179549
 30
0.0
 10
382.5000000000342
 20
-0.0000000000179773
 30
0.0
1001
REVIT
1002
{
1070
     1
1000
2509294
1002
}
1002
{
1070
     5
1000
2125215
1002
}
1002
{
1070
     3
1000
963149
1002
}
  0
ARC
  5
156
330
120
100
AcDbEntity
  8
A-DOOR
370
     5
100
AcDbCircle
 10
382.500000000034
 20
12.49999999998202
 30
0.0
 40
12.50000000000002
100
AcDbArc
 50
270.0000000000002
 51
89.99999999999984
1001
REVIT
1002
{
1070
     1
1000
2509294
1002
}
1002
{
1070
     5
1000
2125215
1002
}
1002
{
1070
     3
1000
963149
1002
}
  0
ARC
  5
157
330
120
100
AcDbEntity
  8
A-DOOR
370
     5
100
AcDbCircle
 10
382.500000000034
 20
12.49999999998202
 30
0.0
 40
12.50000000000001
100
AcDbArc
 50
90.00000000000031
 51
270.0000000000002
1001
REVIT
1002
{
1070
     1
1000
2509294
1002
}
1002
{
1070
     5
1000
2125215
1002
}
1002
{
1070
     3
1000
963149
1002
}
  0
LINE
  5
158
330
120
100
AcDbEntity
  8
A-DOOR
370
     5
100
AcDbLine
 10
460.000000000034
 20
-35.00000000000504
 30
0.0
 11
460.000000000034
 21
-25.00000000000731
 31
0.0
1001
REVIT
1002
{
1070
     1
1000
2509294
1002
}
1002
{
1070
     5
1000
2125215
1002
}
1002
{
1070
     3
1000
963149
1002
}
  0
LINE
  5
159
330
120
100
AcDbEntity
  8
A-DOOR
370
     5
100
AcDbLine
 10
415.0000000000355
 20
-25.00000000000731
 30
0.0
 11
415.0000000000355
 21
-35.00000000000504
 31
0.0
1001
REVIT
1002
{
1070
     1
1000
2509294
1002
}
1002
{
1070
     5
1000
2125215
1002
}
1002
{
1070
     3
1000
963149
1002
}
  0
LINE
  5
15A
330
120
100
AcDbEntity
  8
A-DOOR
370
     5
100
AcDbLine
 10
460.0000000000388
 20
-25.00000000001691
 30
0.0
 11
415.0000000000388
 21
-25.00000000001662
 31
0.0
1001
REVIT
1002
{
1070
     1
1000
2509294
1002
}
1002
{
1070
     5
1000
2125215
1002
}
1002
{
1070
     3
1000
963149
1002
}
  0
LINE
  5
15C
330
120
100
AcDbEntity
  8
A-DOOR-OPNG
100
AcDbLine
 10
-518.4999999999766
 20
-125.0000000000165
 30
0.0
 11
-518.4999999999717
 21
-1162.000000000002
 31
0.0
1001
REVIT
1002
{
1070
     1
1000
2509294
1002
}
1002
{
1070
     5
1000
2125215
1002
}
1002
{
1070
     3
1000
-2000027
1002
}
  0
ARC
  5
15D
330
120
100
AcDbEntity
  8
A-DOOR-OPNG
100
AcDbCircle
 10
-518.4999999999766
 20
-125.0000000000165
 30
0.0
 40
1036.999999999985
100
AcDbArc
 50
270.0000000000002
 51
0.0000000000003817
1001
REVIT
1002
{
1070
     1
1000
2509294
1002
}
1002
{
1070
     5
1000
2125215
1002
}
1002
{
1070
     3
1000
-2000027
1002
}
  0
ARC
  5
15E
330
120
100
AcDbEntity
  8
A-DOOR
100
AcDbCircle
 10
282.5000000000058
 20
-121.0000000000164
 30
0.0
 40
4.000000000000007
100
AcDbArc
 50
180.0000000000025
 51
269.9999999999989
1001
REVIT
1002
{
1070
     1
1000
2509294
1002
}
1002
{
1070
     5
1000
2125215
1002
}
1002
{
1070
     3
1000
-2000025
1002
}
  0
ARC
  5
15F
330
120
100
AcDbEntity
  8
A-DOOR
100
AcDbCircle
 10
282.5000000000055
 20
-39.00000000001649
 30
0.0
 40
3.999999999999992
100
AcDbArc
 50
89.99999999999904
 51
180.0000000000009
1001
REVIT
1002
{
1070
     1
1000
2509294
1002
}
1002
{
1070
     5
1000
2125215
1002
}
1002
{
1070
     3
1000
-2000025
1002
}
  0
SPLINE
  5
160
330
120
100
AcDbEntity
  8
A-DOOR
100
AcDbSpline
210
0.0
220
0.0
230
1.0
 70
     8
 71
     3
 72
    26
 73
    22
 74
     0
 42
0.000000001
 43
0.0000000001
 40
-1.0
 40
-1.0
 40
-1.0
 40
-1.0
 40
-0.9285714285714286
 40
-0.8928571428571427
 40
-0.8571428571428571
 40
-0.8214285714285713
 40
-0.7857142857142856
 40
-0.75
 40
-0.7142857142857143
 40
-0.6785714285714285
 40
-0.6428571428571428
 40
-0.5714285714285714
 40
-0.5357142857142857
 40
-0.5
 40
-0.4642857142857144
 40
-0.4285714285714286
 40
-0.3928571428571428
 40
-0.3571428571428571
 40
-0.2857142857142857
 40
-0.1428571428571428
 40
0.0
 40
0.0
 40
0.0
 40
0.0
 10
278.5000000000055
 20
-39.00000000001649
 30
0.0
 10
278.5000000000055
 20
-38.81456036884389
 30
0.0
 10
278.480634036422
 20
-38.54040547661302
 30
0.0
 10
278.4196638556433
 20
-38.18767470477226
 30
0.0
 10
278.3574146856583
 20
-37.93073452431413
 30
0.0
 10
278.2794690557229
 20
-37.68165775407615
 30
0.0
 10
278.1868160237642
 20
-37.44143775329342
 30
0.0
 10
278.0809275913639
 20
-37.21174884515431
 30
0.0
 10
277.9634488846004
 20
-36.99389986535352
 30
0.0
 10
277.8360701980048
 20
-36.78875280272074
 30
0.0
 10
277.6543168196026
 20
-36.53158973315458
 30
0.0
 10
277.4560983128601
 20
-36.29800791964
 30
0.0
 10
277.2453222621074
 20
-36.08805452259063
 30
0.0
 10
277.0824992455579
 20
-35.94283600090396
 30
0.0
 10
276.9149608823394
 20
-35.80890156368095
 30
0.0
 10
276.7425387002924
 20
-35.68551299509469
 30
0.0
 10
276.5663678092298
 20
-35.57299071438232
 30
0.0
 10
276.3284290568027
 20
-35.43778386647276
 30
0.0
 10
275.9009598568507
 20
-35.23669815727661
 30
0.0
 10
275.2716269665565
 20
-35.04938209395934
 30
0.0
 10
274.7552774816137
 20
-35.00000000001652
 30
0.0
 10
274.5000000000055
 20
-35.00000000001652
 30
0.0
1001
REVIT
1002
{
1070
     1
1000
2509294
1002
}
1002
{
1070
     5
1000
2125215
1002
}
1002
{
1070
     3
1000
-2000025
1002
}
  0
SPLINE
  5
161
330
120
100
AcDbEntity
  8
A-DOOR
100
AcDbSpline
210
0.0
220
0.0
230
1.0
 70
     8
 71
     3
 72
    27
 73
    23
 74
     0
 42
0.000000001
 43
0.0000000001
 40
-1.0
 40
-1.0
 40
-1.0
 40
-1.0
 40
-0.8571428571428571
 40
-0.7142857142857144
 40
-0.6428571428571428
 40
-0.6071428571428572
 40
-0.5714285714285714
 40
-0.5357142857142857
 40
-0.5
 40
-0.4642857142857144
 40
-0.4285714285714286
 40
-0.3928571428571428
 40
-0.3571428571428571
 40
-0.3214285714285714
 40
-0.2857142857142857
 40
-0.25
 40
-0.2142857142857143
 40
-0.1785714285714286
 40
-0.1428571428571428
 40
-0.1071428571428571
 40
-0.0714285714285714
 40
0.0
 40
0.0
 40
0.0
 40
0.0
 10
274.5000000000055
 20
-35.00000000001652
 30
0.0
 10
274.7552774816138
 20
-35.00000000001652
 30
0.0
 10
275.2716269599986
 20
-35.04938208613366
 30
0.0
 10
275.900959874886
 20
-35.23669817879741
 30
0.0
 10
276.3284290317994
 20
-35.43778383663717
 30
0.0
 10
276.5663678530888
 20
-35.57299076671696
 30
0.0
 10
276.7425385326442
 20
-35.68551279504929
 30
0.0
 10
276.9149615090735
 20
-35.80890231152794
 30
0.0
 10
277.0824969062696
 20
-35.94283320956148
 30
0.0
 10
277.2453309925262
 20
-36.0880649401137
 30
0.0
 10
277.4033717177856
 20
-36.24548069162801
 30
0.0
 10
277.5553291653584
 20
-36.41494392387314
 30
0.0
 10
277.6997225818154
 20
-36.5958416217947
 30
0.0
 10
277.8360789284293
 20
-36.78876322025081
 30
0.0
 10
277.9634465452904
 20
-36.9938970739849
 30
0.0
 10
278.0809282181798
 20
-37.21174959309896
 30
0.0
 10
278.1868158558105
 20
-37.44143755288361
 30
0.0
 10
278.2794691007219
 20
-37.68165780777088
 30
0.0
 10
278.3574146736163
 20
-37.93073450994509
 30
0.0
 10
278.4196638588122
 20
-38.18767470855359
 30
0.0
 10
278.4806340345207
 20
-38.54040547434425
 30
0.0
 10
278.5000000000055
 20
-38.81456036884389
 30
0.0
 10
278.5000000000055
 20
-39.0000000000165
 30
0.0
1001
REVIT
1002
{
1070
     1
1000
2509294
1002
}
1002
{
1070
     5
1000
2125215
1002
}
1002
{
1070
     3
1000
-2000025
1002
}
  0
SPLINE
  5
162
330
120
100
AcDbEntity
  8
A-DOOR
100
AcDbSpline
210
0.0
220
0.0
230
1.0
 70
     8
 71
     3
 72
    26
 73
    22
 74
     0
 42
0.000000001
 43
0.0000000001
 40
-1.0
 40
-1.0
 40
-1.0
 40
-1.0
 40
-0.9285714285714286
 40
-0.8928571428571427
 40
-0.8571428571428571
 40
-0.8214285714285713
 40
-0.7857142857142856
 40
-0.75
 40
-0.7142857142857143
 40
-0.6785714285714285
 40
-0.6428571428571428
 40
-0.5714285714285714
 40
-0.5357142857142857
 40
-0.5
 40
-0.4642857142857144
 40
-0.4285714285714286
 40
-0.3928571428571428
 40
-0.3571428571428571
 40
-0.2857142857142857
 40
-0.1428571428571428
 40
0.0
 40
0.0
 40
0.0
 40
0.0
 10
278.5000000000057
 20
-121.0000000000145
 30
0.0
 10
278.5000000000058
 20
-121.1854396311875
 30
0.0
 10
278.4806340364223
 20
-121.459594523419
 30
0.0
 10
278.4196638556436
 20
-121.8123252952607
 30
0.0
 10
278.3574146856582
 20
-122.0692654757197
 30
0.0
 10
278.2794690557225
 20
-122.3183422459585
 30
0.0
 10
278.1868160237633
 20
-122.558562246742
 30
0.0
 10
278.0809275913624
 20
-122.7882511548819
 30
0.0
 10
277.9634488845982
 20
-123.0061001346835
 30
0.0
 10
277.8360701980018
 20
-123.211247197317
 30
0.0
 10
277.6543168195984
 20
-123.4684102668842
 30
0.0
 10
277.4560983128543
 20
-123.7019920803996
 30
0.0
 10
277.2453222620996
 20
-123.9119454774499
 30
0.0
 10
277.0824992455484
 20
-124.0571639991371
 30
0.0
 10
276.9149608823281
 20
-124.1910984363606
 30
0.0
 10
276.7425387002789
 20
-124.3144870049475
 30
0.0
 10
276.5663678092141
 20
-124.4270092856602
 30
0.0
 10
276.328429056784
 20
-124.5622161335698
 30
0.0
 10
275.9009598568273
 20
-124.7633018427668
 30
0.0
 10
275.2716269664726
 20
-124.950617906091
 30
0.0
 10
274.7552774815777
 20
-125.0000000000163
 30
0.0
 10
274.5000000000057
 20
-125.0000000000164
 30
0.0
1001
REVIT
1002
{
1070
     1
1000
2509294
1002
}
1002
{
1070
     5
1000
2125215
1002
}
1002
{
1070
     3
1000
-2000025
1002
}
  0
SPLINE
  5
163
330
120
100
AcDbEntity
  8
A-DOOR
100
AcDbSpline
210
0.0
220
0.0
230
1.0
 70
     8
 71
     3
 72
    27
 73
    23
 74
     0
 42
0.000000001
 43
0.0000000001
 40
-1.0
 40
-1.0
 40
-1.0
 40
-1.0
 40
-0.8571428571428571
 40
-0.7142857142857144
 40
-0.6428571428571428
 40
-0.6071428571428572
 40
-0.5714285714285714
 40
-0.5357142857142857
 40
-0.5
 40
-0.4642857142857144
 40
-0.4285714285714286
 40
-0.3928571428571428
 40
-0.3571428571428571
 40
-0.3214285714285714
 40
-0.2857142857142857
 40
-0.25
 40
-0.2142857142857143
 40
-0.1785714285714286
 40
-0.1428571428571428
 40
-0.1071428571428571
 40
-0.0714285714285714
 40
0.0
 40
0.0
 40
0.0
 40
0.0
 10
274.5000000000057
 20
-125.0000000000164
 30
0.0
 10
274.7552774815779
 20
-125.0000000000164
 30
0.0
 10
275.2716269599147
 20
-124.9506179139167
 30
0.0
 10
275.9009598748624
 20
-124.7633018212461
 30
0.0
 10
276.3284290317801
 20
-124.5622161634056
 30
0.0
 10
276.5663678530733
 20
-124.4270092333255
 30
0.0
 10
276.7425385326306
 20
-124.3144872049929
 30
0.0
 10
276.9149615090622
 20
-124.1910976885136
 30
0.0
 10
277.0824969062604
 20
-124.0571667904796
 30
0.0
 10
277.2453309925182
 20
-123.9119350599268
 30
0.0
 10
277.4033717177792
 20
-123.7545193084119
 30
0.0
 10
277.5553291653533
 20
-123.5850560761661
 30
0.0
 10
277.6997225818112
 20
-123.4041583782438
 30
0.0
 10
277.8360789284263
 20
-123.2112367797869
 30
0.0
 10
277.9634465452882
 20
-123.0061029260521
 30
0.0
 10
278.0809282181784
 20
-122.7882504069373
 30
0.0
 10
278.1868158558096
 20
-122.5585624471518
 30
0.0
 10
278.2794691007215
 20
-122.3183421922638
 30
0.0
 10
278.3574146736162
 20
-122.0692654900887
 30
0.0
 10
278.4196638588124
 20
-121.8123252914795
 30
0.0
 10
278.4806340345209
 20
-121.4595945256877
 30
0.0
 10
278.5000000000058
 20
-121.1854396311876
 30
0.0
 10
278.5000000000057
 20
-121.0000000000145
 30
0.0
1001
REVIT
1002
{
1070
     1
1000
2509294
1002
}
1002
{
1070
     5
1000
2125215
1002
}
1002
{
1070
     3
1000
-2000025
1002
}
  0
LINE
  5
164
330
120
100
AcDbEntity
  8
A-DOOR
100
AcDbLine
 10
-488.4999999999801
 20
-55.00000000002351
 30
0.0
 11
-488.4999999999801
 21
-35.00000000001698
 31
0.0
1001
REVIT
1002
{
1070
     1
1000
2509294
1002
}
1002
{
1070
     5
1000
2125215
1002
}
1002
{
1070
     3
1000
-2000025
1002
}
  0
LINE
  5
165
330
120
100
AcDbEntity
  8
A-DOOR
100
AcDbLine
 10
-503.4999999999802
 20
-55.00000000001695
 30
0.0
 11
-488.4999999999801
 21
-55.00000000002351
 31
0.0
1001
REVIT
1002
{
1070
     1
1000
2509294
1002
}
1002
{
1070
     5
1000
2125215
1002
}
1002
{
1070
     3
1000
-2000025
1002
}
  0
LINE
  5
166
330
120
100
AcDbEntity
  8
A-DOOR
100
AcDbLine
 10
-503.4999999999806
 20
-105.0000000000202
 30
0.0
 11
-503.4999999999802
 21
-55.00000000001695
 31
0.0
1001
REVIT
1002
{
1070
     1
1000
2509294
1002
}
1002
{
1070
     5
1000
2125215
1002
}
1002
{
1070
     3
1000
-2000025
1002
}
  0
LINE
  5
167
330
120
100
AcDbEntity
  8
A-DOOR
100
AcDbLine
 10
-518.4999999999766
 20
-105.0000000000202
 30
0.0
 11
-503.4999999999806
 21
-105.0000000000202
 31
0.0
1001
REVIT
1002
{
1070
     1
1000
2509294
1002
}
1002
{
1070
     5
1000
2125215
1002
}
1002
{
1070
     3
1000
-2000025
1002
}
  0
LINE
  5
168
330
120
100
AcDbEntity
  8
A-DOOR
100
AcDbLine
 10
-518.4999999999766
 20
-125.0000000000165
 30
0.0
 11
-518.4999999999766
 21
-105.0000000000202
 31
0.0
1001
REVIT
1002
{
1070
     1
1000
2509294
1002
}
1002
{
1070
     5
1000
2125215
1002
}
1002
{
1070
     3
1000
-2000025
1002
}
  0
LINE
  5
169
330
120
100
AcDbEntity
  8
A-DOOR
100
AcDbLine
 10
274.5000000000057
 20
-125.0000000000165
 30
0.0
 11
-518.4999999999766
 21
-125.0000000000165
 31
0.0
1001
REVIT
1002
{
1070
     1
1000
2509294
1002
}
1002
{
1070
     5
1000
2125215
1002
}
1002
{
1070
     3
1000
-2000025
1002
}
  0
ARC
  5
16A
330
120
100
AcDbEntity
  8
A-DOOR
100
AcDbCircle
 10
274.5000000000057
 20
-121.0000000000164
 30
0.0
 40
3.999999999999992
100
AcDbArc
 50
269.9999999999995
 51
0.0000000000218759
1001
REVIT
1002
{
1070
     1
1000
2509294
1002
}
1002
{
1070
     5
1000
2125215
1002
}
1002
{
1070
     3
1000
-2000025
1002
}
  0
ARC
  5
16B
330
120
100
AcDbEntity
  8
A-DOOR
100
AcDbCircle
 10
282.5000000000057
 20
-121.0000000000164
 30
0.0
 40
4.0
100
AcDbArc
 50
179.9999999999786
 51
269.9999999999997
1001
REVIT
1002
{
1070
     1
1000
2509294
1002
}
1002
{
1070
     5
1000
2125215
1002
}
1002
{
1070
     3
1000
-2000025
1002
}
  0
LINE
  5
16C
330
120
100
AcDbEntity
  8
A-DOOR
100
AcDbLine
 10
518.500000000005
 20
-125.0000000000165
 30
0.0
 11
282.5000000000057
 21
-125.0000000000165
 31
0.0
1001
REVIT
1002
{
1070
     1
1000
2509294
1002
}
1002
{
1070
     5
1000
2125215
1002
}
1002
{
1070
     3
1000
-2000025
1002
}
  0
LINE
  5
16D
330
120
100
AcDbEntity
  8
A-DOOR
100
AcDbLine
 10
518.500000000005
 20
-105.0000000000169
 30
0.0
 11
518.500000000005
 21
-125.0000000000165
 31
0.0
1001
REVIT
1002
{
1070
     1
1000
2509294
1002
}
1002
{
1070
     5
1000
2125215
1002
}
1002
{
1070
     3
1000
-2000025
1002
}
  0
LINE
  5
16E
330
120
100
AcDbEntity
  8
A-DOOR
100
AcDbLine
 10
503.5000000000049
 20
-105.0000000000169
 30
0.0
 11
518.500000000005
 21
-105.0000000000169
 31
0.0
1001
REVIT
1002
{
1070
     1
1000
2509294
1002
}
1002
{
1070
     5
1000
2125215
1002
}
1002
{
1070
     3
1000
-2000025
1002
}
  0
LINE
  5
16F
330
120
100
AcDbEntity
  8
A-DOOR
100
AcDbLine
 10
503.5000000000047
 20
-55.00000000001695
 30
0.0
 11
503.5000000000049
 21
-105.0000000000169
 31
0.0
1001
REVIT
1002
{
1070
     1
1000
2509294
1002
}
1002
{
1070
     5
1000
2125215
1002
}
1002
{
1070
     3
1000
-2000025
1002
}
  0
LINE
  5
170
330
120
100
AcDbEntity
  8
A-DOOR
100
AcDbLine
 10
488.5000000000046
 20
-55.00000000001705
 30
0.0
 11
503.5000000000047
 21
-55.00000000001695
 31
0.0
1001
REVIT
1002
{
1070
     1
1000
2509294
1002
}
1002
{
1070
     5
1000
2125215
1002
}
1002
{
1070
     3
1000
-2000025
1002
}
  0
LINE
  5
171
330
120
100
AcDbEntity
  8
A-DOOR
100
AcDbLine
 10
488.5000000000046
 20
-35.00000000001698
 30
0.0
 11
488.5000000000046
 21
-55.00000000001705
 31
0.0
1001
REVIT
1002
{
1070
     1
1000
2509294
1002
}
1002
{
1070
     5
1000
2125215
1002
}
1002
{
1070
     3
1000
-2000025
1002
}
  0
LINE
  5
172
330
120
100
AcDbEntity
  8
A-DOOR
100
AcDbLine
 10
282.5000000000055
 20
-35.00000000001698
 30
0.0
 11
488.5000000000046
 21
-35.00000000001698
 31
0.0
1001
REVIT
1002
{
1070
     1
1000
2509294
1002
}
1002
{
1070
     5
1000
2125215
1002
}
1002
{
1070
     3
1000
-2000025
1002
}
  0
ARC
  5
173
330
120
100
AcDbEntity
  8
A-DOOR
100
AcDbCircle
 10
282.5000000000056
 20
-39.00000000001649
 30
0.0
 40
3.999999999999988
100
AcDbArc
 50
90.00000000000062
 51
179.9999999999998
1001
REVIT
1002
{
1070
     1
1000
2509294
1002
}
1002
{
1070
     5
1000
2125215
1002
}
1002
{
1070
     3
1000
-2000025
1002
}
  0
ARC
  5
174
330
120
100
AcDbEntity
  8
A-DOOR
100
AcDbCircle
 10
274.5000000000056
 20
-39.00000000001652
 30
0.0
 40
4.000000000000003
100
AcDbArc
 50
0.0000000000006552
 51
90.00000000000005
1001
REVIT
1002
{
1070
     1
1000
2509294
1002
}
1002
{
1070
     5
1000
2125215
1002
}
1002
{
1070
     3
1000
-2000025
1002
}
  0
LINE
  5
175
330
120
100
AcDbEntity
  8
A-DOOR
100
AcDbLine
 10
-488.4999999999801
 20
-35.00000000001698
 30
0.0
 11
274.5000000000054
 21
-35.00000000001698
 31
0.0
1001
REVIT
1002
{
1070
     1
1000
2509294
1002
}
1002
{
1070
     5
1000
2125215
1002
}
1002
{
1070
     3
1000
-2000025
1002
}
  0
LINE
  5
176
330
120
100
AcDbEntity
  8
A-DOOR
100
AcDbLine
 10
274.5000000000035
 20
-35.00000000001698
 30
0.0
 11
282.5000000000025
 21
-35.00000000001698
 31
0.0
1001
REVIT
1002
{
1070
     1
1000
2509294
1002
}
1002
{
1070
     5
1000
2125215
1002
}
1002
{
1070
     3
1000
-2000025
1002
}
  0
LINE
  5
177
330
120
100
AcDbEntity
  8
A-DOOR
370
     5
100
AcDbLine
 10
447.5000000000282
 20
-185.0000000000056
 30
0.0
 11
447.5000000000282
 21
-135.0000000000083
 31
0.0
1001
REVIT
1002
{
1070
     1
1000
2509294
1002
}
1002
{
1070
     5
1000
2125215
1002
}
1002
{
1070
     3
1000
963149
1002
}
  0
LINE
  5
178
330
120
100
AcDbEntity
  8
A-DOOR
370
     5
100
AcDbLine
 10
427.5000000000327
 20
-135.0000000000083
 30
0.0
 11
427.5000000000327
 21
-165.0000000000058
 31
0.0
1001
REVIT
1002
{
1070
     1
1000
2509294
1002
}
1002
{
1070
     5
1000
2125215
1002
}
1002
{
1070
     3
1000
963149
1002
}
  0
LINE
  5
179
330
120
100
AcDbEntity
  8
A-DOOR
370
     5
100
AcDbLine
 10
317.5000000000318
 20
-185.0000000000056
 30
0.0
 11
447.5000000000282
 21
-185.0000000000056
 31
0.0
1001
REVIT
1002
{
1070
     1
1000
2509294
1002
}
1002
{
1070
     5
1000
2125215
1002
}
1002
{
1070
     3
1000
963149
1002
}
  0
LINE
  5
17A
330
120
100
AcDbEntity
  8
A-DOOR
370
     5
100
AcDbLine
 10
427.5000000000327
 20
-165.0000000000058
 30
0.0
 11
317.5000000000318
 21
-165.0000000000058
 31
0.0
1001
REVIT
1002
{
1070
     1
1000
2509294
1002
}
1002
{
1070
     5
1000
2125215
1002
}
1002
{
1070
     3
1000
963149
1002
}
  0
SPLINE
  5
17B
330
120
100
AcDbEntity
  8
A-DOOR
370
     5
100
AcDbSpline
210
0.0
220
0.0
230
1.0
 70
     8
 71
     3
 72
    40
 73
    36
 74
     0
 42
0.000000001
 43
0.0000000001
 40
0.0
 40
0.0
 40
0.0
 40
0.0
 40
0.0833333333333333
 40
0.125
 40
0.1666666666666666
 40
0.2083333333333333
 40
0.2291666666666666
 40
0.25
 40
0.2916666666666666
 40
0.3333333333333333
 40
0.3541666666666666
 40
0.375
 40
0.3958333333333334
 40
0.4166666666666667
 40
0.4375
 40
0.4583333333333334
 40
0.4791666666666667
 40
0.5
 40
0.5208333333333334
 40
0.5416666666666668
 40
0.5625
 40
0.5833333333333334
 40
0.6041666666666668
 40
0.625
 40
0.6458333333333333
 40
0.6666666666666666
 40
0.6875
 40
0.7083333333333333
 40
0.75
 40
0.7708333333333334
 40
0.7916666666666668
 40
0.8333333333333333
 40
0.875
 40
0.9166666666666666
 40
1.0
 40
1.0
 40
1.0
 40
1.0
 10
427.5000000000365
 20
-165.0000000000159
 30
0.0
 10
427.5000000000365
 20
-165.0038701643961
 30
0.0
 10
427.672452686795
 20
-165.1705758726298
 30
0.0
 10
428.2348040667665
 20
-165.7366420355272
 30
0.0
 10
428.8149712506871
 20
-166.314635859101
 30
0.0
 10
429.4223174614789
 20
-166.9218478940979
 30
0.0
 10
429.9762341105727
 20
-167.4797519217576
 30
0.0
 10
430.5730932770575
 20
-168.071008111365
 30
0.0
 10
431.3949727761808
 20
-168.8961502111811
 30
0.0
 10
432.3039169441472
 20
-169.8058019370714
 30
0.0
 10
433.0739549454079
 20
-170.5703264710826
 30
0.0
 10
433.6704323609834
 20
-171.1709213839583
 30
0.0
 10
434.2833096689715
 20
-171.7874956504179
 30
0.0
 10
434.909961045159
 20
-172.4099114850172
 30
0.0
 10
435.5477034444596
 20
-173.0437157034564
 30
0.0
 10
436.1938058562525
 20
-173.6939579785852
 30
0.0
 10
436.8455015975453
 20
-174.3497381909524
 30
0.0
 10
437.4999999999759
 20
-175.0000000168105
 30
0.0
 10
438.1544984027686
 20
-175.6502617418999
 30
0.0
 10
438.806194142976
 20
-176.3060422565728
 30
0.0
 10
439.4522965587486
 20
-176.9562834232474
 30
0.0
 10
440.0900389432159
 20
-177.5900917731975
 30
0.0
 10
440.716690374757
 20
-178.2124921902081
 30
0.0
 10
441.3295674761633
 20
-178.8291239955113
 30
0.0
 10
441.9260456627129
 20
-179.4295041706011
 30
0.0
 10
442.5035712863422
 20
-180.0036989834099
 30
0.0
 10
443.0596691921354
 20
-180.5556998958534
 30
0.0
 10
443.7693981713006
 20
-181.2702575939519
 30
0.0
 10
444.4269075138379
 20
-181.9287716225515
 30
0.0
 10
445.0237657436637
 20
-182.5202886976905
 30
0.0
 10
445.577682622788
 20
-183.0781286555487
 30
0.0
 10
446.1850287208199
 20
-183.6853720973111
 30
0.0
 10
446.7651959408234
 20
-184.26335587072
 30
0.0
 10
447.3275473087671
 20
-184.8294253836724
 30
0.0
 10
447.500000000036
 20
-184.9961298356353
 30
0.0
 10
447.5000000000363
 20
-185.0000000000157
 30
0.0
1001
REVIT
1002
{
1070
     1
1000
2509294
1002
}
1002
{
1070
     5
1000
2125215
1002
}
1002
{
1070
     3
1000
963149
1002
}
  0
LINE
  5
17C
330
120
100
AcDbEntity
  8
A-DOOR
370
     5
100
AcDbLine
 10
317.5000000000366
 20
-165.0000000000155
 30
0.0
 11
317.5000000000365
 21
-185.0000000000153
 31
0.0
1001
REVIT
1002
{
1070
     1
1000
2509294
1002
}
1002
{
1070
     5
1000
2125215
1002
}
1002
{
1070
     3
1000
963149
1002
}
  0
LINE
  5
17D
330
120
100
AcDbEntity
  8
A-DOOR
370
     5
100
AcDbLine
 10
447.5000000000369
 20
-185.0000000000099
 30
0.0
 11
447.5000000000369
 21
-135.0000000000083
 31
0.0
1001
REVIT
1002
{
1070
     1
1000
2509294
1002
}
1002
{
1070
     5
1000
2125215
1002
}
1002
{
1070
     3
1000
963149
1002
}
  0
LINE
  5
17E
330
120
100
AcDbEntity
  8
A-DOOR
370
     5
100
AcDbLine
 10
427.5000000000327
 20
-135.0000000000083
 30
0.0
 11
427.5000000000327
 21
-165.0000000000101
 31
0.0
1001
REVIT
1002
{
1070
     1
1000
2509294
1002
}
1002
{
1070
     5
1000
2125215
1002
}
1002
{
1070
     3
1000
963149
1002
}
  0
LINE
  5
17F
330
120
100
AcDbEntity
  8
A-DOOR
370
     5
100
AcDbLine
 10
317.5000000000318
 20
-185.0000000000099
 30
0.0
 11
447.5000000000369
 21
-185.0000000000099
 31
0.0
1001
REVIT
1002
{
1070
     1
1000
2509294
1002
}
1002
{
1070
     5
1000
2125215
1002
}
1002
{
1070
     3
1000
963149
1002
}
  0
LINE
  5
180
330
120
100
AcDbEntity
  8
A-DOOR
370
     5
100
AcDbLine
 10
427.5000000000327
 20
-165.0000000000101
 30
0.0
 11
317.5000000000318
 21
-165.0000000000058
 31
0.0
1001
REVIT
1002
{
1070
     1
1000
2509294
1002
}
1002
{
1070
     5
1000
2125215
1002
}
1002
{
1070
     3
1000
963149
1002
}
  0
SPLINE
  5
181
330
120
100
AcDbEntity
  8
A-DOOR
370
     5
100
AcDbSpline
210
0.0
220
0.0
230
1.0
 70
     8
 71
     3
 72
    40
 73
    36
 74
     0
 42
0.000000001
 43
0.0000000001
 40
0.0
 40
0.0
 40
0.0
 40
0.0
 40
0.0833333333333333
 40
0.125
 40
0.1666666666666666
 40
0.2083333333333333
 40
0.2291666666666666
 40
0.25
 40
0.2916666666666666
 40
0.3333333333333333
 40
0.3541666666666666
 40
0.375
 40
0.3958333333333334
 40
0.4166666666666667
 40
0.4375
 40
0.4583333333333334
 40
0.4791666666666667
 40
0.5
 40
0.5208333333333334
 40
0.5416666666666668
 40
0.5625
 40
0.5833333333333334
 40
0.6041666666666668
 40
0.625
 40
0.6458333333333333
 40
0.6666666666666666
 40
0.6875
 40
0.7083333333333333
 40
0.75
 40
0.7708333333333334
 40
0.7916666666666668
 40
0.8333333333333333
 40
0.875
 40
0.9166666666666666
 40
1.0
 40
1.0
 40
1.0
 40
1.0
 10
427.5000000000384
 20
-165.000000000019
 30
0.0
 10
427.5000000000384
 20
-165.0038701643992
 30
0.0
 10
427.6724526867972
 20
-165.1705758726329
 30
0.0
 10
428.2348040667685
 20
-165.7366420355303
 30
0.0
 10
428.8149712506894
 20
-166.3146358591042
 30
0.0
 10
429.422317461481
 20
-166.921847894101
 30
0.0
 10
429.9762341105748
 20
-167.4797519217607
 30
0.0
 10
430.5730932770598
 20
-168.0710081113681
 30
0.0
 10
431.3949727761825
 20
-168.8961502111843
 30
0.0
 10
432.3039169441492
 20
-169.8058019370745
 30
0.0
 10
433.0739549454101
 20
-170.5703264710856
 30
0.0
 10
433.6704323609851
 20
-171.1709213839614
 30
0.0
 10
434.2833096689735
 20
-171.7874956504211
 30
0.0
 10
434.9099610451609
 20
-172.4099114850203
 30
0.0
 10
435.5477034444616
 20
-173.0437157034596
 30
0.0
 10
436.1938058562544
 20
-173.6939579785883
 30
0.0
 10
436.8455015975471
 20
-174.3497381909555
 30
0.0
 10
437.4999999999777
 20
-175.0000000168136
 30
0.0
 10
438.1544984027704
 20
-175.6502617419029
 30
0.0
 10
438.8061941429779
 20
-176.3060422565759
 30
0.0
 10
439.4522965587504
 20
-176.9562834232506
 30
0.0
 10
440.0900389432178
 20
-177.5900917732006
 30
0.0
 10
440.7166903747589
 20
-178.2124921902112
 30
0.0
 10
441.329567476165
 20
-178.8291239955144
 30
0.0
 10
441.9260456627151
 20
-179.4295041706043
 30
0.0
 10
442.5035712863439
 20
-180.003698983413
 30
0.0
 10
443.0596691921377
 20
-180.5556998958565
 30
0.0
 10
443.7693981713021
 20
-181.2702575939549
 30
0.0
 10
444.4269075138401
 20
-181.9287716225545
 30
0.0
 10
445.0237657436658
 20
-182.5202886976935
 30
0.0
 10
445.5776826227895
 20
-183.0781286555517
 30
0.0
 10
446.1850287208226
 20
-183.6853720973141
 30
0.0
 10
446.7651959408252
 20
-184.2633558707231
 30
0.0
 10
447.327547308769
 20
-184.8294253836756
 30
0.0
 10
447.5000000000382
 20
-184.9961298356384
 30
0.0
 10
447.5000000000383
 20
-185.0000000000188
 30
0.0
1001
REVIT
1002
{
1070
     1
1000
2509294
1002
}
1002
{
1070
     5
1000
2125215
1002
}
1002
{
1070
     3
1000
963149
1002
}
  0
LINE
  5
182
330
120
100
AcDbEntity
  8
A-DOOR
370
     5
100
AcDbLine
 10
317.5000000000366
 20
-165.0000000000187
 30
0.0
 11
317.5000000000365
 21
-185.0000000000184
 31
0.0
1001
REVIT
1002
{
1070
     1
1000
2509294
1002
}
1002
{
1070
     5
1000
2125215
1002
}
1002
{
1070
     3
1000
963149
1002
}
  0
LINE
  5
183
330
120
100
AcDbEntity
  8
A-DOOR
370
     5
100
AcDbLine
 10
460.000000000034
 20
-135.0000000000083
 30
0.0
 11
460.000000000034
 21
-125.0000000000062
 31
0.0
1001
REVIT
1002
{
1070
     1
1000
2509294
1002
}
1002
{
1070
     5
1000
2125215
1002
}
1002
{
1070
     3
1000
963149
1002
}
  0
LINE
  5
184
330
120
100
AcDbEntity
  8
A-DOOR
370
     5
100
AcDbLine
 10
415.0000000000355
 20
-125.0000000000062
 30
0.0
 11
415.0000000000355
 21
-135.0000000000083
 31
0.0
1001
REVIT
1002
{
1070
     1
1000
2509294
1002
}
1002
{
1070
     5
1000
2125215
1002
}
1002
{
1070
     3
1000
963149
1002
}
  0
LINE
  5
185
330
120
100
AcDbEntity
  8
A-DOOR
370
     5
100
AcDbLine
 10
415.0000000000385
 20
-135.0000000000169
 30
0.0
 11
460.0000000000386
 21
-135.0000000000169
 31
0.0
1001
REVIT
1002
{
1070
     1
1000
2509294
1002
}
1002
{
1070
     5
1000
2125215
1002
}
1002
{
1070
     3
1000
963149
1002
}
  0
LINE
  5
187
330
120
100
AcDbEntity
  8
A-DOOR-FRAM
100
AcDbLine
 10
522.5000000000335
 20
-125.0000000000169
 30
0.0
 11
567.4999999999905
 21
-125.000000000017
 31
0.0
1001
REVIT
1002
{
1070
     1
1000
2509294
1002
}
1002
{
1070
     5
1000
2125215
1002
}
1002
{
1070
     3
1000
-2000029
1002
}
  0
LINE
  5
188
330
120
100
AcDbEntity
  8
A-DOOR-FRAM
100
AcDbLine
 10
567.4999999999905
 20
-125.000000000017
 30
0.0
 11
567.4999999999908
 21
-35.00000000001711
 31
0.0
1001
REVIT
1002
{
1070
     1
1000
2509294
1002
}
1002
{
1070
     5
1000
2125215
1002
}
1002
{
1070
     3
1000
-2000029
1002
}
  0
LINE
  5
189
330
120
100
AcDbEntity
  8
A-DOOR-FRAM
100
AcDbLine
 10
567.4999999999908
 20
-35.00000000001711
 30
0.0
 11
492.5000000000335
 21
-35.00000000001686
 31
0.0
1001
REVIT
1002
{
1070
     1
1000
2509294
1002
}
1002
{
1070
     5
1000
2125215
1002
}
1002
{
1070
     3
1000
-2000029
1002
}
  0
LINE
  5
18A
330
120
100
AcDbEntity
  8
A-DOOR-FRAM
100
AcDbLine
 10
492.5000000000335
 20
-35.00000000001686
 30
0.0
 11
492.5000000000334
 21
-55.00000000002027
 31
0.0
1001
REVIT
1002
{
1070
     1
1000
2509294
1002
}
1002
{
1070
     5
1000
2125215
1002
}
1002
{
1070
     3
1000
-2000029
1002
}
  0
LINE
  5
18B
330
120
100
AcDbEntity
  8
A-DOOR-FRAM
100
AcDbLine
 10
492.5000000000334
 20
-55.00000000002027
 30
0.0
 11
507.5000000000328
 21
-55.00000000002036
 31
0.0
1001
REVIT
1002
{
1070
     1
1000
2509294
1002
}
1002
{
1070
     5
1000
2125215
1002
}
1002
{
1070
     3
1000
-2000029
1002
}
  0
LINE
  5
18C
330
120
100
AcDbEntity
  8
A-DOOR-FRAM
100
AcDbLine
 10
507.5000000000328
 20
-55.00000000002036
 30
0.0
 11
507.5000000000333
 21
-105.0000000000169
 31
0.0
1001
REVIT
1002
{
1070
     1
1000
2509294
1002
}
1002
{
1070
     5
1000
2125215
1002
}
1002
{
1070
     3
1000
-2000029
1002
}
  0
LINE
  5
18D
330
120
100
AcDbEntity
  8
A-DOOR-FRAM
100
AcDbLine
 10
507.5000000000333
 20
-105.0000000000169
 30
0.0
 11
522.500000000033
 21
-105.0000000000169
 31
0.0
1001
REVIT
1002
{
1070
     1
1000
2509294
1002
}
1002
{
1070
     5
1000
2125215
1002
}
1002
{
1070
     3
1000
-2000029
1002
}
  0
LINE
  5
18E
330
120
100
AcDbEntity
  8
A-DOOR-FRAM
100
AcDbLine
 10
522.500000000033
 20
-105.0000000000169
 30
0.0
 11
522.5000000000335
 21
-125.0000000000169
 31
0.0
1001
REVIT
1002
{
1070
     1
1000
2509294
1002
}
1002
{
1070
     5
1000
2125215
1002
}
1002
{
1070
     3
1000
-2000029
1002
}
  0
LINE
  5
18F
330
120
100
AcDbEntity
  8
A-DOOR-FRAM
100
AcDbLine
 10
-567.5000000000076
 20
-125.0000000000134
 30
0.0
 11
-522.4999999999654
 21
-125.0000000000135
 31
0.0
1001
REVIT
1002
{
1070
     1
1000
2509294
1002
}
1002
{
1070
     5
1000
2125215
1002
}
1002
{
1070
     3
1000
-2000029
1002
}
  0
LINE
  5
190
330
120
100
AcDbEntity
  8
A-DOOR-FRAM
100
AcDbLine
 10
-522.4999999999654
 20
-125.0000000000135
 30
0.0
 11
-522.4999999999653
 21
-105.0000000000136
 31
0.0
1001
REVIT
1002
{
1070
     1
1000
2509294
1002
}
1002
{
1070
     5
1000
2125215
1002
}
1002
{
1070
     3
1000
-2000029
1002
}
  0
LINE
  5
191
330
120
100
AcDbEntity
  8
A-DOOR-FRAM
100
AcDbLine
 10
-522.4999999999653
 20
-105.0000000000136
 30
0.0
 11
-507.4999999999653
 21
-105.0000000000136
 31
0.0
1001
REVIT
1002
{
1070
     1
1000
2509294
1002
}
1002
{
1070
     5
1000
2125215
1002
}
1002
{
1070
     3
1000
-2000029
1002
}
  0
LINE
  5
192
330
120
100
AcDbEntity
  8
A-DOOR-FRAM
100
AcDbLine
 10
-507.4999999999653
 20
-105.0000000000136
 30
0.0
 11
-507.4999999999652
 21
-55.00000000001366
 31
0.0
1001
REVIT
1002
{
1070
     1
1000
2509294
1002
}
1002
{
1070
     5
1000
2125215
1002
}
1002
{
1070
     3
1000
-2000029
1002
}
  0
LINE
  5
193
330
120
100
AcDbEntity
  8
A-DOOR-FRAM
100
AcDbLine
 10
-507.4999999999652
 20
-55.00000000001366
 30
0.0
 11
-492.499999999965
 21
-55.00000000001375
 31
0.0
1001
REVIT
1002
{
1070
     1
1000
2509294
1002
}
1002
{
1070
     5
1000
2125215
1002
}
1002
{
1070
     3
1000
-2000029
1002
}
  0
LINE
  5
194
330
120
100
AcDbEntity
  8
A-DOOR-FRAM
100
AcDbLine
 10
-492.499999999965
 20
-55.00000000001375
 30
0.0
 11
-492.499999999965
 21
-35.00000000001369
 31
0.0
1001
REVIT
1002
{
1070
     1
1000
2509294
1002
}
1002
{
1070
     5
1000
2125215
1002
}
1002
{
1070
     3
1000
-2000029
1002
}
  0
LINE
  5
195
330
120
100
AcDbEntity
  8
A-DOOR-FRAM
100
AcDbLine
 10
-492.499999999965
 20
-35.00000000001369
 30
0.0
 11
-567.5000000000072
 21
-35.00000000001345
 31
0.0
1001
REVIT
1002
{
1070
     1
1000
2509294
1002
}
1002
{
1070
     5
1000
2125215
1002
}
1002
{
1070
     3
1000
-2000029
1002
}
  0
LINE
  5
196
330
120
100
AcDbEntity
  8
A-DOOR-FRAM
100
AcDbLine
 10
-567.5000000000072
 20
-35.00000000001345
 30
0.0
 11
-567.5000000000076
 21
-125.0000000000134
 31
0.0
1001
REVIT
1002
{
1070
     1
1000
2509294
1002
}
1002
{
1070
     5
1000
2125215
1002
}
1002
{
1070
     3
1000
-2000029
1002
}
  0
ENDBLK
  5
198
330
120
100
AcDbEntity
  8
0
100
AcDbBlockEnd
  0
BLOCK
  5
1A7
330
19A
100
AcDbEntity
  8
0
100
AcDbBlockBegin
  2
Tisch-01 - 1700 x 900 x 780-2296047-Ebene 0
 70
     0
 10
0.0
 20
0.0
 30
0.0
  3
Tisch-01 - 1700 x 900 x 780-2296047-Ebene 0
  1

  0
LINE
  5
19B
330
19A
100
AcDbEntity
  8
I-FURN
100
AcDbLine
 10
594.6852459016297
 20
269.2852459016435
 30
0.0
 11
-905.3147540983681
 21
269.2852459016436
 31
0.0
1001
REVIT
1002
{
1070
     1
1000
2509496
1002
}
1002
{
1070
     5
1000
2296047
1002
}
  0
LINE
  5
19C
330
19A
100
AcDbEntity
  8
I-FURN
100
AcDbLine
 10
-905.3147540983681
 20
269.2852459016436
 30
0.0
 11
-905.3147540983681
 21
-630.7147540983623
 31
0.0
1001
REVIT
1002
{
1070
     1
1000
2509496
1002
}
1002
{
1070
     5
1000
2296047
1002
}
  0
LINE
  5
19D
330
19A
100
AcDbEntity
  8
I-FURN
100
AcDbLine
 10
-905.3147540983681
 20
-630.7147540983623
 30
0.0
 11
594.6852459016298
 21
-630.7147540983623
 31
0.0
1001
REVIT
1002
{
1070
     1
1000
2509496
1002
}
1002
{
1070
     5
1000
2296047
1002
}
  0
LINE
  5
19E
330
19A
100
AcDbEntity
  8
I-FURN
100
AcDbLine
 10
594.6852459016297
 20
-630.7147540983623
 30
0.0
 11
594.6852459016297
 21
269.2852459016436
 31
0.0
1001
REVIT
1002
{
1070
     1
1000
2509496
1002
}
1002
{
1070
     5
1000
2296047
1002
}
  0
LINE
  5
19F
330
19A
100
AcDbEntity
  8
I-FURN
100
AcDbLine
 10
-1005.314754098368
 20
-630.7147540983623
 30
0.0
 11
-1005.314754098366
 21
269.2852459016374
 31
0.0
1001
REVIT
1002
{
1070
     1
1000
2509496
1002
}
1002
{
1070
     5
1000
2296047
1002
}
  0
LINE
  5
1A0
330
19A
100
AcDbEntity
  8
I-FURN
100
AcDbLine
 10
-905.3147540983662
 20
269.2852459016372
 30
0.0
 11
-905.3147540983678
 21
-630.7147540983625
 31
0.0
1001
REVIT
1002
{
1070
     1
1000
2509496
1002
}
1002
{
1070
     5
1000
2296047
1002
}
  0
LINE
  5
1A1
330
19A
100
AcDbEntity
  8
I-FURN
100
AcDbLine
 10
-1005.314754098368
 20
-630.7147540983623
 30
0.0
 11
-905.3147540983678
 21
-630.7147540983625
 31
0.0
1001
REVIT
1002
{
1070
     1
1000
2509496
1002
}
1002
{
1070
     5
1000
2296047
1002
}
  0
LINE
  5
1A2
330
19A
100
AcDbEntity
  8
I-FURN
100
AcDbLine
 10
-905.3147540983662
 20
269.2852459016372
 30
0.0
 11
-1005.314754098366
 21
269.2852459016374
 31
0.0
1001
REVIT
1002
{
1070
     1
1000
2509496
1002
}
1002
{
1070
     5
1000
2296047
1002
}
  0
LINE
  5
1A3
330
19A
100
AcDbEntity
  8
I-FURN
100
AcDbLine
 10
694.6852459016327
 20
269.2852459016374
 30
0.0
 11
694.6852459016313
 21
-630.7147540983623
 31
0.0
1001
REVIT
1002
{
1070
     1
1000
2509496
1002
}
1002
{
1070
     5
1000
2296047
1002
}
  0
LINE
  5
1A4
330
19A
100
AcDbEntity
  8
I-FURN
100
AcDbLine
 10
594.6852459016313
 20
-630.7147540983622
 30
0.0
 11
594.6852459016327
 21
269.2852459016375
 31
0.0
1001
REVIT
1002
{
1070
     1
1000
2509496
1002
}
1002
{
1070
     5
1000
2296047
1002
}
  0
LINE
  5
1A5
330
19A
100
AcDbEntity
  8
I-FURN
100
AcDbLine
 10
594.6852459016313
 20
-630.7147540983622
 30
0.0
 11
694.6852459016313
 21
-630.7147540983623
 31
0.0
1001
REVIT
1002
{
1070
     1
1000
2509496
1002
}
1002
{
1070
     5
1000
2296047
1002
}
  0
LINE
  5
1A6
330
19A
100
AcDbEntity
  8
I-FURN
100
AcDbLine
 10
694.6852459016327
 20
269.2852459016374
 30
0.0
 11
594.6852459016327
 21
269.2852459016375
 31
0.0
1001
REVIT
1002
{
1070
     1
1000
2509496
1002
}
1002
{
1070
     5
1000
2296047
1002
}
  0
ENDBLK
  5
1A8
330
19A
100
AcDbEntity
  8
0
100
AcDbBlockEnd
  0
BLOCK
  5
1BC
330
1AA
100
AcDbEntity
  8
0
100
AcDbBlockBegin
  2
Stuhl-04 - Typ1-2296858-Ebene 0
 70
     0
 10
0.0
 20
0.0
 30
0.0
  3
Stuhl-04 - Typ1-2296858-Ebene 0
  1

  0
LINE
  5
1AB
330
1AA
100
AcDbEntity
  8
I-FURN
100
AcDbLine
 10
-554.6052999909195
 20
17.54121091098335
 30
0.0
 11
-554.6052999909195
 21
-2.239106356256428
 31
0.0
1001
REVIT
1002
{
1070
     1
1000
2509604
1002
}
1002
{
1070
     5
1000
2296858
1002
}
  0
LINE
  5
1AC
330
1AA
100
AcDbEntity
  8
I-FURN
100
AcDbLine
 10
-149.6052999909163
 20
-2.239106356258594
 30
0.0
 11
-149.6052999909163
 21
17.54121091098335
 31
0.0
1001
REVIT
1002
{
1070
     1
1000
2509604
1002
}
1002
{
1070
     5
1000
2296858
1002
}
  0
LINE
  5
1AD
330
1AA
100
AcDbEntity
  8
I-FURN
100
AcDbLine
 10
-149.6052999909125
 20
-105.4506730101292
 30
0.0
 11
-149.6052999909125
 21
-401.4919152267772
 31
0.0
1001
REVIT
1002
{
1070
     1
1000
2509604
1002
}
1002
{
1070
     5
1000
2296858
1002
}
  0
LINE
  5
1AE
330
1AA
100
AcDbEntity
  8
I-FURN
100
AcDbLine
 10
-149.6052999909125
 20
-464.8760743906586
 30
0.0
 11
-149.6052999909125
 21
-401.4919152267768
 31
0.0
1001
REVIT
1002
{
1070
     1
1000
2509604
1002
}
1002
{
1070
     5
1000
2296858
1002
}
  0
LINE
  5
1AF
330
1AA
100
AcDbEntity
  8
I-FURN
100
AcDbLine
 10
-149.6052999909125
 20
-2.23910635625054
 30
0.0
 11
-149.6052999909125
 21
-53.09531069066402
 31
0.0
1001
REVIT
1002
{
1070
     1
1000
2509604
1002
}
1002
{
1070
     5
1000
2296858
1002
}
  0
LINE
  5
1B0
330
1AA
100
AcDbEntity
  8
I-FURN
100
AcDbLine
 10
-149.6052999909125
 20
-53.09531069066403
 30
0.0
 11
-149.6052999909125
 21
-105.4506730101288
 31
0.0
1001
REVIT
1002
{
1070
     1
1000
2509604
1002
}
1002
{
1070
     5
1000
2296858
1002
}
  0
LINE
  5
1B1
330
1AA
100
AcDbEntity
  8
I-FURN
100
AcDbLine
 10
-554.6052999909116
 20
-105.4506730101291
 30
0.0
 11
-554.6052999909116
 21
-53.09531069066407
 31
0.0
1001
REVIT
1002
{
1070
     1
1000
2509604
1002
}
1002
{
1070
     5
1000
2296858
1002
}
  0
LINE
  5
1B2
330
1AA
100
AcDbEntity
  8
I-FURN
100
AcDbLine
 10
-554.6052999909116
 20
-53.09531069066402
 30
0.0
 11
-554.6052999909116
 21
-2.239106356250608
 31
0.0
1001
REVIT
1002
{
1070
     1
1000
2509604
1002
}
1002
{
1070
     5
1000
2296858
1002
}
  0
LINE
  5
1B3
330
1AA
100
AcDbEntity
  8
I-FURN
100
AcDbLine
 10
-554.6052999909116
 20
-401.4919152267772
 30
0.0
 11
-554.6052999909116
 21
-464.8760743906587
 31
0.0
1001
REVIT
1002
{
1070
     1
1000
2509604
1002
}
1002
{
1070
     5
1000
2296858
1002
}
  0
LINE
  5
1B4
330
1AA
100
AcDbEntity
  8
I-FURN
100
AcDbLine
 10
-554.6052999909116
 20
-401.4919152267772
 30
0.0
 11
-554.6052999909116
 21
-105.4506730101292
 31
0.0
1001
REVIT
1002
{
1070
     1
1000
2509604
1002
}
1002
{
1070
     5
1000
2296858
1002
}
  0
LINE
  5
1B5
330
1AA
100
AcDbEntity
  8
I-FURN
100
AcDbLine
 10
-554.6052999909116
 20
-464.8760743906586
 30
0.0
 11
-149.6052999909125
 21
-464.8760743906586
 31
0.0
1001
REVIT
1002
{
1070
     1
1000
2509604
1002
}
1002
{
1070
     5
1000
2296858
1002
}
  0
ELLIPSE
  5
1B6
330
1AA
100
AcDbEntity
  8
I-FURN
100
AcDbEllipse
 10
-534.6052999909113
 20
17.54121091098776
 30
0.0
 11
20.00000000000034
 21
0.0
 31
0.0
210
0.0
220
0.0
230
1.0
 40
0.147809411129613
 41
1.570796326794907
 42
3.141592653589793
1001
REVIT
1002
{
1070
     1
1000
2509604
1002
}
1002
{
1070
     5
1000
2296858
1002
}
  0
ELLIPSE
  5
1B7
330
1AA
100
AcDbEntity
  8
I-FURN
100
AcDbEllipse
 10
-169.6052999909121
 20
17.54121091098776
 30
0.0
 11
20.0000000000004
 21
0.0
 31
0.0
210
0.0
220
0.0
230
1.0
 40
0.1478094111296124
 41
0.0000000000000132
 42
1.570796326794863
1001
REVIT
1002
{
1070
     1
1000
2509604
1002
}
1002
{
1070
     5
1000
2296858
1002
}
  0
LINE
  5
1B8
330
1AA
100
AcDbEntity
  8
I-FURN
100
AcDbLine
 10
-534.6052999909113
 20
20.49739913358005
 30
0.0
 11
-169.6052999909116
 21
20.49739913358005
 31
0.0
1001
REVIT
1002
{
1070
     1
1000
2509604
1002
}
1002
{
1070
     5
1000
2296858
1002
}
  0
ELLIPSE
  5
1B9
330
1AA
100
AcDbEntity
  8
I-FURN
100
AcDbEllipse
 10
-169.6052999909121
 20
-2.239106356250586
 30
0.0
 11
20.0000000000004
 21
0.0
 31
0.0
210
0.0
220
0.0
230
1.0
 40
0.1478094111296125
 41
0.0000000000000003
 42
1.570796326794856
1001
REVIT
1002
{
1070
     1
1000
2509604
1002
}
1002
{
1070
     5
1000
2296858
1002
}
  0
LINE
  5
1BA
330
1AA
100
AcDbEntity
  8
I-FURN
100
AcDbLine
 10
-534.6052999909113
 20
0.7170818663416942
 30
0.0
 11
-169.6052999909116
 21
0.7170818663416942
 31
0.0
1001
REVIT
1002
{
1070
     1
1000
2509604
1002
}
1002
{
1070
     5
1000
2296858
1002
}
  0
ELLIPSE
  5
1BB
330
1AA
100
AcDbEntity
  8
I-FURN
100
AcDbEllipse
 10
-534.6052999909113
 20
-2.239106356250591
 30
0.0
 11
-20.00000000000034
 21
0.0000000000000012
 31
0.0
210
0.0
220
0.0
230
1.0
 40
0.1478094111296129
 41
4.71238898038469
 42
6.283185307179588
1001
REVIT
1002
{
1070
     1
1000
2509604
1002
}
1002
{
1070
     5
1000
2296858
1002
}
  0
ENDBLK
  5
1BD
330
1AA
100
AcDbEntity
  8
0
100
AcDbBlockEnd
  0
ENDSEC
  0
SECTION
  2
ENTITIES
  0
HATCH
  5
8E
330
70
100
AcDbEntity
  8
A-WALL-PATT
370
     5
100
AcDbHatch
 10
0.0
 20
0.0
 30
0.0
210
0.0
220
0.0
230
1.0
  2
FP_1
 70
     0
 71
     0
 91
        1
 92
        1
 93
        5
 72
     1
 10
200.0000000000022
 20
200.0000000000325
 11
250.0000000000016
 21
200.0000000000325
 72
     1
 10
250.0000000000016
 20
200.0000000000325
 11
250.0000000000103
 21
5800.000000000007
 72
     1
 10
250.0000000000103
 20
5800.000000000007
 11
200.0000000000108
 21
5800.000000000015
 72
     1
 10
200.0000000000108
 20
5800.000000000015
 11
200.0000000000108
 21
5372.954127511979
 72
     1
 10
200.0000000000108
 20
5372.954127511979
 11
200.0000000000022
 21
200.0000000000327
 97
        0
 75
     0
 76
     2
 52
0.0
 41
1.0
 77
     0
 78
     2
 53
45.0
 43
0.0
 44
0.0
 45
-35.92102448427662
 46
35.92102448427662
 79
     0
 53
135.0
 43
0.0
 44
0.0
 45
-35.92102448427662
 46
-35.92102448427661
 79
     0
 98
        1
 10
0.0
 20
0.0
1001
REVIT
1002
{
1070
     1
1000
2509100
1002
}
1002
{
1070
     5
1000
712271
1002
}
1002
{
1070
     2
1000
-2000011
1002
}
1002
{
1070
     3
1000
-2000588
1002
}
  0
HATCH
  5
94
330
70
100
AcDbEntity
  8
A-WALL-PATT
370
     5
100
AcDbHatch
 10
0.0
 20
0.0
 30
0.0
210
0.0
220
0.0
230
1.0
  2
FP_1
 70
     0
 71
     0
 91
        1
 92
        1
 93
        5
 72
     1
 10
0.0
 20
0.0000000000259888
 11
50.00000000000163
 21
0.0000000000259888
 72
     1
 10
50.00000000000163
 20
0.0000000000259888
 11
50.00000000001246
 21
6000.000000000005
 72
     1
 10
50.00000000001246
 20
6000.000000000005
 11
0.0000000000108287
 21
6000.000000000005
 72
     1
 10
0.0000000000108287
 20
6000.000000000005
 11
0.0000000000086629
 21
5372.954127511979
 72
     1
 10
0.0000000000086629
 20
5372.954127511979
 11
0.0
 21
0.0000000000263753
 97
        0
 75
     0
 76
     2
 52
0.0
 41
1.0
 77
     0
 78
     2
 53
45.0
 43
0.0
 44
0.0
 45
-35.92102448427662
 46
35.92102448427662
 79
     0
 53
135.0
 43
0.0
 44
0.0
 45
-35.92102448427662
 46
-35.92102448427661
 79
     0
 98
        1
 10
0.0
 20
0.0
1001
REVIT
1002
{
1070
     1
1000
2509100
1002
}
1002
{
1070
     5
1000
712271
1002
}
1002
{
1070
     2
1000
-2000011
1002
}
1002
{
1070
     3
1000
-2000588
1002
}
  0
HATCH
  5
9A
330
70
100
AcDbEntity
  8
A-WALL-PATT
370
     5
100
AcDbHatch
 10
0.0
 20
0.0
 30
0.0
210
0.0
220
0.0
230
1.0
  2
FP_2
 70
     0
 71
     0
 91
        1
 92
        1
 93
        5
 72
     1
 10
50.00000000000163
 20
50.00000000003194
 11
200.0000000000022
 21
50.00000000003194
 72
     1
 10
200.0000000000022
 20
50.00000000003194
 11
200.0000000000108
 21
5950.000000000007
 72
     1
 10
200.0000000000108
 20
5950.000000000007
 11
50.00000000001029
 21
5950.000000000007
 72
     1
 10
50.00000000001029
 20
5950.000000000007
 11
50.00000000001029
 21
5372.954127511979
 72
     1
 10
50.00000000001029
 20
5372.954127511979
 11
50.00000000000163
 21
50.00000000003183
 97
        0
 75
     0
 76
     2
 52
0.0
 41
1.0
 77
     0
 78
     2
 53
45.0
 43
-17.961
 44
-17.961
 45
-71.84204896855323
 46
71.84204896855323
 79
     2
 49
50.8
 49
-50.8
 53
45.0
 43
71.842
 44
0.0
 45
-71.84204896855323
 46
71.84204896855323
 79
     0
 98
        1
 10
0.0
 20
0.0
1001
REVIT
1002
{
1070
     1
1000
2509100
1002
}
1002
{
1070
     5
1000
712271
1002
}
1002
{
1070
     2
1000
-2000011
1002
}
1002
{
1070
     3
1000
-2000588
1002
}
  0
LINE
  5
9C
330
70
100
AcDbEntity
  8
A-WALL
 62
     7
100
AcDbLine
 10
250.0000000000004
 20
250.000000000025
 30
0.0
 11
250.0000000000093
 21
5750.0
 31
0.0
1001
REVIT
1002
{
1070
     1
1000
2509100
1002
}
1002
{
1070
     5
1000
712271
1002
}
1002
{
1070
     2
1000
-2000011
1002
}
1002
{
1070
     3
1000
-2000581
1002
}
  0
LINE
  5
A0
330
70
100
AcDbEntity
  8
A-WALL
 62
     7
100
AcDbLine
 10
0.0000000000097092
 20
6000.0
 30
0.0
 11
0.0
 21
0.0000000000259888
 31
0.0
1001
REVIT
1002
{
1070
     1
1000
2509100
1002
}
1002
{
1070
     5
1000
712271
1002
}
1002
{
1070
     2
1000
-2000011
1002
}
1002
{
1070
     3
1000
-2000581
1002
}
  0
LINE
  5
A4
330
70
100
AcDbEntity
  8
A-WALL
370
     9
100
AcDbLine
 10
200.0000000000094
 20
5800.0
 30
0.0
 11
200.0000000000003
 21
200.0000000000249
 31
0.0
1001
REVIT
1002
{
1070
     1
1000
2509100
1002
}
1002
{
1070
     5
1000
712271
1002
}
1002
{
1070
     2
1000
-2000011
1002
}
1002
{
1070
     3
1000
-2000586
1002
}
  0
LINE
  5
A5
330
70
100
AcDbEntity
  8
A-WALL
370
     9
100
AcDbLine
 10
50.00000000000964
 20
5950.0
 30
0.0
 11
50.00000000000008
 21
50.00000000002545
 31
0.0
1001
REVIT
1002
{
1070
     1
1000
2509100
1002
}
1002
{
1070
     5
1000
712271
1002
}
1002
{
1070
     2
1000
-2000011
1002
}
1002
{
1070
     3
1000
-2000586
1002
}
  0
HATCH
  5
AB
330
70
100
AcDbEntity
  8
A-WALL-PATT
370
     5
100
AcDbHatch
 10
0.0
 20
0.0
 30
0.0
210
0.0
220
0.0
230
1.0
  2
FP_1
 70
     0
 71
     0
 91
        1
 92
        1
 93
        5
 72
     1
 10
7750.000000000018
 20
5750.00000000001
 11
7800.000000000015
 21
5750.00000000001
 72
     1
 10
7800.000000000015
 20
5750.00000000001
 11
7800.000000000015
 21
5800.000000000007
 72
     1
 10
7800.000000000015
 20
5800.000000000007
 11
250.00000000001
 21
5800.000000000007
 72
     1
 10
250.0000000000103
 20
5800.000000000007
 11
250.0000000000103
 21
5750.00000000001
 72
     1
 10
250.0000000000103
 20
5750.00000000001
 11
7750.000000000018
 21
5750.00000000001
 97
        0
 75
     0
 76
     2
 52
0.0
 41
1.0
 77
     0
 78
     2
 53
45.0
 43
0.0
 44
0.0
 45
-35.92102448427662
 46
35.92102448427662
 79
     0
 53
135.0
 43
0.0
 44
0.0
 45
-35.92102448427662
 46
-35.92102448427661
 79
     0
 98
        1
 10
0.0
 20
0.0
1001
REVIT
1002
{
1070
     1
1000
2509127
1002
}
1002
{
1070
     5
1000
712271
1002
}
1002
{
1070
     2
1000
-2000011
1002
}
1002
{
1070
     3
1000
-2000588
1002
}
  0
HATCH
  5
B2
330
70
100
AcDbEntity
  8
A-WALL-PATT
370
     5
100
AcDbHatch
 10
0.0
 20
0.0
 30
0.0
210
0.0
220
0.0
230
1.0
  2
FP_1
 70
     0
 71
     0
 91
        1
 92
        1
 93
        6
 72
     1
 10
7950.000000000021
 20
5950.000000000007
 11
8000.000000000019
 21
5950.000000000007
 72
     1
 10
8000.000000000019
 20
5950.000000000007
 11
8000.000000000019
 21
6000.000000000005
 72
     1
 10
8000.000000000019
 20
6000.000000000005
 11
50.00000000001273
 21
6000.000000000005
 72
     1
 10
50.00000000001246
 20
6000.000000000005
 11
50.00000000001029
 21
5950.000000000007
 72
     1
 10
50.00000000001029
 20
5950.000000000007
 11
250.0000000000103
 21
5950.000000000007
 72
     1
 10
250.0000000000103
 20
5950.000000000007
 11
7950.000000000021
 21
5950.000000000007
 97
        0
 75
     0
 76
     2
 52
0.0
 41
1.0
 77
     0
 78
     2
 53
45.0
 43
0.0
 44
0.0
 45
-35.92102448427662
 46
35.92102448427662
 79
     0
 53
135.0
 43
0.0
 44
0.0
 45
-35.92102448427662
 46
-35.92102448427661
 79
     0
 98
        1
 10
0.0
 20
0.0
1001
REVIT
1002
{
1070
     1
1000
2509127
1002
}
1002
{
1070
     5
1000
712271
1002
}
1002
{
1070
     2
1000
-2000011
1002
}
1002
{
1070
     3
1000
-2000588
1002
}
  0
HATCH
  5
B8
330
70
100
AcDbEntity
  8
A-WALL-PATT
370
     5
100
AcDbHatch
 10
0.0
 20
0.0
 30
0.0
210
0.0
220
0.0
230
1.0
  2
FP_2
 70
     0
 71
     0
 91
        1
 92
        1
 93
        5
 72
     1
 10
7950.000000000021
 20
5800.000000000007
 11
7950.000000000021
 21
5950.000000000007
 72
     1
 10
7950.000000000021
 20
5950.000000000007
 11
200.0000000000109
 21
5950.000000000007
 72
     1
 10
200.0000000000108
 20
5950.000000000007
 11
200.0000000000108
 21
5800.000000000015
 72
     1
 10
200.0000000000108
 20
5800.000000000015
 11
7800.000000000015
 21
5800.000000000007
 72
     1
 10
7800.000000000015
 20
5800.000000000007
 11
7950.000000000021
 21
5800.000000000007
 97
        0
 75
     0
 76
     2
 52
0.0
 41
1.0
 77
     0
 78
     2
 53
45.0
 43
-17.961
 44
-17.961
 45
-71.84204896855323
 46
71.84204896855323
 79
     2
 49
50.8
 49
-50.8
 53
45.0
 43
71.842
 44
0.0
 45
-71.84204896855323
 46
71.84204896855323
 79
     0
 98
        1
 10
0.0
 20
0.0
1001
REVIT
1002
{
1070
     1
1000
2509127
1002
}
1002
{
1070
     5
1000
712271
1002
}
1002
{
1070
     2
1000
-2000011
1002
}
1002
{
1070
     3
1000
-2000588
1002
}
  0
LINE
  5
B9
330
70
100
AcDbEntity
  8
A-WALL
 62
     7
100
AcDbLine
 10
250.0000000000093
 20
5750.0
 30
0.0
 11
7750.000000000007
 21
5750.0
 31
0.0
1001
REVIT
1002
{
1070
     1
1000
2509127
1002
}
1002
{
1070
     5
1000
712271
1002
}
1002
{
1070
     2
1000
-2000011
1002
}
1002
{
1070
     3
1000
-2000581
1002
}
  0
LINE
  5
BD
330
70
100
AcDbEntity
  8
A-WALL
 62
     7
100
AcDbLine
 10
8000.00000000001
 20
6000.0
 30
0.0
 11
0.000000000009712
 21
6000.0
 31
0.0
1001
REVIT
1002
{
1070
     1
1000
2509127
1002
}
1002
{
1070
     5
1000
712271
1002
}
1002
{
1070
     2
1000
-2000011
1002
}
1002
{
1070
     3
1000
-2000581
1002
}
  0
LINE
  5
BE
330
70
100
AcDbEntity
  8
A-WALL
370
     9
100
AcDbLine
 10
7800.00000000001
 20
5799.999999999999
 30
0.0
 11
200.0000000000094
 21
5800.0
 31
0.0
1001
REVIT
1002
{
1070
     1
1000
2509127
1002
}
1002
{
1070
     5
1000
712271
1002
}
1002
{
1070
     2
1000
-2000011
1002
}
1002
{
1070
     3
1000
-2000586
1002
}
  0
LINE
  5
C1
330
70
100
AcDbEntity
  8
A-WALL
370
     9
100
AcDbLine
 10
7950.000000000009
 20
5950.0
 30
0.0
 11
50.00000000000964
 21
5950.0
 31
0.0
1001
REVIT
1002
{
1070
     1
1000
2509127
1002
}
1002
{
1070
     5
1000
712271
1002
}
1002
{
1070
     2
1000
-2000011
1002
}
1002
{
1070
     3
1000
-2000586
1002
}
  0
HATCH
  5
CC
330
70
100
AcDbEntity
  8
A-WALL-PATT
370
     5
100
AcDbHatch
 10
0.0
 20
0.0
 30
0.0
210
0.0
220
0.0
230
1.0
  2
FP_1
 70
     0
 71
     0
 91
        2
 92
        1
 93
        5
 72
     1
 10
7750.000000000023
 20
200.0000000000065
 11
7800.000000000015
 21
200.0000000000065
 72
     1
 10
7800.000000000015
 20
200.0000000000065
 11
7800.000000000015
 21
3615.00000000001
 72
     1
 10
7800.000000000015
 20
3615.00000000001
 11
7750.000000000023
 21
3615.00000000001
 72
     1
 10
7750.000000000023
 20
3615.00000000001
 11
7750.000000000023
 21
250.0000000000036
 72
     1
 10
7750.000000000023
 20
250.0000000000038
 11
7750.000000000023
 21
200.0000000000065
 97
        0
 92
        1
 93
        4
 72
     1
 10
7800.000000000015
 20
4750.000000000012
 11
7800.000000000015
 21
5750.00000000001
 72
     1
 10
7800.000000000015
 20
5750.00000000001
 11
7750.000000000023
 21
5750.00000000001
 72
     1
 10
7750.000000000023
 20
5750.00000000001
 11
7750.000000000023
 21
4750.000000000012
 72
     1
 10
7750.000000000023
 20
4750.000000000012
 11
7800.000000000015
 21
4750.000000000012
 97
        0
 75
     0
 76
     2
 52
0.0
 41
1.0
 77
     0
 78
     2
 53
45.0
 43
0.0
 44
0.0
 45
-35.92102448427662
 46
35.92102448427662
 79
     0
 53
135.0
 43
0.0
 44
0.0
 45
-35.92102448427662
 46
-35.92102448427661
 79
     0
 98
        1
 10
0.0
 20
0.0
1001
REVIT
1002
{
1070
     1
1000
2509175
1002
}
1002
{
1070
     5
1000
712271
1002
}
1002
{
1070
     2
1000
-2000011
1002
}
1002
{
1070
     3
1000
-2000588
1002
}
  0
HATCH
  5
D6
330
70
100
AcDbEntity
  8
A-WALL-PATT
370
     5
100
AcDbHatch
 10
0.0
 20
0.0
 30
0.0
210
0.0
220
0.0
230
1.0
  2
FP_1
 70
     0
 71
     0
 91
        2
 92
        1
 93
        5
 72
     1
 10
7950.000000000021
 20
0.0
 11
8000.000000000019
 21
0.0
 72
     1
 10
8000.000000000019
 20
0.0
 11
8000.000000000019
 21
3644.999999999995
 72
     1
 10
8000.000000000019
 20
3644.999999999995
 11
7950.000000000021
 21
3645.000000000003
 72
     1
 10
7950.000000000021
 20
3645.000000000003
 11
7950.000000000021
 21
50.00000000000591
 72
     1
 10
7950.000000000021
 20
50.00000000000596
 11
7950.000000000021
 21
0.0
 97
        0
 92
        1
 93
        4
 72
     1
 10
8000.000000000019
 20
4720.000000000001
 11
8000.000000000019
 21
5950.000000000007
 72
     1
 10
8000.000000000019
 20
5950.000000000007
 11
7950.000000000021
 21
5950.000000000007
 72
     1
 10
7950.000000000021
 20
5950.000000000007
 11
7950.000000000021
 21
4720.000000000001
 72
     1
 10
7950.000000000021
 20
4720.000000000001
 11
8000.000000000019
 21
4720.000000000001
 97
        0
 75
     0
 76
     2
 52
0.0
 41
1.0
 77
     0
 78
     2
 53
45.0
 43
0.0
 44
0.0
 45
-35.92102448427662
 46
35.92102448427662
 79
     0
 53
135.0
 43
0.0
 44
0.0
 45
-35.92102448427662
 46
-35.92102448427661
 79
     0
 98
        1
 10
0.0
 20
0.0
1001
REVIT
1002
{
1070
     1
1000
2509175
1002
}
1002
{
1070
     5
1000
712271
1002
}
1002
{
1070
     2
1000
-2000011
1002
}
1002
{
1070
     3
1000
-2000588
1002
}
  0
HATCH
  5
E4
330
70
100
AcDbEntity
  8
A-WALL-PATT
370
     5
100
AcDbHatch
 10
0.0
 20
0.0
 30
0.0
210
0.0
220
0.0
230
1.0
  2
FP_2
 70
     0
 71
     0
 91
        2
 92
        1
 93
        6
 72
     1
 10
7950.000000000021
 20
50.00000000000596
 11
7950.000000000021
 21
3645.000000000003
 72
     1
 10
7950.000000000021
 20
3645.000000000003
 11
7840.000000000006
 21
3645.000000000012
 72
     1
 10
7840.000000000006
 20
3645.000000000012
 11
7840.000000000006
 21
3615.00000000001
 72
     1
 10
7840.000000000006
 20
3615.00000000001
 11
7800.000000000015
 21
3615.00000000001
 72
     1
 10
7800.000000000015
 20
3615.00000000001
 11
7800.000000000015
 21
50.00000000000591
 72
     1
 10
7800.000000000015
 20
50.00000000000596
 11
7950.000000000021
 21
50.00000000000596
 97
        0
 92
        1
 93
        7
 72
     1
 10
7950.000000000021
 20
4720.000000000001
 11
7950.000000000021
 21
5800.000000000007
 72
     1
 10
7950.000000000021
 20
5800.000000000007
 11
7800.000000000015
 21
5800.000000000007
 72
     1
 10
7800.000000000015
 20
5800.000000000007
 11
7800.000000000015
 21
4750.000000000012
 72
     1
 10
7800.000000000015
 20
4750.000000000012
 11
7840.000000000006
 21
4750.000000000012
 72
     1
 10
7840.000000000006
 20
4750.000000000012
 11
7840.000000000006
 21
4720.00000000001
 72
     1
 10
7840.000000000006
 20
4720.00000000001
 11
7865.835550123621
 21
4720.00000000001
 72
     1
 10
7865.835550123621
 20
4720.00000000001
 11
7950.000000000021
 21
4720.000000000001
 97
        0
 75
     0
 76
     2
 52
0.0
 41
1.0
 77
     0
 78
     2
 53
45.0
 43
-17.961
 44
-17.961
 45
-71.84204896855323
 46
71.84204896855323
 79
     2
 49
50.8
 49
-50.8
 53
45.0
 43
71.842
 44
0.0
 45
-71.84204896855323
 46
71.84204896855323
 79
     0
 98
        1
 10
0.0
 20
0.0
1001
REVIT
1002
{
1070
     1
1000
2509175
1002
}
1002
{
1070
     5
1000
712271
1002
}
1002
{
1070
     2
1000
-2000011
1002
}
1002
{
1070
     3
1000
-2000588
1002
}
  0
LINE
  5
E5
330
70
100
AcDbEntity
  8
A-WALL
 62
     7
100
AcDbLine
 10
7750.00000000001
 20
5750.0
 30
0.0
 11
7750.00000000001
 21
4750.0
 31
0.0
1001
REVIT
1002
{
1070
     1
1000
2509175
1002
}
1002
{
1070
     5
1000
712271
1002
}
1002
{
1070
     2
1000
-2000011
1002
}
1002
{
1070
     3
1000
-2000581
1002
}
  0
LINE
  5
E6
330
70
100
AcDbEntity
  8
A-WALL
 62
     7
100
AcDbLine
 10
7750.00000000001
 20
4750.0
 30
0.0
 11
7839.999999999996
 21
4750.0
 31
0.0
1001
REVIT
1002
{
1070
     1
1000
2509175
1002
}
1002
{
1070
     5
1000
712271
1002
}
1002
{
1070
     2
1000
-2000011
1002
}
1002
{
1070
     3
1000
-2000581
1002
}
  0
LINE
  5
E8
330
70
100
AcDbEntity
  8
A-WALL
 62
     7
100
AcDbLine
 10
7839.999999999996
 20
4750.0
 30
0.0
 11
7839.999999999996
 21
4719.999999999998
 31
0.0
1001
REVIT
1002
{
1070
     1
1000
2509175
1002
}
1002
{
1070
     5
1000
712271
1002
}
1002
{
1070
     2
1000
-2000011
1002
}
1002
{
1070
     3
1000
-2000581
1002
}
  0
LINE
  5
E9
330
70
100
AcDbEntity
  8
A-WALL
 62
     7
100
AcDbLine
 10
7839.999999999996
 20
4719.999999999998
 30
0.0
 11
8000.00000000001
 21
4719.999999999992
 31
0.0
1001
REVIT
1002
{
1070
     1
1000
2509175
1002
}
1002
{
1070
     5
1000
712271
1002
}
1002
{
1070
     2
1000
-2000011
1002
}
1002
{
1070
     3
1000
-2000581
1002
}
  0
LINE
  5
EB
330
70
100
AcDbEntity
  8
A-WALL
 62
     7
100
AcDbLine
 10
8000.00000000001
 20
4719.999999999992
 30
0.0
 11
8000.00000000001
 21
6000.0
 31
0.0
1001
REVIT
1002
{
1070
     1
1000
2509175
1002
}
1002
{
1070
     5
1000
712271
1002
}
1002
{
1070
     2
1000
-2000011
1002
}
1002
{
1070
     3
1000
-2000581
1002
}
  0
LINE
  5
EC
330
70
100
AcDbEntity
  8
A-WALL
 62
     7
100
AcDbLine
 10
7750.00000000001
 20
3615.000000000001
 30
0.0
 11
7750.00000000001
 21
250.0000000000006
 31
0.0
1001
REVIT
1002
{
1070
     1
1000
2509175
1002
}
1002
{
1070
     5
1000
712271
1002
}
1002
{
1070
     2
1000
-2000011
1002
}
1002
{
1070
     3
1000
-2000581
1002
}
  0
LINE
  5
F0
330
70
100
AcDbEntity
  8
A-WALL
 62
     7
100
AcDbLine
 10
8000.00000000001
 20
0.0
 30
0.0
 11
8000.00000000001
 21
3644.999999999991
 31
0.0
1001
REVIT
1002
{
1070
     1
1000
2509175
1002
}
1002
{
1070
     5
1000
712271
1002
}
1002
{
1070
     2
1000
-2000011
1002
}
1002
{
1070
     3
1000
-2000581
1002
}
  0
LINE
  5
F2
330
70
100
AcDbEntity
  8
A-WALL
 62
     7
100
AcDbLine
 10
8000.00000000001
 20
3644.999999999991
 30
0.0
 11
7839.999999999996
 21
3645.000000000004
 31
0.0
1001
REVIT
1002
{
1070
     1
1000
2509175
1002
}
1002
{
1070
     5
1000
712271
1002
}
1002
{
1070
     2
1000
-2000011
1002
}
1002
{
1070
     3
1000
-2000581
1002
}
  0
LINE
  5
F3
330
70
100
AcDbEntity
  8
A-WALL
 62
     7
100
AcDbLine
 10
7839.999999999996
 20
3645.000000000004
 30
0.0
 11
7839.999999999996
 21
3615.000000000001
 31
0.0
1001
REVIT
1002
{
1070
     1
1000
2509175
1002
}
1002
{
1070
     5
1000
712271
1002
}
1002
{
1070
     2
1000
-2000011
1002
}
1002
{
1070
     3
1000
-2000581
1002
}
  0
LINE
  5
F5
330
70
100
AcDbEntity
  8
A-WALL
 62
     7
100
AcDbLine
 10
7839.999999999996
 20
3615.000000000001
 30
0.0
 11
7750.00000000001
 21
3615.000000000001
 31
0.0
1001
REVIT
1002
{
1070
     1
1000
2509175
1002
}
1002
{
1070
     5
1000
712271
1002
}
1002
{
1070
     2
1000
-2000011
1002
}
1002
{
1070
     3
1000
-2000581
1002
}
  0
LINE
  5
F6
330
70
100
AcDbEntity
  8
A-WALL
370
     9
100
AcDbLine
 10
7800.00000000001
 20
4750.0
 30
0.0
 11
7800.00000000001
 21
5799.999999999999
 31
0.0
1001
REVIT
1002
{
1070
     1
1000
2509175
1002
}
1002
{
1070
     5
1000
712271
1002
}
1002
{
1070
     2
1000
-2000011
1002
}
1002
{
1070
     3
1000
-2000586
1002
}
  0
LINE
  5
F7
330
70
100
AcDbEntity
  8
A-WALL
370
     9
100
AcDbLine
 10
7800.00000000001
 20
200.0000000000006
 30
0.0
 11
7800.00000000001
 21
3615.000000000001
 31
0.0
1001
REVIT
1002
{
1070
     1
1000
2509175
1002
}
1002
{
1070
     5
1000
712271
1002
}
1002
{
1070
     2
1000
-2000011
1002
}
1002
{
1070
     3
1000
-2000586
1002
}
  0
LINE
  5
FA
330
70
100
AcDbEntity
  8
A-WALL
370
     9
100
AcDbLine
 10
7950.000000000009
 20
50.00000000000015
 30
0.0
 11
7950.000000000009
 21
3644.999999999995
 31
0.0
1001
REVIT
1002
{
1070
     1
1000
2509175
1002
}
1002
{
1070
     5
1000
712271
1002
}
1002
{
1070
     2
1000
-2000011
1002
}
1002
{
1070
     3
1000
-2000586
1002
}
  0
LINE
  5
FB
330
70
100
AcDbEntity
  8
A-WALL
370
     9
100
AcDbLine
 10
7950.000000000009
 20
4719.999999999994
 30
0.0
 11
7950.000000000009
 21
5950.0
 31
0.0
1001
REVIT
1002
{
1070
     1
1000
2509175
1002
}
1002
{
1070
     5
1000
712271
1002
}
1002
{
1070
     2
1000
-2000011
1002
}
1002
{
1070
     3
1000
-2000586
1002
}
  0
LINE
  5
FD
330
70
100
AcDbEntity
  8
L-SITE-WALL
100
AcDbLine
 10
8000.00000000001
 20
4719.999999999994
 30
0.0
 11
8000.00000000001
 21
3644.99999999999
 31
0.0
1001
REVIT
1002
{
1070
     1
1000
2509175
1002
}
1002
{
1070
     5
1000
712271
1002
}
1002
{
1070
     2
1000
-2000011
1002
}
  0
LINE
  5
FE
330
70
100
AcDbEntity
  8
L-SITE-WALL
100
AcDbLine
 10
7839.999999999996
 20
3689.999999999955
 30
0.0
 11
7839.999999999996
 21
3693.999999999984
 31
0.0
1001
REVIT
1002
{
1070
     1
1000
2509175
1002
}
1002
{
1070
     5
1000
712271
1002
}
1002
{
1070
     2
1000
-2000011
1002
}
  0
LINE
  5
FF
330
70
100
AcDbEntity
  8
L-SITE-WALL
100
AcDbLine
 10
7839.999999999996
 20
4670.999999999968
 30
0.0
 11
7839.999999999996
 21
4674.999999999954
 31
0.0
1001
REVIT
1002
{
1070
     1
1000
2509175
1002
}
1002
{
1070
     5
1000
712271
1002
}
1002
{
1070
     2
1000
-2000011
1002
}
  0
HATCH
  5
105
330
70
100
AcDbEntity
  8
A-WALL-PATT
370
     5
100
AcDbHatch
 10
0.0
 20
0.0
 30
0.0
210
0.0
220
0.0
230
1.0
  2
FP_1
 70
     0
 71
     0
 91
        1
 92
        1
 93
        5
 72
     1
 10
7750.000000000023
 20
200.0000000000065
 11
7750.000000000023
 21
250.0000000000038
 72
     1
 10
7750.000000000023
 20
250.0000000000038
 11
250.0000000000018
 21
250.0000000000298
 72
     1
 10
250.0000000000016
 20
250.0000000000298
 11
250.0000000000016
 21
200.0000000000325
 72
     1
 10
250.0000000000016
 20
200.0000000000325
 11
6134.90296912253
 21
200.0000000000152
 72
     1
 10
6134.90296912253
 20
200.0000000000152
 11
7750.000000000023
 21
200.0000000000065
 97
        0
 75
     0
 76
     2
 52
0.0
 41
1.0
 77
     0
 78
     2
 53
45.0
 43
0.0
 44
0.0
 45
-35.92102448427662
 46
35.92102448427662
 79
     0
 53
135.0
 43
0.0
 44
0.0
 45
-35.92102448427662
 46
-35.92102448427661
 79
     0
 98
        1
 10
0.0
 20
0.0
1001
REVIT
1002
{
1070
     1
1000
2509223
1002
}
1002
{
1070
     5
1000
712271
1002
}
1002
{
1070
     2
1000
-2000011
1002
}
1002
{
1070
     3
1000
-2000588
1002
}
  0
HATCH
  5
10C
330
70
100
AcDbEntity
  8
A-WALL-PATT
370
     5
100
AcDbHatch
 10
0.0
 20
0.0
 30
0.0
210
0.0
220
0.0
230
1.0
  2
FP_1
 70
     0
 71
     0
 91
        1
 92
        1
 93
        6
 72
     1
 10
7800.000000000015
 20
0.0
 11
7950.000000000021
 21
0.0
 72
     1
 10
7950.000000000021
 20
0.0
 11
7950.000000000021
 21
50.00000000000596
 72
     1
 10
7950.000000000021
 20
50.00000000000596
 11
50.00000000000182
 21
50.00000000003194
 72
     1
 10
50.00000000000163
 20
50.00000000003194
 11
50.00000000000163
 21
0.0000000000259917
 72
     1
 10
50.00000000000163
 20
0.0000000000259888
 11
7750.000000000023
 21
0.0
 72
     1
 10
7750.000000000023
 20
0.0
 11
7800.000000000015
 21
0.0
 97
        0
 75
     0
 76
     2
 52
0.0
 41
1.0
 77
     0
 78
     2
 53
45.0
 43
0.0
 44
0.0
 45
-35.92102448427662
 46
35.92102448427662
 79
     0
 53
135.0
 43
0.0
 44
0.0
 45
-35.92102448427662
 46
-35.92102448427661
 79
     0
 98
        1
 10
0.0
 20
0.0
1001
REVIT
1002
{
1070
     1
1000
2509223
1002
}
1002
{
1070
     5
1000
712271
1002
}
1002
{
1070
     2
1000
-2000011
1002
}
1002
{
1070
     3
1000
-2000588
1002
}
  0
HATCH
  5
113
330
70
100
AcDbEntity
  8
A-WALL-PATT
370
     5
100
AcDbHatch
 10
0.0
 20
0.0
 30
0.0
210
0.0
220
0.0
230
1.0
  2
FP_2
 70
     0
 71
     0
 91
        1
 92
        1
 93
        6
 72
     1
 10
7750.000000000023
 20
50.00000000000596
 11
7800.000000000015
 21
50.00000000000596
 72
     1
 10
7800.000000000015
 20
50.00000000000596
 11
7800.000000000015
 21
200.0000000000065
 72
     1
 10
7800.000000000015
 20
200.0000000000065
 11
200.0000000000018
 21
200.0000000000325
 72
     1
 10
200.0000000000022
 20
200.0000000000325
 11
200.0000000000022
 21
50.00000000003194
 72
     1
 10
200.0000000000022
 20
50.00000000003194
 11
6134.90296912253
 21
50.00000000001462
 72
     1
 10
6134.90296912253
 20
50.00000000001462
 11
7750.000000000023
 21
50.00000000000596
 97
        0
 75
     0
 76
     2
 52
0.0
 41
1.0
 77
     0
 78
     2
 53
45.0
 43
-17.961
 44
-17.961
 45
-71.84204896855323
 46
71.84204896855323
 79
     2
 49
50.8
 49
-50.8
 53
45.0
 43
71.842
 44
0.0
 45
-71.84204896855323
 46
71.84204896855323
 79
     0
 98
        1
 10
0.0
 20
0.0
1001
REVIT
1002
{
1070
     1
1000
2509223
1002
}
1002
{
1070
     5
1000
712271
1002
}
1002
{
1070
     2
1000
-2000011
1002
}
1002
{
1070
     3
1000
-2000588
1002
}
  0
LINE
  5
114
330
70
100
AcDbEntity
  8
A-WALL
 62
     7
100
AcDbLine
 10
7750.00000000001
 20
250.0000000000008
 30
0.0
 11
250.0000000000006
 21
250.000000000025
 31
0.0
1001
REVIT
1002
{
1070
     1
1000
2509223
1002
}
1002
{
1070
     5
1000
712271
1002
}
1002
{
1070
     2
1000
-2000011
1002
}
1002
{
1070
     3
1000
-2000581
1002
}
  0
LINE
  5
115
330
70
100
AcDbEntity
  8
A-WALL
 62
     7
100
AcDbLine
 10
0.0
 20
0.0000000000259301
 30
0.0
 11
8000.00000000001
 21
0.0
 31
0.0
1001
REVIT
1002
{
1070
     1
1000
2509223
1002
}
1002
{
1070
     5
1000
712271
1002
}
1002
{
1070
     2
1000
-2000011
1002
}
1002
{
1070
     3
1000
-2000581
1002
}
  0
LINE
  5
116
330
70
100
AcDbEntity
  8
A-WALL
370
     9
100
AcDbLine
 10
200.0000000000003
 20
200.0000000000252
 30
0.0
 11
7800.00000000001
 21
200.0000000000006
 31
0.0
1001
REVIT
1002
{
1070
     1
1000
2509223
1002
}
1002
{
1070
     5
1000
712271
1002
}
1002
{
1070
     2
1000
-2000011
1002
}
1002
{
1070
     3
1000
-2000586
1002
}
  0
LINE
  5
11C
330
70
100
AcDbEntity
  8
A-WALL
370
     9
100
AcDbLine
 10
50.00000000000007
 20
50.00000000002569
 30
0.0
 11
7950.000000000009
 21
50.00000000000039
 31
0.0
1001
REVIT
1002
{
1070
     1
1000
2509223
1002
}
1002
{
1070
     5
1000
712271
1002
}
1002
{
1070
     2
1000
-2000011
1002
}
1002
{
1070
     3
1000
-2000586
1002
}
  0
LINE
  5
11E
330
70
100
AcDbEntity
  8
A-FLOR
100
AcDbLine
 10
7800.00000000001
 20
3674.999999999965
 30
0.0
 11
7800.00000000001
 21
3678.999999999984
 31
0.0
1001
REVIT
1002
{
1070
     1
1000
2509277
1002
}
1002
{
1070
     5
1000
712245
1002
}
1002
{
1070
     2
1000
-2000032
1002
}
  0
LINE
  5
11F
330
70
100
AcDbEntity
  8
A-FLOR
100
AcDbLine
 10
7800.00000000001
 20
4685.999999999974
 30
0.0
 11
7800.00000000001
 21
4689.999999999951
 31
0.0
1001
REVIT
1002
{
1070
     1
1000
2509277
1002
}
1002
{
1070
     5
1000
712245
1002
}
1002
{
1070
     2
1000
-2000032
1002
}
  0
INSERT
  5
199
330
70
100
AcDbEntity
  8
A-DOOR
100
AcDbBlockReference
  2
TU DF 1 - Haustüre - ML - 1135 x 2250-2509477-Ebene 0
 10
7875.00000000001
 20
4182.499999999993
 30
0.0
 50
270.0
1001
REVIT
1002
{
1070
     1
1000
2509294
1002
}
1002
{
1070
     5
1000
2125215
1002
}
1002
{
1070
     2
1000
-2000023
1002
}
  0
INSERT
  5
1A9
330
70
100
AcDbEntity
  8
I-FURN
100
AcDbBlockReference
  2
Tisch-01 - 1700 x 900 x 780-2296047-Ebene 0
 10
3919.285245901646
 20
4255.314754098372
 30
0.0
 50
89.99999999999991
1001
REVIT
1002
{
1070
     1
1000
2509496
1002
}
1002
{
1070
     5
1000
2296047
1002
}
1002
{
1070
     2
1000
-2000080
1002
}
  0
INSERT
  5
1BE
330
70
100
AcDbEntity
  8
I-FURN
100
AcDbBlockReference
  2
Stuhl-04 - Typ1-2296858-Ebene 0
 10
2725.259137938776
 20
4902.10529999093
 30
0.0
 50
89.99999999999952
1001
REVIT
1002
{
1070
     1
1000
2509604
1002
}
1002
{
1070
     5
1000
2296858
1002
}
1002
{
1070
     2
1000
-2000080
1002
}
  0
INSERT
  5
1BF
330
70
100
AcDbEntity
  8
I-FURN
100
AcDbBlockReference
  2
Stuhl-04 - Typ1-2296858-Ebene 0
 10
2725.259137938773
 20
4002.10529999093
 30
0.0
 50
89.99999999999952
1001
REVIT
1002
{
1070
     1
1000
2509675
1002
}
1002
{
1070
     5
1000
2296858
1002
}
1002
{
1070
     2
1000
-2000080
1002
}
  0
ENDSEC
  0
SECTION
  2
OBJECTS
  0
DICTIONARY
  5
C
330
0
100
AcDbDictionary
281
     1
  3
ACAD_CIP_PREVIOUS_PRODUCT_INFO
350
79
  3
ACAD_COLOR
350
63
  3
ACAD_DETAILVIEWSTYLE
350
6A
  3
ACAD_GROUP
350
D
  3
ACAD_IMAGE_VARS
350
7A
  3
ACAD_LAYOUT
350
62
  3
ACAD_MATERIAL
350
10
  3
ACAD_MLEADERSTYLE
350
66
  3
ACAD_MLINESTYLE
350
5F
  3
ACAD_PLOTSETTINGS
350
61
  3
ACAD_PLOTSTYLENAME
350
E
  3
ACAD_SCALELIST
350
42
  3
ACAD_SECTIONVIEWSTYLE
350
68
  3
ACAD_TABLESTYLE
350
64
  3
ACAD_VISUALSTYLE
350
29
  3
ACDB_RECOMPOSE_DATA
350
1CA
  3
AcDbVariableDictionary
350
7B
  3
REVIT_DICTIONARY
350
1C0
  0
DICTIONARY
  5
1C6
330
70
100
AcDbDictionary
280
     1
281
     1
  3
ACAD_SORTENTS
360
1C7
  0
XRECORD
  5
79
102
{ACAD_REACTORS
330
C
102
}
330
C
100
AcDbXrecord
280
     1
300
RVT
300
2024
300
RVT2024
  0
DICTIONARY
  5
63
102
{ACAD_REACTORS
330
C
102
}
330
C
100
AcDbDictionary
281
     1
  0
DICTIONARY
  5
6A
102
{ACAD_REACTORS
330
C
102
}
330
C
100
AcDbDictionary
281
     1
  3
Imperial24
350
6B
  0
DICTIONARY
  5
D
102
{ACAD_REACTORS
330
C
102
}
330
C
100
AcDbDictionary
281
     1
  0
RASTERVARIABLES
  5
7A
102
{ACAD_REACTORS
330
C
102
}
330
C
100
AcDbRasterVariables
 90
        0
 70
     0
 71
     1
 72
     1
  0
DICTIONARY
  5
62
102
{ACAD_REACTORS
330
C
102
}
330
C
100
AcDbDictionary
281
     1
  3
Layout1
350
6F
  3
Layout2
350
77
  3
Model
350
73
  0
DICTIONARY
  5
10
102
{ACAD_REACTORS
330
C
102
}
330
C
100
AcDbDictionary
281
     1
  3
ByBlock
350
19
  3
ByLayer
350
11
  3
Global
350
21
  0
DICTIONARY
  5
66
102
{ACAD_REACTORS
330
C
102
}
330
C
100
AcDbDictionary
281
     1
  3
Standard
350
67
  0
DICTIONARY
  5
5F
102
{ACAD_REACTORS
330
C
102
}
330
C
100
AcDbDictionary
281
     1
  3
Standard
350
60
  0
DICTIONARY
  5
61
102
{ACAD_REACTORS
330
C
102
}
330
C
100
AcDbDictionary
281
     1
  0
ACDBDICTIONARYWDFLT
  5
E
102
{ACAD_REACTORS
330
C
102
}
330
C
100
AcDbDictionary
281
     1
  3
Normal
350
F
100
AcDbDictionaryWithDefault
340
F
  0
DICTIONARY
  5
42
102
{ACAD_REACTORS
330
C
102
}
330
C
100
AcDbDictionary
281
     1
  3
A0
350
43
  3
A1
350
44
  3
A2
350
45
  3
A3
350
46
  3
A4
350
47
  3
A5
350
48
  3
A6
350
49
  3
A7
350
4A
  3
A8
350
4B
  3
A9
350
4C
  3
B0
350
4D
  3
B1
350
4E
  3
B2
350
4F
  3
B3
350
50
  3
B4
350
51
  3
B5
350
52
  3
B6
350
53
  0
DICTIONARY
  5
68
102
{ACAD_REACTORS
330
C
102
}
330
C
100
AcDbDictionary
281
     1
  3
Imperial24
350
69
  0
DICTIONARY
  5
64
102
{ACAD_REACTORS
330
C
102
}
330
C
100
AcDbDictionary
281
     1
  3
Standard
350
65
  0
DICTIONARY
  5
29
102
{ACAD_REACTORS
330
C
102
}
330
C
100
AcDbDictionary
281
     1
  3
2dWireframe
350
2F
  3
Basic
350
2E
  3
Brighten
350
35
  3
ColorChange
350
39
  3
Conceptual
350
32
  3
Dim
350
34
  3
EdgeColorOff
350
41
  3
Facepattern
350
38
  3
Flat
350
2A
  3
FlatWithEdges
350
2B
  3
Gouraud
350
2C
  3
GouraudWithEdges
350
2D
  3
Hidden
350
31
  3
JitterOff
350
3F
  3
Linepattern
350
37
  3
OverhangOff
350
40
  3
Realistic
350
33
  3
Shaded
350
3E
  3
Shaded with edges
350
3D
  3
Shades of Gray
350
3A
  3
Sketchy
350
3B
  3
Thicken
350
36
  3
Wireframe
350
30
  3
X-Ray
350
3C
  0
XRECORD
  5
1CA
102
{ACAD_REACTORS
330
C
102
}
330
C
100
AcDbXrecord
280
     1
 90
        1
330
65
  0
DICTIONARY
  5
7B
102
{ACAD_REACTORS
330
C
102
}
330
C
100
AcDbDictionary
281
     1
  3
CANNOSCALE
350
80
  3
CMLEADERSTYLE
350
7D
  3
CTABLESTYLE
350
7C
  3
CVIEWDETAILSTYLE
350
7E
  3
CVIEWSECTIONSTYLE
350
7F
  0
DICTIONARY
  5
1C0
102
{ACAD_REACTORS
330
C
102
}
330
C
100
AcDbDictionary
281
     1
  3
REVIT_CATEGORY_MAPPING
350
1C4
  3
REVIT_GET_SITE
350
1C1
  3
REVIT_SUB_CATEGORY_MAPPING
350
1C5
  3
REVIT_TYPE_MAPPING
350
1C3
  0
SORTENTSTABLE
  5
1C7
102
{ACAD_REACTORS
330
1C6
102
}
330
1C6
100
AcDbSortentsTable
330
70
  0
ACDBDETAILVIEWSTYLE
  5
6B
102
{ACAD_REACTORS
330
6A
102
}
330
6A
100
AcDbModelDocViewStyle
 70
     0
  3
Imperial24
290
     1
300
Imperial24
 90
        0
100
AcDbDetailViewStyle
 70
     0
 71
     0
 90
        3
 71
     1
340
55
 62
   256
 40
0.24
340
0
 62
   256
 40
0.24
300

 40
0.36
280
     3
 71
     2
340
5D
 90
       25
 62
   256
 71
     3
340
55
 62
   256
 40
0.24
 90
        1
 40
0.75
 90
        1
300
%<\AcVar ViewType \f "%tc1">% %<\AcVar ViewDetailId>%\PSCALE %<\AcVar ViewScale \f "%sn">%
 71
     4
340
5D
 90
       25
 62
   256
340
5D
 90
       25
 62
   256
280
     0
  0
LAYOUT
  5
6F
102
{ACAD_REACTORS
330
62
102
}
330
62
100
AcDbPlotSettings
  1

  2

  4

  6

 40
0.0
 41
0.0
 42
0.0
 43
0.0
 44
0.0
 45
0.0
 46
0.0
 47
0.0
 48
0.0
 49
0.0
140
0.0
141
0.0
142
1.0
143
1.0
 70
   688
 72
     0
 73
     0
 74
     5
  7

 75
    16
147
1.0
 76
     0
 77
     2
 78
   300
148
0.0
149
0.0
100
AcDbLayout
  1
Layout1
 70
     1
 71
     1
 10
0.0
 20
0.0
 11
12.0
 21
9.0
 12
0.0
 22
0.0
 32
0.0
 14
0.0
 24
0.0
 34
0.0
 15
0.0
 25
0.0
 35
0.0
146
0.0
 13
0.0
 23
0.0
 33
0.0
 16
1.0
 26
0.0
 36
0.0
 17
0.0
 27
1.0
 37
0.0
 76
     0
330
6C
  0
LAYOUT
  5
77
102
{ACAD_REACTORS
330
62
102
}
330
62
100
AcDbPlotSettings
  1

  2

  4

  6

 40
0.0
 41
0.0
 42
0.0
 43
0.0
 44
0.0
 45
0.0
 46
0.0
 47
0.0
 48
0.0
 49
0.0
140
0.0
141
0.0
142
1.0
143
1.0
 70
   688
 72
     0
 73
     0
 74
     5
  7

 75
    16
147
1.0
 76
     0
 77
     2
 78
   300
148
0.0
149
0.0
100
AcDbLayout
  1
Layout2
 70
     1
 71
     2
 10
0.0
 20
0.0
 11
12.0
 21
9.0
 12
0.0
 22
0.0
 32
0.0
 14
0.0
 24
0.0
 34
0.0
 15
0.0
 25
0.0
 35
0.0
146
0.0
 13
0.0
 23
0.0
 33
0.0
 16
1.0
 26
0.0
 36
0.0
 17
0.0
 27
1.0
 37
0.0
 76
     0
330
74
  0
LAYOUT
  5
73
102
{ACAD_REACTORS
330
62
102
}
330
62
100
AcDbPlotSettings
  1

  2

  4

  6

 40
0.0
 41
0.0
 42
0.0
 43
0.0
 44
0.0
 45
0.0
 46
0.0
 47
0.0
 48
0.0
 49
0.0
140
0.0
141
0.0
142
1.0
143
1.0
 70
  1712
 72
     0
 73
     0
 74
     0
  7

 75
     0
147
1.0
 76
     0
 77
     2
 78
   300
148
0.0
149
0.0
100
AcDbLayout
  1
Model
 70
     1
 71
     0
 10
0.0
 20
0.0
 11
12.0
 21
9.0
 12
0.0
 22
0.0
 32
0.0
 14
0.0
 24
0.0
 34
0.0
 15
0.0
 25
0.0
 35
0.0
146
0.0
 13
0.0
 23
0.0
 33
0.0
 16
1.0
 26
0.0
 36
0.0
 17
0.0
 27
1.0
 37
0.0
 76
     0
330
70
  0
MATERIAL
  5
19
102
{ACAD_XDICTIONARY
360
1A
102
}
102
{ACAD_REACTORS
330
10
102
}
330
10
100
AcDbMaterial
  1
ByBlock
 72
     0
 43
0.0208333333333333
 43
0.0
 43
0.0
 43
0.0
 43
0.0
 43
0.0208333333333333
 43
0.0
 43
0.0
 43
0.0
 43
0.0
 43
1.0
 43
0.0
 43
0.0
 43
0.0
 43
0.0
 43
1.0
 77
     0
 47
0.0208333333333333
 47
0.0
 47
0.0
 47
0.0
 47
0.0
 47
0.0208333333333333
 47
0.0
 47
0.0
 47
0.0
 47
0.0
 47
1.0
 47
0.0
 47
0.0
 47
0.0
 47
0.0
 47
1.0
171
     0
 49
0.0208333333333333
 49
0.0
 49
0.0
 49
0.0
 49
0.0
 49
0.0208333333333333
 49
0.0
 49
0.0
 49
0.0
 49
0.0
 49
1.0
 49
0.0
 49
0.0
 49
0.0
 49
0.0
 49
1.0
175
     0
142
0.0208333333333333
142
0.0
142
0.0
142
0.0
142
0.0
142
0.0208333333333333
142
0.0
142
0.0
142
0.0
142
0.0
142
1.0
142
0.0
142
0.0
142
0.0
142
0.0
142
1.0
179
     0
144
0.0208333333333333
144
0.0
144
0.0
144
0.0
144
0.0
144
0.0208333333333333
144
0.0
144
0.0
144
0.0
144
0.0
144
1.0
144
0.0
144
0.0
144
0.0
144
0.0
144
1.0
147
0.0208333333333333
147
0.0
147
0.0
147
0.0
147
0.0
147
0.0208333333333333
147
0.0
147
0.0
147
0.0
147
0.0
147
1.0
147
0.0
147
0.0
147
0.0
147
0.0
147
1.0
  0
MATERIAL
  5
11
102
{ACAD_XDICTIONARY
360
12
102
}
102
{ACAD_REACTORS
330
10
102
}
330
10
100
AcDbMaterial
  1
ByLayer
 72
     0
 43
0.0208333333333333
 43
0.0
 43
0.0
 43
0.0
 43
0.0
 43
0.0208333333333333
 43
0.0
 43
0.0
 43
0.0
 43
0.0
 43
1.0
 43
0.0
 43
0.0
 43
0.0
 43
0.0
 43
1.0
 77
     0
 47
0.0208333333333333
 47
0.0
 47
0.0
 47
0.0
 47
0.0
 47
0.0208333333333333
 47
0.0
 47
0.0
 47
0.0
 47
0.0
 47
1.0
 47
0.0
 47
0.0
 47
0.0
 47
0.0
 47
1.0
171
     0
 49
0.0208333333333333
 49
0.0
 49
0.0
 49
0.0
 49
0.0
 49
0.0208333333333333
 49
0.0
 49
0.0
 49
0.0
 49
0.0
 49
1.0
 49
0.0
 49
0.0
 49
0.0
 49
0.0
 49
1.0
175
     0
142
0.0208333333333333
142
0.0
142
0.0
142
0.0
142
0.0
142
0.0208333333333333
142
0.0
142
0.0
142
0.0
142
0.0
142
1.0
142
0.0
142
0.0
142
0.0
142
0.0
142
1.0
179
     0
144
0.0208333333333333
144
0.0
144
0.0
144
0.0
144
0.0
144
0.0208333333333333
144
0.0
144
0.0
144
0.0
144
0.0
144
1.0
144
0.0
144
0.0
144
0.0
144
0.0
144
1.0
147
0.0208333333333333
147
0.0
147
0.0
147
0.0
147
0.0
147
0.0208333333333333
147
0.0
147
0.0
147
0.0
147
0.0
147
1.0
147
0.0
147
0.0
147
0.0
147
0.0
147
1.0
  0
MATERIAL
  5
21
102
{ACAD_XDICTIONARY
360
22
102
}
102
{ACAD_REACTORS
330
10
102
}
330
10
100
AcDbMaterial
  1
Global
 72
     0
 43
0.0208333333333333
 43
0.0
 43
0.0
 43
0.0
 43
0.0
 43
0.0208333333333333
 43
0.0
 43
0.0
 43
0.0
 43
0.0
 43
1.0
 43
0.0
 43
0.0
 43
0.0
 43
0.0
 43
1.0
 77
     0
 47
0.0208333333333333
 47
0.0
 47
0.0
 47
0.0
 47
0.0
 47
0.0208333333333333
 47
0.0
 47
0.0
 47
0.0
 47
0.0
 47
1.0
 47
0.0
 47
0.0
 47
0.0
 47
0.0
 47
1.0
171
     0
 49
0.0208333333333333
 49
0.0
 49
0.0
 49
0.0
 49
0.0
 49
0.0208333333333333
 49
0.0
 49
0.0
 49
0.0
 49
0.0
 49
1.0
 49
0.0
 49
0.0
 49
0.0
 49
0.0
 49
1.0
175
     0
142
0.0208333333333333
142
0.0
142
0.0
142
0.0
142
0.0
142
0.0208333333333333
142
0.0
142
0.0
142
0.0
142
0.0
142
1.0
142
0.0
142
0.0
142
0.0
142
0.0
142
1.0
179
     0
144
0.0208333333333333
144
0.0
144
0.0
144
0.0
144
0.0
144
0.0208333333333333
144
0.0
144
0.0
144
0.0
144
0.0
144
1.0
144
0.0
144
0.0
144
0.0
144
0.0
144
1.0
147
0.0208333333333333
147
0.0
147
0.0
147
0.0
147
0.0
147
0.0208333333333333
147
0.0
147
0.0
147
0.0
147
0.0
147
1.0
147
0.0
147
0.0
147
0.0
147
0.0
147
1.0
  0
MLEADERSTYLE
  5
67
102
{ACAD_REACTORS
330
66
102
}
330
66
100
AcDbMLeaderStyle
179
     2
170
     2
171
     1
172
     0
 90
        2
 40
0.0
 41
0.0
173
     1
 91
-1056964608
340
5B
 92
       -2
290
     1
 42
0.09
291
     1
 43
0.36
  3
Standard
 44
0.18
300

342
55
174
     1
178
     6
175
     1
176
     0
 93
-1056964608
 45
0.18
292
     0
297
     0
 46
0.18
 94
-1056964608
 47
1.0
 49
1.0
140
1.0
293
     1
141
0.0
294
     1
177
     0
142
1.0
295
     1
296
     0
143
0.125
271
     0
272
     9
273
     9
298
     1
  0
MLINESTYLE
  5
60
102
{ACAD_REACTORS
330
5F
102
}
330
5F
100
AcDbMlineStyle
  2
STANDARD
 70
     0
  3

 62
   256
 51
90.0
 52
90.0
 71
     2
 49
0.5
 62
   256
  6
BYLAYER
 49
-0.5
 62
   256
  6
BYLAYER
  0
ACDBPLACEHOLDER
  5
F
102
{ACAD_REACTORS
330
E
102
}
330
E
  0
SCALE
  5
43
102
{ACAD_REACTORS
330
42
102
}
330
42
100
AcDbScale
 70
     0
300
1:1
140
1.0
141
1.0
290
     1
  0
SCALE
  5
44
102
{ACAD_REACTORS
330
42
102
}
330
42
100
AcDbScale
 70
     0
300
1/128" = 1'-0"
140
0.0078125
141
12.0
290
     0
  0
SCALE
  5
45
102
{ACAD_REACTORS
330
42
102
}
330
42
100
AcDbScale
 70
     0
300
1/64" = 1'-0"
140
0.015625
141
12.0
290
     0
  0
SCALE
  5
46
102
{ACAD_REACTORS
330
42
102
}
330
42
100
AcDbScale
 70
     0
300
1/32" = 1'-0"
140
0.03125
141
12.0
290
     0
  0
SCALE
  5
47
102
{ACAD_REACTORS
330
42
102
}
330
42
100
AcDbScale
 70
     0
300
1/16" = 1'-0"
140
0.0625
141
12.0
290
     0
  0
SCALE
  5
48
102
{ACAD_REACTORS
330
42
102
}
330
42
100
AcDbScale
 70
     0
300
3/32" = 1'-0"
140
0.09375
141
12.0
290
     0
  0
SCALE
  5
49
102
{ACAD_REACTORS
330
42
102
}
330
42
100
AcDbScale
 70
     0
300
1/8" = 1'-0"
140
0.125
141
12.0
290
     0
  0
SCALE
  5
4A
102
{ACAD_REACTORS
330
42
102
}
330
42
100
AcDbScale
 70
     0
300
3/16" = 1'-0"
140
0.1875
141
12.0
290
     0
  0
SCALE
  5
4B
102
{ACAD_REACTORS
330
42
102
}
330
42
100
AcDbScale
 70
     0
300
1/4" = 1'-0"
140
0.25
141
12.0
290
     0
  0
SCALE
  5
4C
102
{ACAD_REACTORS
330
42
102
}
330
42
100
AcDbScale
 70
     0
300
3/8" = 1'-0"
140
0.375
141
12.0
290
     0
  0
SCALE
  5
4D
102
{ACAD_REACTORS
330
42
102
}
330
42
100
AcDbScale
 70
     0
300
1/2" = 1'-0"
140
0.5
141
12.0
290
     0
  0
SCALE
  5
4E
102
{ACAD_REACTORS
330
42
102
}
330
42
100
AcDbScale
 70
     0
300
3/4" = 1'-0"
140
0.75
141
12.0
290
     0
  0
SCALE
  5
4F
102
{ACAD_REACTORS
330
42
102
}
330
42
100
AcDbScale
 70
     0
300
1" = 1'-0"
140
1.0
141
12.0
290
     0
  0
SCALE
  5
50
102
{ACAD_REACTORS
330
42
102
}
330
42
100
AcDbScale
 70
     0
300
1-1/2" = 1'-0"
140
1.5
141
12.0
290
     0
  0
SCALE
  5
51
102
{ACAD_REACTORS
330
42
102
}
330
42
100
AcDbScale
 70
     0
300
3" = 1'-0"
140
3.0
141
12.0
290
     0
  0
SCALE
  5
52
102
{ACAD_REACTORS
330
42
102
}
330
42
100
AcDbScale
 70
     0
300
6" = 1'-0"
140
6.0
141
12.0
290
     0
  0
SCALE
  5
53
102
{ACAD_REACTORS
330
42
102
}
330
42
100
AcDbScale
 70
     0
300
1'-0" = 1'-0"
140
12.0
141
12.0
290
     0
  0
ACDBSECTIONVIEWSTYLE
  5
69
102
{ACAD_REACTORS
330
68
102
}
330
68
100
AcDbModelDocViewStyle
 70
     0
  3
Imperial24
290
     1
300
Imperial24
 90
        0
100
AcDbSectionViewStyle
 70
     0
 71
     0
 90
       78
 71
     1
340
55
 62
   256
 40
0.24
340
0
340
0
 62
   256
 40
0.24
300
I, O, Q, S, X, Z
 40
0.48
 90
        3
 40
0.18
 90
        1
 71
     2
340
5D
 90
       25
 62
   256
340
5D
 90
       50
 62
   256
 40
0.24
 40
0.0
 40
0.24
 71
     3
340
55
 62
   256
 40
0.24
 90
        1
 40
0.75
 90
        1
300
%<\AcVar ViewType \f "%tc1">% %<\AcVar ViewSectionStartId>%-%<\AcVar ViewSectionEndId>%\PSCALE %<\AcVar ViewScale \f "%sn">%
 71
     4
 62
   256
 62
   257
300
ANSI31
 40
1.0
 90
        0
290
     0
290
     0
 90
        6
 40
0.0
 40
1.570796326794896
 40
0.2617993877991494
 40
1.308996938995747
 40
-0.2617993877991494
 40
1.832595714594046
  0
TABLESTYLE
  5
65
102
{ACAD_XDICTIONARY
360
1C8
102
}
102
{ACAD_REACTORS
330
64
102
}
330
64
100
AcDbTableStyle
280
     0
  3
Standard
 70
     0
 71
     0
 40
0.06
 41
0.06
280
     0
281
     0
  7
Standard
140
0.18
170
     2
 62
     0
 63
     7
283
     0
 90
      512
 91
        0
  1

274
    -2
284
     1
 64
     0
275
    -2
285
     1
 65
     0
276
    -2
286
     1
 66
     0
277
    -2
287
     1
 67
     0
278
    -2
288
     1
 68
     0
279
    -2
289
     1
 69
     0
  7
Standard
140
0.25
170
     5
 62
     0
 63
     7
283
     0
 90
      512
 91
        0
  1

274
    -2
284
     1
 64
     0
275
    -2
285
     1
 65
     0
276
    -2
286
     1
 66
     0
277
    -2
287
     1
 67
     0
278
    -2
288
     1
 68
     0
279
    -2
289
     1
 69
     0
  7
Standard
140
0.18
170
     5
 62
     0
 63
     7
283
     0
 90
      512
 91
        0
  1

274
    -2
284
     1
 64
     0
275
    -2
285
     1
 65
     0
276
    -2
286
     1
 66
     0
277
    -2
287
     1
 67
     0
278
    -2
288
     1
 68
     0
279
    -2
289
     1
 69
     0
  0
VISUALSTYLE
  5
2F
102
{ACAD_REACTORS
330
29
102
}
330
29
100
AcDbVisualStyle
  2
2dWireframe
 70
     4
177
     3
291
     0
 70
    58
 90
        0
176
     1
 90
        2
176
     1
 90
        0
176
     1
 90
        0
176
     1
 40
0.6
176
     1
 40
30.0
176
     1
 62
     7
420
 16777215
176
     1
 90
        1
176
     1
 90
        4
176
     1
 62
     7
176
     1
 62
   257
176
     1
 90
        1
176
     1
 90
        1
176
     1
 40
1.0
176
     1
 90
        0
176
     1
 62
   257
176
     1
 40
1.0
176
     1
 90
        1
176
     1
 90
        6
176
     1
 90
        2
176
     1
 62
     7
176
     1
 90
        5
176
     1
 90
        0
176
     1
 90
        0
176
     1
290
     0
176
     1
 90
        1
176
     1
 40
0.0
176
     1
 90
        0
176
     1
290
     1
176
     1
290
     1
176
     1
290
     0
176
     1
290
     0
176
     1
290
     0
176
     1
290
     0
176
     1
290
     0
176
     1
290
     0
176
     1
290
     0
176
     1
 90
       50
176
     1
 40
0.0
176
     1
 40
1.0
176
     1
 90
        0
176
     1
 62
    18
420
        0
176
     1
 90
       50
176
     1
 90
        3
176
     1
 62
     5
420
      255
176
     1
290
     0
176
     1
 90
       50
176
     1
 90
       50
176
     1
 90
       50
176
     1
290
     0
176
     1
 90
       50
176
     1
 62
   256
176
     0
 40
1.0
176
     0
 90
        2
176
     1
  1
strokes_ogs.tif
176
     1
290
     0
176
     1
 40
1.0
176
     1
 40
1.0
176
     1
  0
VISUALSTYLE
  5
2E
102
{ACAD_REACTORS
330
29
102
}
330
29
100
AcDbVisualStyle
  2
Basic
 70
     7
177
     3
291
     1
 70
    58
 90
        1
176
     1
 90
        0
176
     1
 90
        1
176
     1
 90
        0
176
     1
 40
0.6
176
     1
 40
30.0
176
     1
 62
     7
420
 16777215
176
     1
 90
        0
176
     1
 90
        4
176
     1
 62
     7
176
     1
 62
   257
176
     1
 90
        1
176
     1
 90
        1
176
     1
 40
1.0
176
     1
 90
        8
176
     1
 62
     7
176
     1
 40
1.0
176
     1
 90
        1
176
     1
 90
        6
176
     1
 90
        2
176
     1
 62
     7
176
     1
 90
        5
176
     1
 90
        0
176
     1
 90
        0
176
     1
290
     0
176
     1
 90
        1
176
     1
 40
0.0
176
     1
 90
        0
176
     1
290
     0
176
     1
290
     1
176
     1
290
     1
176
     1
290
     0
176
     1
290
     0
176
     1
290
     0
176
     1
290
     0
176
     1
290
     0
176
     1
290
     0
176
     1
 90
       50
176
     1
 40
0.0
176
     1
 40
1.0
176
     1
 90
        0
176
     1
 62
    18
420
        0
176
     1
 90
       50
176
     1
 90
        3
176
     1
 62
     5
420
      255
176
     1
290
     0
176
     1
 90
       50
176
     1
 90
       50
176
     1
 90
       50
176
     1
290
     0
176
     1
 90
       50
176
     1
 62
   256
176
     0
 40
1.0
176
     0
 90
        2
176
     1
  1
strokes_ogs.tif
176
     1
290
     0
176
     1
 40
1.0
176
     1
 40
1.0
176
     1
  0
VISUALSTYLE
  5
35
102
{ACAD_REACTORS
330
29
102
}
330
29
100
AcDbVisualStyle
  2
Brighten
 70
    12
177
     3
291
     1
 70
    58
 90
        2
176
     1
 90
        2
176
     1
 90
        0
176
     1
 90
        0
176
     1
 40
0.6
176
     1
 40
30.0
176
     1
 62
     7
420
 16777215
176
     1
 90
        1
176
     1
 90
        4
176
     1
 62
     7
176
     1
 62
   257
176
     1
 90
        1
176
     1
 90
        1
176
     1
 40
1.0
176
     1
 90
        8
176
     1
 62
     7
176
     1
 40
1.0
176
     1
 90
        1
176
     1
 90
        6
176
     1
 90
        2
176
     1
 62
     7
176
     1
 90
        5
176
     1
 90
        0
176
     1
 90
        0
176
     1
290
     0
176
     1
 90
        1
176
     1
 40
50.0
176
     1
 90
        0
176
     1
290
     0
176
     1
290
     1
176
     1
290
     1
176
     1
290
     0
176
     1
290
     0
176
     1
290
     0
176
     1
290
     0
176
     1
290
     0
176
     1
290
     0
176
     1
 90
       50
176
     1
 40
0.0
176
     1
 40
1.0
176
     1
 90
        0
176
     1
 62
    18
420
        0
176
     1
 90
       50
176
     1
 90
        3
176
     1
 62
     5
420
      255
176
     1
290
     0
176
     1
 90
       50
176
     1
 90
       50
176
     1
 90
       50
176
     1
290
     0
176
     1
 90
       50
176
     1
 62
   256
176
     0
 40
1.0
176
     0
 90
        2
176
     1
  1
strokes_ogs.tif
176
     1
290
     0
176
     1
 40
1.0
176
     1
 40
1.0
176
     1
  0
VISUALSTYLE
  5
39
102
{ACAD_REACTORS
330
29
102
}
330
29
100
AcDbVisualStyle
  2
ColorChange
 70
    16
177
     3
291
     1
 70
    58
 90
        2
176
     1
 90
        2
176
     1
 90
        3
176
     1
 90
        0
176
     1
 40
0.6
176
     1
 40
30.0
176
     1
 62
     8
420
  8421504
176
     1
 90
        1
176
     1
 90
        4
176
     1
 62
     7
176
     1
 62
   257
176
     1
 90
        1
176
     1
 90
        1
176
     1
 40
1.0
176
     1
 90
        8
176
     1
 62
     8
420
  8421504
176
     1
 40
1.0
176
     1
 90
        1
176
     1
 90
        6
176
     1
 90
        2
176
     1
 62
     7
176
     1
 90
        5
176
     1
 90
        0
176
     1
 90
        0
176
     1
290
     0
176
     1
 90
        1
176
     1
 40
0.0
176
     1
 90
        0
176
     1
290
     0
176
     1
290
     1
176
     1
290
     1
176
     1
290
     0
176
     1
290
     0
176
     1
290
     0
176
     1
290
     0
176
     1
290
     0
176
     1
290
     0
176
     1
 90
       50
176
     1
 40
0.0
176
     1
 40
1.0
176
     1
 90
        0
176
     1
 62
    18
420
        0
176
     1
 90
       50
176
     1
 90
        3
176
     1
 62
     5
420
      255
176
     1
290
     0
176
     1
 90
       50
176
     1
 90
       50
176
     1
 90
       50
176
     1
290
     0
176
     1
 90
       50
176
     1
 62
   256
176
     0
 40
1.0
176
     0
 90
        2
176
     1
  1
strokes_ogs.tif
176
     1
290
     0
176
     1
 40
1.0
176
     1
 40
1.0
176
     1
  0
VISUALSTYLE
  5
32
102
{ACAD_REACTORS
330
29
102
}
330
29
100
AcDbVisualStyle
  2
Conceptual
 70
     9
177
     3
291
     0
 70
    58
 90
        3
176
     1
 90
        2
176
     1
 90
        0
176
     1
 90
        0
176
     1
 40
0.6
176
     1
 40
30.0
176
     1
 62
     7
420
 16777215
176
     1
 90
        2
176
     1
 90
        2
176
     1
 62
     7
176
     1
 62
   257
176
     1
 90
        1
176
     1
 90
        1
176
     1
 40
179.0
176
     1
 90
        8
176
     1
 62
     7
176
     1
 40
1.0
176
     1
 90
        1
176
     1
 90
        6
176
     1
 90
        2
176
     1
 62
     7
176
     1
 90
        3
176
     1
 90
        0
176
     1
 90
        0
176
     1
290
     0
176
     1
 90
        1
176
     1
 40
0.0
176
     1
 90
        0
176
     1
290
     0
176
     1
290
     1
176
     1
290
     1
176
     1
290
     0
176
     1
290
     0
176
     1
290
     0
176
     1
290
     0
176
     1
290
     0
176
     1
290
     0
176
     1
 90
       50
176
     1
 40
0.0
176
     1
 40
1.0
176
     1
 90
        0
176
     1
 62
    18
420
        0
176
     1
 90
       50
176
     1
 90
        3
176
     1
 62
     5
420
      255
176
     1
290
     0
176
     1
 90
       50
176
     1
 90
       50
176
     1
 90
       50
176
     1
290
     0
176
     1
 90
       50
176
     1
 62
   256
176
     0
 40
1.0
176
     0
 90
        2
176
     1
  1
strokes_ogs.tif
176
     1
290
     0
176
     1
 40
1.0
176
     1
 40
1.0
176
     1
  0
VISUALSTYLE
  5
34
102
{ACAD_REACTORS
330
29
102
}
330
29
100
AcDbVisualStyle
  2
Dim
 70
    11
177
     3
291
     1
 70
    58
 90
        2
176
     1
 90
        2
176
     1
 90
        0
176
     1
 90
        0
176
     1
 40
0.6
176
     1
 40
30.0
176
     1
 62
     7
420
 16777215
176
     1
 90
        1
176
     1
 90
        4
176
     1
 62
     7
176
     1
 62
   257
176
     1
 90
        1
176
     1
 90
        1
176
     1
 40
1.0
176
     1
 90
        8
176
     1
 62
     7
176
     1
 40
1.0
176
     1
 90
        1
176
     1
 90
        6
176
     1
 90
        2
176
     1
 62
     7
176
     1
 90
        5
176
     1
 90
        0
176
     1
 90
        0
176
     1
290
     0
176
     1
 90
        1
176
     1
 40
-50.0
176
     1
 90
        0
176
     1
290
     0
176
     1
290
     1
176
     1
290
     1
176
     1
290
     0
176
     1
290
     0
176
     1
290
     0
176
     1
290
     0
176
     1
290
     0
176
     1
290
     0
176
     1
 90
       50
176
     1
 40
0.0
176
     1
 40
1.0
176
     1
 90
        0
176
     1
 62
    18
420
        0
176
     1
 90
       50
176
     1
 90
        3
176
     1
 62
     5
420
      255
176
     1
290
     0
176
     1
 90
       50
176
     1
 90
       50
176
     1
 90
       50
176
     1
290
     0
176
     1
 90
       50
176
     1
 62
   256
176
     0
 40
1.0
176
     0
 90
        2
176
     1
  1
strokes_ogs.tif
176
     1
290
     0
176
     1
 40
1.0
176
     1
 40
1.0
176
     1
  0
VISUALSTYLE
  5
41
102
{ACAD_REACTORS
330
29
102
}
330
29
100
AcDbVisualStyle
  2
EdgeColorOff
 70
    22
177
     3
291
     1
 70
    58
 90
        2
176
     0
 90
        2
176
     0
 90
        0
176
     0
 90
        0
176
     0
 40
0.6
176
     0
 40
30.0
176
     0
 62
     7
420
 16777215
176
     0
 90
        1
176
     0
 90
        4
176
     0
 62
     7
176
     0
 62
   257
176
     0
 90
        1
176
     0
 90
        1
176
     0
 40
1.0
176
     0
 90
        8
176
     2
 62
     7
176
     0
 40
1.0
176
     0
 90
        1
176
     0
 90
        6
176
     0
 90
        2
176
     0
 62
     7
176
     0
 90
        5
176
     0
 90
        0
176
     0
 90
        0
176
     0
290
     0
176
     0
 90
        1
176
     0
 40
0.0
176
     0
 90
        0
176
     0
290
     0
176
     0
290
     1
176
     0
290
     1
176
     0
290
     0
176
     0
290
     0
176
     0
290
     0
176
     0
290
     0
176
     0
290
     0
176
     0
290
     0
176
     0
 90
       50
176
     0
 40
0.0
176
     0
 40
1.0
176
     0
 90
        0
176
     0
 62
    18
420
        0
176
     0
 90
       50
176
     0
 90
        3
176
     0
 62
     5
420
      255
176
     0
290
     0
176
     0
 90
       50
176
     0
 90
       50
176
     0
 90
       50
176
     0
290
     0
176
     0
 90
       50
176
     0
 62
   256
176
     0
 40
1.0
176
     0
 90
        2
176
     0
  1
strokes_ogs.tif
176
     0
290
     0
176
     0
 40
1.0
176
     0
 40
1.0
176
     0
  0
VISUALSTYLE
  5
38
102
{ACAD_REACTORS
330
29
102
}
330
29
100
AcDbVisualStyle
  2
Facepattern
 70
    15
177
     3
291
     1
 70
    58
 90
        2
176
     1
 90
        2
176
     1
 90
        0
176
     1
 90
        0
176
     1
 40
0.6
176
     1
 40
30.0
176
     1
 62
     7
420
 16777215
176
     1
 90
        1
176
     1
 90
        4
176
     1
 62
     7
176
     1
 62
   257
176
     1
 90
        1
176
     1
 90
        1
176
     1
 40
1.0
176
     1
 90
        8
176
     1
 62
     7
176
     1
 40
1.0
176
     1
 90
        1
176
     1
 90
        6
176
     1
 90
        2
176
     1
 62
     7
176
     1
 90
        5
176
     1
 90
        0
176
     1
 90
        0
176
     1
290
     0
176
     1
 90
        1
176
     1
 40
0.0
176
     1
 90
        0
176
     1
290
     0
176
     1
290
     1
176
     1
290
     1
176
     1
290
     0
176
     1
290
     0
176
     1
290
     0
176
     1
290
     0
176
     1
290
     0
176
     1
290
     0
176
     1
 90
       50
176
     1
 40
0.0
176
     1
 40
1.0
176
     1
 90
        0
176
     1
 62
    18
420
        0
176
     1
 90
       50
176
     1
 90
        3
176
     1
 62
     5
420
      255
176
     1
290
     0
176
     1
 90
       50
176
     1
 90
       50
176
     1
 90
       50
176
     1
290
     0
176
     1
 90
       50
176
     1
 62
   256
176
     0
 40
1.0
176
     0
 90
        2
176
     1
  1
strokes_ogs.tif
176
     1
290
     0
176
     1
 40
1.0
176
     1
 40
1.0
176
     1
  0
VISUALSTYLE
  5
2A
102
{ACAD_REACTORS
330
29
102
}
330
29
100
AcDbVisualStyle
  2
Flat
 70
     0
177
     3
291
     1
 70
    58
 90
        2
176
     1
 90
        1
176
     1
 90
        1
176
     1
 90
        2
176
     1
 40
0.6
176
     1
 40
30.0
176
     1
 62
     7
420
 16777215
176
     1
 90
        0
176
     1
 90
        0
176
     1
 62
     7
176
     1
 62
   257
176
     1
 90
        1
176
     1
 90
        1
176
     1
 40
1.0
176
     1
 90
        8
176
     1
 62
     7
176
     1
 40
1.0
176
     1
 90
        1
176
     1
 90
        6
176
     1
 90
        2
176
     1
 62
     7
176
     1
 90
        5
176
     1
 90
        0
176
     1
 90
        0
176
     1
290
     0
176
     1
 90
       13
176
     1
 40
0.0
176
     1
 90
        0
176
     1
290
     0
176
     1
290
     1
176
     1
290
     1
176
     1
290
     0
176
     1
290
     0
176
     1
290
     0
176
     1
290
     0
176
     1
290
     0
176
     1
290
     0
176
     1
 90
       50
176
     1
 40
0.0
176
     1
 40
1.0
176
     1
 90
        0
176
     1
 62
    18
420
        0
176
     1
 90
       50
176
     1
 90
        3
176
     1
 62
     5
420
      255
176
     1
290
     0
176
     1
 90
       50
176
     1
 90
       50
176
     1
 90
       50
176
     1
290
     0
176
     1
 90
       50
176
     1
 62
   256
176
     0
 40
1.0
176
     0
 90
        2
176
     1
  1
strokes_ogs.tif
176
     1
290
     0
176
     1
 40
1.0
176
     1
 40
1.0
176
     1
  0
VISUALSTYLE
  5
2B
102
{ACAD_REACTORS
330
29
102
}
330
29
100
AcDbVisualStyle
  2
FlatWithEdges
 70
     1
177
     3
291
     1
 70
    58
 90
        2
176
     1
 90
        1
176
     1
 90
        1
176
     1
 90
        2
176
     1
 40
0.6
176
     1
 40
30.0
176
     1
 62
     7
420
 16777215
176
     1
 90
        1
176
     1
 90
        0
176
     1
 62
     7
176
     1
 62
   257
176
     1
 90
        1
176
     1
 90
        1
176
     1
 40
1.0
176
     1
 90
        0
176
     1
 62
   257
176
     1
 40
1.0
176
     1
 90
        1
176
     1
 90
        6
176
     1
 90
        2
176
     1
 62
     7
176
     1
 90
        5
176
     1
 90
        0
176
     1
 90
        0
176
     1
290
     0
176
     1
 90
       13
176
     1
 40
0.0
176
     1
 90
        0
176
     1
290
     0
176
     1
290
     1
176
     1
290
     1
176
     1
290
     0
176
     1
290
     0
176
     1
290
     0
176
     1
290
     0
176
     1
290
     0
176
     1
290
     0
176
     1
 90
       50
176
     1
 40
0.0
176
     1
 40
1.0
176
     1
 90
        0
176
     1
 62
    18
420
        0
176
     1
 90
       50
176
     1
 90
        3
176
     1
 62
     5
420
      255
176
     1
290
     0
176
     1
 90
       50
176
     1
 90
       50
176
     1
 90
       50
176
     1
290
     0
176
     1
 90
       50
176
     1
 62
   256
176
     0
 40
1.0
176
     0
 90
        2
176
     1
  1
strokes_ogs.tif
176
     1
290
     0
176
     1
 40
1.0
176
     1
 40
1.0
176
     1
  0
VISUALSTYLE
  5
2C
102
{ACAD_REACTORS
330
29
102
}
330
29
100
AcDbVisualStyle
  2
Gouraud
 70
     2
177
     3
291
     1
 70
    58
 90
        2
176
     1
 90
        2
176
     1
 90
        1
176
     1
 90
        2
176
     1
 40
0.6
176
     1
 40
30.0
176
     1
 62
     7
420
 16777215
176
     1
 90
        0
176
     1
 90
        0
176
     1
 62
     7
176
     1
 62
   257
176
     1
 90
        1
176
     1
 90
        1
176
     1
 40
1.0
176
     1
 90
        0
176
     1
 62
     7
176
     1
 40
1.0
176
     1
 90
        1
176
     1
 90
        6
176
     1
 90
        2
176
     1
 62
     7
176
     1
 90
        5
176
     1
 90
        0
176
     1
 90
        0
176
     1
290
     0
176
     1
 90
       13
176
     1
 40
0.0
176
     1
 90
        0
176
     1
290
     0
176
     1
290
     1
176
     1
290
     1
176
     1
290
     0
176
     1
290
     0
176
     1
290
     0
176
     1
290
     0
176
     1
290
     0
176
     1
290
     0
176
     1
 90
       50
176
     1
 40
0.0
176
     1
 40
1.0
176
     1
 90
        0
176
     1
 62
    18
420
        0
176
     1
 90
       50
176
     1
 90
        3
176
     1
 62
     5
420
      255
176
     1
290
     0
176
     1
 90
       50
176
     1
 90
       50
176
     1
 90
       50
176
     1
290
     0
176
     1
 90
       50
176
     1
 62
   256
176
     0
 40
1.0
176
     0
 90
        2
176
     1
  1
strokes_ogs.tif
176
     1
290
     0
176
     1
 40
1.0
176
     1
 40
1.0
176
     1
  0
VISUALSTYLE
  5
2D
102
{ACAD_REACTORS
330
29
102
}
330
29
100
AcDbVisualStyle
  2
GouraudWithEdges
 70
     3
177
     3
291
     1
 70
    58
 90
        2
176
     1
 90
        2
176
     1
 90
        1
176
     1
 90
        2
176
     1
 40
0.6
176
     1
 40
30.0
176
     1
 62
     7
420
 16777215
176
     1
 90
        1
176
     1
 90
        0
176
     1
 62
     7
176
     1
 62
   257
176
     1
 90
        1
176
     1
 90
        1
176
     1
 40
1.0
176
     1
 90
        0
176
     1
 62
   257
176
     1
 40
1.0
176
     1
 90
        1
176
     1
 90
        6
176
     1
 90
        2
176
     1
 62
     7
176
     1
 90
        5
176
     1
 90
        0
176
     1
 90
        0
176
     1
290
     0
176
     1
 90
       13
176
     1
 40
0.0
176
     1
 90
        0
176
     1
290
     0
176
     1
290
     1
176
     1
290
     1
176
     1
290
     0
176
     1
290
     0
176
     1
290
     0
176
     1
290
     0
176
     1
290
     0
176
     1
290
     0
176
     1
 90
       50
176
     1
 40
0.0
176
     1
 40
1.0
176
     1
 90
        0
176
     1
 62
    18
420
        0
176
     1
 90
       50
176
     1
 90
        3
176
     1
 62
     5
420
      255
176
     1
290
     0
176
     1
 90
       50
176
     1
 90
       50
176
     1
 90
       50
176
     1
290
     0
176
     1
 90
       50
176
     1
 62
   256
176
     0
 40
1.0
176
     0
 90
        2
176
     1
  1
strokes_ogs.tif
176
     1
290
     0
176
     1
 40
1.0
176
     1
 40
1.0
176
     1
  0
VISUALSTYLE
  5
31
102
{ACAD_REACTORS
330
29
102
}
330
29
100
AcDbVisualStyle
  2
Hidden
 70
     6
177
     3
291
     0
 70
    58
 90
        1
176
     1
 90
        2
176
     1
 90
        2
176
     1
 90
        0
176
     1
 40
0.6
176
     1
 40
30.0
176
     1
 62
     7
420
 16777215
176
     1
 90
        2
176
     1
 90
        2
176
     1
 62
     7
176
     1
 62
   257
176
     1
 90
        2
176
     1
 90
        1
176
     1
 40
40.0
176
     1
 90
        0
176
     1
 62
   257
176
     1
 40
1.0
176
     1
 90
        1
176
     1
 90
        6
176
     1
 90
        2
176
     1
 62
     7
176
     1
 90
        3
176
     1
 90
        0
176
     1
 90
        0
176
     1
290
     0
176
     1
 90
        1
176
     1
 40
0.0
176
     1
 90
        0
176
     1
290
     0
176
     1
290
     1
176
     1
290
     1
176
     1
290
     0
176
     1
290
     0
176
     1
290
     0
176
     1
290
     0
176
     1
290
     0
176
     1
290
     0
176
     1
 90
       50
176
     1
 40
0.0
176
     1
 40
1.0
176
     1
 90
        0
176
     1
 62
    18
420
        0
176
     1
 90
       50
176
     1
 90
        3
176
     1
 62
     5
420
      255
176
     1
290
     0
176
     1
 90
       50
176
     1
 90
       50
176
     1
 90
       50
176
     1
290
     0
176
     1
 90
       50
176
     1
 62
   256
176
     0
 40
1.0
176
     0
 90
        2
176
     1
  1
strokes_ogs.tif
176
     1
290
     0
176
     1
 40
1.0
176
     1
 40
1.0
176
     1
  0
VISUALSTYLE
  5
3F
102
{ACAD_REACTORS
330
29
102
}
330
29
100
AcDbVisualStyle
  2
JitterOff
 70
    20
177
     3
291
     1
 70
    58
 90
        2
176
     0
 90
        2
176
     0
 90
        0
176
     0
 90
        0
176
     0
 40
0.6
176
     0
 40
30.0
176
     0
 62
     7
420
 16777215
176
     0
 90
        1
176
     0
 90
        4
176
     0
 62
     7
176
     0
 62
   257
176
     0
 90
        1
176
     0
 90
        1
176
     0
 40
1.0
176
     0
 90
       10
176
     2
 62
     7
176
     0
 40
1.0
176
     0
 90
        1
176
     0
 90
        6
176
     0
 90
        2
176
     0
 62
     7
176
     0
 90
        5
176
     0
 90
        0
176
     0
 90
        0
176
     0
290
     0
176
     0
 90
        1
176
     0
 40
0.0
176
     0
 90
        0
176
     0
290
     0
176
     0
290
     1
176
     0
290
     1
176
     0
290
     0
176
     0
290
     0
176
     0
290
     0
176
     0
290
     0
176
     0
290
     0
176
     0
290
     0
176
     0
 90
       50
176
     0
 40
0.0
176
     0
 40
1.0
176
     0
 90
        0
176
     0
 62
    18
420
        0
176
     0
 90
       50
176
     0
 90
        3
176
     0
 62
     5
420
      255
176
     0
290
     0
176
     0
 90
       50
176
     0
 90
       50
176
     0
 90
       50
176
     0
290
     0
176
     0
 90
       50
176
     0
 62
   256
176
     0
 40
1.0
176
     0
 90
        2
176
     0
  1
strokes_ogs.tif
176
     0
290
     0
176
     0
 40
1.0
176
     0
 40
1.0
176
     0
  0
VISUALSTYLE
  5
37
102
{ACAD_REACTORS
330
29
102
}
330
29
100
AcDbVisualStyle
  2
Linepattern
 70
    14
177
     3
291
     1
 70
    58
 90
        2
176
     1
 90
        2
176
     1
 90
        0
176
     1
 90
        0
176
     1
 40
0.6
176
     1
 40
30.0
176
     1
 62
     7
420
 16777215
176
     1
 90
        1
176
     1
 90
        4
176
     1
 62
     7
176
     1
 62
   257
176
     1
 90
        7
176
     1
 90
        7
176
     1
 40
1.0
176
     1
 90
        8
176
     1
 62
     7
176
     1
 40
1.0
176
     1
 90
        1
176
     1
 90
        6
176
     1
 90
        2
176
     1
 62
     7
176
     1
 90
        5
176
     1
 90
        0
176
     1
 90
        0
176
     1
290
     0
176
     1
 90
        1
176
     1
 40
0.0
176
     1
 90
        0
176
     1
290
     0
176
     1
290
     1
176
     1
290
     1
176
     1
290
     0
176
     1
290
     0
176
     1
290
     0
176
     1
290
     0
176
     1
290
     0
176
     1
290
     0
176
     1
 90
       50
176
     1
 40
0.0
176
     1
 40
1.0
176
     1
 90
        0
176
     1
 62
    18
420
        0
176
     1
 90
       50
176
     1
 90
        3
176
     1
 62
     5
420
      255
176
     1
290
     0
176
     1
 90
       50
176
     1
 90
       50
176
     1
 90
       50
176
     1
290
     0
176
     1
 90
       50
176
     1
 62
   256
176
     0
 40
1.0
176
     0
 90
        2
176
     1
  1
strokes_ogs.tif
176
     1
290
     0
176
     1
 40
1.0
176
     1
 40
1.0
176
     1
  0
VISUALSTYLE
  5
40
102
{ACAD_REACTORS
330
29
102
}
330
29
100
AcDbVisualStyle
  2
OverhangOff
 70
    21
177
     3
291
     1
 70
    58
 90
        2
176
     0
 90
        2
176
     0
 90
        0
176
     0
 90
        0
176
     0
 40
0.6
176
     0
 40
30.0
176
     0
 62
     7
420
 16777215
176
     0
 90
        1
176
     0
 90
        4
176
     0
 62
     7
176
     0
 62
   257
176
     0
 90
        1
176
     0
 90
        1
176
     0
 40
1.0
176
     0
 90
        9
176
     2
 62
     7
176
     0
 40
1.0
176
     0
 90
        1
176
     0
 90
        6
176
     0
 90
        2
176
     0
 62
     7
176
     0
 90
        5
176
     0
 90
        0
176
     0
 90
        0
176
     0
290
     0
176
     0
 90
        1
176
     0
 40
0.0
176
     0
 90
        0
176
     0
290
     0
176
     0
290
     1
176
     0
290
     1
176
     0
290
     0
176
     0
290
     0
176
     0
290
     0
176
     0
290
     0
176
     0
290
     0
176
     0
290
     0
176
     0
 90
       50
176
     0
 40
0.0
176
     0
 40
1.0
176
     0
 90
        0
176
     0
 62
    18
420
        0
176
     0
 90
       50
176
     0
 90
        3
176
     0
 62
     5
420
      255
176
     0
290
     0
176
     0
 90
       50
176
     0
 90
       50
176
     0
 90
       50
176
     0
290
     0
176
     0
 90
       50
176
     0
 62
   256
176
     0
 40
1.0
176
     0
 90
        2
176
     0
  1
strokes_ogs.tif
176
     0
290
     0
176
     0
 40
1.0
176
     0
 40
1.0
176
     0
  0
VISUALSTYLE
  5
33
102
{ACAD_REACTORS
330
29
102
}
330
29
100
AcDbVisualStyle
  2
Realistic
 70
     8
177
     3
291
     0
 70
    58
 90
        2
176
     1
 90
        3
176
     1
 90
        0
176
     1
 90
        2
176
     1
 40
0.6
176
     1
 40
30.0
176
     1
 62
     7
420
 16777215
176
     1
 90
        0
176
     1
 90
        0
176
     1
 62
     7
176
     1
 62
   257
176
     1
 90
        1
176
     1
 90
        1
176
     1
 40
1.0
176
     1
 90
        8
176
     1
 62
   257
176
     1
 40
1.0
176
     1
 90
        1
176
     1
 90
        6
176
     1
 90
        2
176
     1
 62
     7
176
     1
 90
        3
176
     1
 90
        0
176
     1
 90
        0
176
     1
290
     0
176
     1
 90
       13
176
     1
 40
0.0
176
     1
 90
        0
176
     1
290
     0
176
     1
290
     1
176
     1
290
     1
176
     1
290
     0
176
     1
290
     0
176
     1
290
     0
176
     1
290
     0
176
     1
290
     0
176
     1
290
     0
176
     1
 90
       50
176
     1
 40
0.0
176
     1
 40
1.0
176
     1
 90
        0
176
     1
 62
    18
420
        0
176
     1
 90
       50
176
     1
 90
        3
176
     1
 62
     5
420
      255
176
     1
290
     0
176
     1
 90
       50
176
     1
 90
       50
176
     1
 90
       50
176
     1
290
     0
176
     1
 90
       50
176
     1
 62
   256
176
     0
 40
1.0
176
     0
 90
        2
176
     1
  1
strokes_ogs.tif
176
     1
290
     0
176
     1
 40
1.0
176
     1
 40
1.0
176
     1
  0
VISUALSTYLE
  5
3E
102
{ACAD_REACTORS
330
29
102
}
330
29
100
AcDbVisualStyle
  2
Shaded
 70
    27
177
     3
291
     0
 70
    58
 90
        2
176
     1
 90
        2
176
     1
 90
        1
176
     1
 90
        2
176
     1
 40
0.6
176
     1
 40
30.0
176
     1
 62
     7
420
 16777215
176
     1
 90
        0
176
     1
 90
        4
176
     1
 62
     7
176
     1
 62
   257
176
     1
 90
        1
176
     1
 90
        1
176
     1
 40
1.0
176
     1
 90
        8
176
     1
 62
   257
176
     1
 40
1.0
176
     1
 90
        1
176
     1
 90
        6
176
     1
 90
        2
176
     1
 62
     8
420
  7895160
176
     1
 90
        3
176
     1
 90
        0
176
     1
 90
        0
176
     1
290
     0
176
     1
 90
        5
176
     1
 40
0.0
176
     1
 90
        0
176
     1
290
     0
176
     1
290
     1
176
     1
290
     1
176
     1
290
     0
176
     1
290
     0
176
     1
290
     0
176
     1
290
     0
176
     1
290
     0
176
     1
290
     0
176
     1
 90
       50
176
     1
 40
0.0
176
     1
 40
1.0
176
     1
 90
        0
176
     1
 62
    18
420
        0
176
     1
 90
       50
176
     1
 90
        3
176
     1
 62
     5
420
      255
176
     1
290
     0
176
     1
 90
       50
176
     1
 90
       50
176
     1
 90
       50
176
     1
290
     0
176
     1
 90
       50
176
     1
 62
   256
176
     0
 40
1.0
176
     0
 90
        2
176
     1
  1
strokes_ogs.tif
176
     1
290
     0
176
     1
 40
1.0
176
     1
 40
1.0
176
     1
  0
VISUALSTYLE
  5
3D
102
{ACAD_REACTORS
330
29
102
}
330
29
100
AcDbVisualStyle
  2
Shaded with edges
 70
    26
177
     3
291
     0
 70
    58
 90
        2
176
     1
 90
        2
176
     1
 90
        1
176
     1
 90
        2
176
     1
 40
0.6
176
     1
 40
30.0
176
     1
 62
     7
420
 16777215
176
     1
 90
        1
176
     1
 90
        2
176
     1
 62
     7
176
     1
 62
   257
176
     1
 90
        2
176
     1
 90
        1
176
     1
 40
1.0
176
     1
 90
        8
176
     1
 62
   257
176
     1
 40
1.0
176
     1
 90
        1
176
     1
 90
        6
176
     1
 90
        2
176
     1
 62
     7
176
     1
 90
        3
176
     1
 90
        0
176
     1
 90
        0
176
     1
290
     0
176
     1
 90
        5
176
     1
 40
0.0
176
     1
 90
        0
176
     1
290
     0
176
     1
290
     1
176
     1
290
     1
176
     1
290
     0
176
     1
290
     0
176
     1
290
     0
176
     1
290
     0
176
     1
290
     0
176
     1
290
     0
176
     1
 90
       50
176
     1
 40
0.0
176
     1
 40
1.0
176
     1
 90
        0
176
     1
 62
    18
420
        0
176
     1
 90
       50
176
     1
 90
        3
176
     1
 62
     5
420
      255
176
     1
290
     0
176
     1
 90
       50
176
     1
 90
       50
176
     1
 90
       50
176
     1
290
     0
176
     1
 90
       50
176
     1
 62
   256
176
     0
 40
1.0
176
     0
 90
        2
176
     1
  1
strokes_ogs.tif
176
     1
290
     0
176
     1
 40
1.0
176
     1
 40
1.0
176
     1
  0
VISUALSTYLE
  5
3A
102
{ACAD_REACTORS
330
29
102
}
330
29
100
AcDbVisualStyle
  2
Shades of Gray
 70
    23
177
     3
291
     0
 70
    58
 90
        2
176
     1
 90
        2
176
     1
 90
        3
176
     1
 90
        0
176
     1
 40
0.6
176
     1
 40
30.0
176
     1
 62
     7
420
 16777215
176
     1
 90
        2
176
     1
 90
        2
176
     1
 62
     7
176
     1
 62
     7
176
     1
 90
        1
176
     1
 90
        1
176
     1
 40
40.0
176
     1
 90
        8
176
     1
 62
     7
176
     1
 40
1.0
176
     1
 90
        1
176
     1
 90
        6
176
     1
 90
        2
176
     1
 62
     7
176
     1
 90
        3
176
     1
 90
        0
176
     1
 90
        0
176
     1
290
     0
176
     1
 90
        1
176
     1
 40
0.0
176
     1
 90
        0
176
     1
290
     0
176
     1
290
     1
176
     1
290
     1
176
     1
290
     0
176
     1
290
     0
176
     1
290
     0
176
     1
290
     0
176
     1
290
     0
176
     1
290
     0
176
     1
 90
       50
176
     1
 40
0.0
176
     1
 40
1.0
176
     1
 90
        0
176
     1
 62
    18
420
        0
176
     1
 90
       50
176
     1
 90
        3
176
     1
 62
     5
420
      255
176
     1
290
     0
176
     1
 90
       50
176
     1
 90
       50
176
     1
 90
       50
176
     1
290
     0
176
     1
 90
       50
176
     1
 62
   256
176
     0
 40
1.0
176
     0
 90
        2
176
     1
  1
strokes_ogs.tif
176
     1
290
     0
176
     1
 40
1.0
176
     1
 40
1.0
176
     1
  0
VISUALSTYLE
  5
3B
102
{ACAD_REACTORS
330
29
102
}
330
29
100
AcDbVisualStyle
  2
Sketchy
 70
    24
177
     3
291
     0
 70
    58
 90
        1
176
     1
 90
        2
176
     1
 90
        2
176
     1
 90
        0
176
     1
 40
0.6
176
     1
 40
30.0
176
     1
 62
     7
420
 16777215
176
     1
 90
        2
176
     1
 90
        2
176
     1
 62
     7
176
     1
 62
     7
176
     1
 90
        1
176
     1
 90
        1
176
     1
 40
40.0
176
     1
 90
       11
176
     1
 62
     7
176
     1
 40
1.0
176
     1
 90
        1
176
     1
 90
        6
176
     1
 90
        2
176
     1
 62
     7
176
     1
 90
        6
176
     1
 90
        0
176
     1
 90
        0
176
     1
290
     0
176
     1
 90
        1
176
     1
 40
0.0
176
     1
 90
        0
176
     1
290
     0
176
     1
290
     1
176
     1
290
     1
176
     1
290
     0
176
     1
290
     0
176
     1
290
     0
176
     1
290
     0
176
     1
290
     0
176
     1
290
     0
176
     1
 90
       50
176
     1
 40
0.0
176
     1
 40
1.0
176
     1
 90
        0
176
     1
 62
    18
420
        0
176
     1
 90
       50
176
     1
 90
        3
176
     1
 62
     5
420
      255
176
     1
290
     0
176
     1
 90
       50
176
     1
 90
       50
176
     1
 90
       50
176
     1
290
     0
176
     1
 90
       50
176
     1
 62
   256
176
     0
 40
1.0
176
     0
 90
        2
176
     1
  1
strokes_ogs.tif
176
     1
290
     0
176
     1
 40
1.0
176
     1
 40
1.0
176
     1
  0
VISUALSTYLE
  5
36
102
{ACAD_REACTORS
330
29
102
}
330
29
100
AcDbVisualStyle
  2
Thicken
 70
    13
177
     3
291
     1
 70
    58
 90
        2
176
     1
 90
        2
176
     1
 90
        0
176
     1
 90
        0
176
     1
 40
0.6
176
     1
 40
30.0
176
     1
 62
     7
420
 16777215
176
     1
 90
        1
176
     1
 90
        4
176
     1
 62
     7
176
     1
 62
   257
176
     1
 90
        1
176
     1
 90
        1
176
     1
 40
1.0
176
     1
 90
       12
176
     1
 62
     7
176
     1
 40
1.0
176
     1
 90
        1
176
     1
 90
        6
176
     1
 90
        2
176
     1
 62
     7
176
     1
 90
        5
176
     1
 90
        0
176
     1
 90
        0
176
     1
290
     0
176
     1
 90
        1
176
     1
 40
0.0
176
     1
 90
        0
176
     1
290
     0
176
     1
290
     1
176
     1
290
     1
176
     1
290
     0
176
     1
290
     0
176
     1
290
     0
176
     1
290
     0
176
     1
290
     0
176
     1
290
     0
176
     1
 90
       50
176
     1
 40
0.0
176
     1
 40
1.0
176
     1
 90
        0
176
     1
 62
    18
420
        0
176
     1
 90
       50
176
     1
 90
        3
176
     1
 62
     5
420
      255
176
     1
290
     0
176
     1
 90
       50
176
     1
 90
       50
176
     1
 90
       50
176
     1
290
     0
176
     1
 90
       50
176
     1
 62
   256
176
     0
 40
1.0
176
     0
 90
        2
176
     1
  1
strokes_ogs.tif
176
     1
290
     0
176
     1
 40
1.0
176
     1
 40
1.0
176
     1
  0
VISUALSTYLE
  5
30
102
{ACAD_REACTORS
330
29
102
}
330
29
100
AcDbVisualStyle
  2
Wireframe
 70
     5
177
     3
291
     0
 70
    58
 90
        0
176
     1
 90
        2
176
     1
 90
        0
176
     1
 90
        0
176
     1
 40
0.6
176
     1
 40
30.0
176
     1
 62
     7
420
 16777215
176
     1
 90
        1
176
     1
 90
        4
176
     1
 62
     7
176
     1
 62
   257
176
     1
 90
        1
176
     1
 90
        1
176
     1
 40
1.0
176
     1
 90
        0
176
     1
 62
   257
176
     1
 40
1.0
176
     1
 90
        1
176
     1
 90
        6
176
     1
 90
        2
176
     1
 62
     7
176
     1
 90
        3
176
     1
 90
        0
176
     1
 90
        0
176
     1
290
     0
176
     1
 90
        1
176
     1
 40
0.0
176
     1
 90
        0
176
     1
290
     0
176
     1
290
     1
176
     1
290
     1
176
     1
290
     0
176
     1
290
     0
176
     1
290
     0
176
     1
290
     0
176
     1
290
     0
176
     1
290
     0
176
     1
 90
       50
176
     1
 40
0.0
176
     1
 40
1.0
176
     1
 90
        0
176
     1
 62
    18
420
        0
176
     1
 90
       50
176
     1
 90
        3
176
     1
 62
     5
420
      255
176
     1
290
     0
176
     1
 90
       50
176
     1
 90
       50
176
     1
 90
       50
176
     1
290
     0
176
     1
 90
       50
176
     1
 62
   256
176
     0
 40
1.0
176
     0
 90
        2
176
     1
  1
strokes_ogs.tif
176
     1
290
     0
176
     1
 40
1.0
176
     1
 40
1.0
176
     1
  0
VISUALSTYLE
  5
3C
102
{ACAD_REACTORS
330
29
102
}
330
29
100
AcDbVisualStyle
  2
X-Ray
 70
    25
177
     3
291
     0
 70
    58
 90
        2
176
     1
 90
        2
176
     1
 90
        1
176
     1
 90
        1
176
     1
 40
0.5
176
     1
 40
30.0
176
     1
 62
     7
420
 16777215
176
     1
 90
        1
176
     1
 90
        0
176
     1
 62
     7
176
     1
 62
   257
176
     1
 90
        1
176
     1
 90
        1
176
     1
 40
1.0
176
     1
 90
        8
176
     1
 62
     7
176
     1
 40
1.0
176
     1
 90
        1
176
     1
 90
        6
176
     1
 90
        2
176
     1
 62
     7
176
     1
 90
        3
176
     1
 90
        0
176
     1
 90
        0
176
     1
290
     0
176
     1
 90
       13
176
     1
 40
0.0
176
     1
 90
        0
176
     1
290
     0
176
     1
290
     1
176
     1
290
     1
176
     1
290
     0
176
     1
290
     0
176
     1
290
     0
176
     1
290
     0
176
     1
290
     0
176
     1
290
     0
176
     1
 90
       50
176
     1
 40
0.0
176
     1
 40
1.0
176
     1
 90
        0
176
     1
 62
    18
420
        0
176
     1
 90
       50
176
     1
 90
        3
176
     1
 62
     5
420
      255
176
     1
290
     0
176
     1
 90
       50
176
     1
 90
       50
176
     1
 90
       50
176
     1
290
     0
176
     1
 90
       50
176
     1
 62
   256
176
     0
 40
1.0
176
     0
 90
        2
176
     1
  1
strokes_ogs.tif
176
     1
290
     0
176
     1
 40
1.0
176
     1
 40
1.0
176
     1
  0
DICTIONARYVAR
  5
80
102
{ACAD_REACTORS
330
7B
102
}
330
7B
100
DictionaryVariables
280
     0
  1
1:1
  0
DICTIONARYVAR
  5
7D
102
{ACAD_REACTORS
330
7B
102
}
330
7B
100
DictionaryVariables
280
     0
  1
STANDARD
  0
DICTIONARYVAR
  5
7C
102
{ACAD_REACTORS
330
7B
102
}
330
7B
100
DictionaryVariables
280
     0
  1
STANDARD
  0
DICTIONARYVAR
  5
7E
102
{ACAD_REACTORS
330
7B
102
}
330
7B
100
DictionaryVariables
280
     0
  1
Imperial24
  0
DICTIONARYVAR
  5
7F
102
{ACAD_REACTORS
330
7B
102
}
330
7B
100
DictionaryVariables
280
     0
  1
Imperial24
  0
XRECORD
  5
1C4
102
{ACAD_REACTORS
330
1C0
102
}
330
1C0
100
AcDbXrecord
280
     1
  1
-2000011
  1
Wände
  1
-2000023
  1
Türen
  1
-2000032
  1
Geschossdecken
  1
-2000080
  1
Möbel
  0
XRECORD
  5
1C1
102
{ACAD_REACTORS
330
1C0
102
}
330
1C0
100
AcDbXrecord
280
     1
  1
adfa688c-99c8-46f6-8aa1-e527ee6132ab
  0
XRECORD
  5
1C5
102
{ACAD_REACTORS
330
1C0
102
}
330
1C0
100
AcDbXrecord
280
     1
  1
-2000025
  1
Element
  1
-2000027
  1
Öffnung
  1
-2000029
  1
Rahmen/Pfosten
  1
-2000581
  1
Tragende Schicht [1]
  1
-2000586
  1
Gemeinsame Kanten
  1
-2000588
  1
Schnittmuster
  1
963149
  1
Sichtbeschläge
  0
XRECORD
  5
1C3
102
{ACAD_REACTORS
330
1C0
102
}
330
1C0
100
AcDbXrecord
280
     1
  1
2125215
  1
TU DF 1 - Haustüre : ML - 1135 x 2250
  1
2296047
  1
Tisch-01 : 1700 x 900 x 780
  1
2296858
  1
Stuhl-04 : Typ1
  1
712245
  1
Geschossdecke : STB 200
  1
712271
  1
Basiswand : Betonfertigteil 250 mit Dämmeigenschaften : Betonfertigteil 250 mit Dämmeigenschaften
  0
DICTIONARY
  5
1A
330
19
100
AcDbDictionary
280
     1
281
     1
  3
BUMPTILE
360
1C
  3
DIFFUSETILE
360
1B
  3
OPACITYTILE
360
1F
  3
REFLECTIONTILE
360
1E
  3
REFRACTIONTILE
360
20
  3
SPECULARTILE
360
1D
  0
DICTIONARY
  5
12
330
11
100
AcDbDictionary
280
     1
281
     1
  3
BUMPTILE
360
14
  3
DIFFUSETILE
360
13
  3
OPACITYTILE
360
17
  3
REFLECTIONTILE
360
16
  3
REFRACTIONTILE
360
18
  3
SPECULARTILE
360
15
  0
DICTIONARY
  5
22
330
21
100
AcDbDictionary
280
     1
281
     1
  3
BUMPTILE
360
24
  3
DIFFUSETILE
360
23
  3
OPACITYTILE
360
27
  3
REFLECTIONTILE
360
26
  3
REFRACTIONTILE
360
28
  3
SPECULARTILE
360
25
  0
DICTIONARY
  5
1C8
330
65
100
AcDbDictionary
280
     1
281
     1
  3
ACAD_ROUNDTRIP_2008_TABLESTYLE_CELLSTYLEMAP
360
1C9
  0
XRECORD
  5
1C
102
{ACAD_REACTORS
330
1A
102
}
330
1A
100
AcDbXrecord
280
     1
270
     1
271
     1
  0
XRECORD
  5
1B
102
{ACAD_REACTORS
330
1A
102
}
330
1A
100
AcDbXrecord
280
     1
270
     1
271
     1
  0
XRECORD
  5
1F
102
{ACAD_REACTORS
330
1A
102
}
330
1A
100
AcDbXrecord
280
     1
270
     1
271
     1
  0
XRECORD
  5
1E
102
{ACAD_REACTORS
330
1A
102
}
330
1A
100
AcDbXrecord
280
     1
270
     1
271
     1
  0
XRECORD
  5
20
102
{ACAD_REACTORS
330
1A
102
}
330
1A
100
AcDbXrecord
280
     1
270
     1
271
     1
  0
XRECORD
  5
1D
102
{ACAD_REACTORS
330
1A
102
}
330
1A
100
AcDbXrecord
280
     1
270
     1
271
     1
  0
XRECORD
  5
14
102
{ACAD_REACTORS
330
12
102
}
330
12
100
AcDbXrecord
280
     1
270
     1
271
     1
  0
XRECORD
  5
13
102
{ACAD_REACTORS
330
12
102
}
330
12
100
AcDbXrecord
280
     1
270
     1
271
     1
  0
XRECORD
  5
17
102
{ACAD_REACTORS
330
12
102
}
330
12
100
AcDbXrecord
280
     1
270
     1
271
     1
  0
XRECORD
  5
16
102
{ACAD_REACTORS
330
12
102
}
330
12
100
AcDbXrecord
280
     1
270
     1
271
     1
  0
XRECORD
  5
18
102
{ACAD_REACTORS
330
12
102
}
330
12
100
AcDbXrecord
280
     1
270
     1
271
     1
  0
XRECORD
  5
15
102
{ACAD_REACTORS
330
12
102
}
330
12
100
AcDbXrecord
280
     1
270
     1
271
     1
  0
XRECORD
  5
24
102
{ACAD_REACTORS
330
22
102
}
330
22
100
AcDbXrecord
280
     1
270
     1
271
     1
  0
XRECORD
  5
23
102
{ACAD_REACTORS
330
22
102
}
330
22
100
AcDbXrecord
280
     1
270
     1
271
     1
  0
XRECORD
  5
27
102
{ACAD_REACTORS
330
22
102
}
330
22
100
AcDbXrecord
280
     1
270
     1
271
     1
  0
XRECORD
  5
26
102
{ACAD_REACTORS
330
22
102
}
330
22
100
AcDbXrecord
280
     1
270
     1
271
     1
  0
XRECORD
  5
28
102
{ACAD_REACTORS
330
22
102
}
330
22
100
AcDbXrecord
280
     1
270
     1
271
     1
  0
XRECORD
  5
25
102
{ACAD_REACTORS
330
22
102
}
330
22
100
AcDbXrecord
280
     1
270
     1
271
     1
  0
CELLSTYLEMAP
  5
1C9
102
{ACAD_REACTORS
330
1C8
102
}
330
1C8
100
AcDbCellStyleMap
 90
        3
300
CELLSTYLE
  1
TABLEFORMAT_BEGIN
 90
        5
170
     1
 91
        0
 92
    32768
 62
   257
 93
        1
300
CONTENTFORMAT
  1
CONTENTFORMAT_BEGIN
 90
        0
 91
        0
 92
      512
 93
        0
300

 40
0.0
140
1.0
 94
        5
 62
     0
340
55
144
0.25
309
CONTENTFORMAT_END
171
     0
 94
        0
309
TABLEFORMAT_END
  1
CELLSTYLE_BEGIN
 90
        1
 91
        1
300
_TITLE
309
CELLSTYLE_END
300
CELLSTYLE
  1
TABLEFORMAT_BEGIN
 90
        5
170
     1
 91
        0
 92
        0
 62
   257
 93
        1
300
CONTENTFORMAT
  1
CONTENTFORMAT_BEGIN
 90
        0
 91
        0
 92
      512
 93
        0
300

 40
0.0
140
1.0
 94
        5
 62
     0
340
55
144
0.18
309
CONTENTFORMAT_END
171
     0
 94
        0
309
TABLEFORMAT_END
  1
CELLSTYLE_BEGIN
 90
        2
 91
        1
300
_HEADER
309
CELLSTYLE_END
300
CELLSTYLE
  1
TABLEFORMAT_BEGIN
 90
        5
170
     1
 91
        0
 92
        0
 62
   257
 93
        1
300
CONTENTFORMAT
  1
CONTENTFORMAT_BEGIN
 90
        0
 91
        0
 92
      512
 93
        0
300

 40
0.0
140
1.0
 94
        2
 62
     0
340
55
144
0.18
309
CONTENTFORMAT_END
171
     0
 94
        0
309
TABLEFORMAT_END
  1
CELLSTYLE_BEGIN
 90
        3
 91
        2
300
_DATA
309
CELLSTYLE_END
  0
ENDSEC
  0
EOF
