999
FreeCAD v0.21 33771 (Git)
  0
SECTION
  2
HEADER
  9
$ACADVER
  1
AC1014
  9
$ACADMAINTVER
 70
     9
  9
$DWGCODEPAGE
  3
ANSI_1252
  9
$TEXTSTYLE
  7
STANDARD
  9
$DIMSTYLE
  2
STANDARD
  9
$DIMTXSTY
  7
STANDARD
  9
$CMLSTYLE
  2
STANDARD
  9
$LUNITS
 70
2
  9
$INSUNITS
 70
4
  9
$PEXTMAX
 10
50
 20
50
 30
50
  9
$PEXTMIN
 10
0
 20
0
 30
0
  9
$HANDSEED
  5
FFFF
  0
ENDSEC
  0
SECTION
  2
CLASSES
  0
CLASS
  1
ACDBDICTIONARYWDFLT
  2
AcDbDictionaryWithDefault
  3
ObjectDBX Classes
 90
        0
280
     0
281
     0
  0
CLASS
  1
XRECORD
  2
AcDbXrecord
  3
ObjectDBX Classes
 90
        0
280
     0
281
     0
  0
CLASS
  1
LWPOLYLINE
  2
AcDbPolyline
  3
ObjectDBX Classes
 90
        0
280
     0
281
     1
  0
ENDSEC
  0
SECTION
  2
TABLES
  0
TABLE
  2
VPORT
  5
20
330
0
100
AcDbSymbolTable
 70
     1
  0
VPORT
  5
21
330
20
100
AcDbSymbolTableRecord
100
AcDbViewportTableRecord
  2
*ACTIVE
 70
     0
  0
ENDTAB
  0
TABLE
  2
LTYPE
  5
22
330
0
100
AcDbSymbolTable
 70
     1
  0
LTYPE
  5
23
330
21
100
AcDbSymbolTableRecord
100
AcDbLinetypeTableRecord
  2
BYBLOCK
 70
     0
  3

 72
    65
 73
     0
 40
0.0
  0
LTYPE
  5
24
330
21
100
AcDbSymbolTableRecord
100
AcDbLinetypeTableRecord
  2
BYLAYER
 70
     0
  3

 72
    65
 73
     0
 40
0.0
  0
LTYPE
  5
25
330
21
100
AcDbSymbolTableRecord
100
AcDbLinetypeTableRecord
  2
CONTINUOUS
 70
     0
  3
Solid line
 72
    65
 73
     0
 40
0.0
  0
ENDTAB
  0
TABLE
  2
LAYER
  5
A31
330
0
100
AcDbSymbolTable
 70
3
  0
LAYER
  5
A32
330
A31
100
AcDbSymbolTableRecord
100
AcDbLayerTableRecord
  2
0
 70
   0
 62
   7
  6
CONTINUOUS
  0
LAYER
  5
A33
330
A31
100
AcDbSymbolTableRecord
100
AcDbLayerTableRecord
  2
none
 70
    0
 62
    7
  6
CONTINUOUS
  0
LAYER
  5
A34
330
A31
100
AcDbSymbolTableRecord
100
AcDbLayerTableRecord
  2
Sketch
 70
    0
 62
    7
  6
CONTINUOUS
  0
ENDTAB
  0
TABLE
  2
STYLE
  5
70
330
0
100
AcDbSymbolTable
 70
     2
  0
STYLE
  5
71
330
70
100
AcDbSymbolTableRecord
100
AcDbTextStyleTableRecord
  2
STANDARD
 70
     0
 40
0.0
 41
1.0
 50
0.0
 71
     0
 42
2.5
  3
arial.ttf
  4

  0
STYLE
  5
72
330
70
100
AcDbSymbolTableRecord
100
AcDbTextStyleTableRecord
  2
ANNOTATIVE
 70
     0
 40
0.0
 41
1.0
 50
0.0
 71
     0
 42
2.5
  3
arial.ttf
  4

  0
ENDTAB
  0
TABLE
  2
VIEW
  5
73
330
0
100
AcDbSymbolTable
 70
     0
  0
ENDTAB
  0
TABLE
  2
UCS
  5
74
330
0
100
AcDbSymbolTable
 70
     0
  0
ENDTAB
  0
TABLE
  2
APPID
  5
75
330
0
100
AcDbSymbolTable
 70
     2
  0
APPID
  5
76
330
75
100
AcDbSymbolTableRecord
100
AcDbRegAppTableRecord
  2
ACAD
 70
     0
  0
APPID
  5
77
330
75
100
AcDbSymbolTableRecord
100
AcDbRegAppTableRecord
  2
ACADANNOTATIVE
 70
     0
  0
ENDTAB
  0
TABLE
  2
DIMSTYLE
  5
78
330
0
100
AcDbSymbolTable
 70
     2
  0
DIMSTYLE
105
79
330
78
100
AcDbSymbolTableRecord
100
AcDbDimStyleTableRecord
  2
STANDARD
 70
     0
  3

  4

  5

  6

  7

 40
0.0
 41
2.5
 42
0.625
 43
3.75
 44
1.25
 45
0.0
 46
0.0
 47
0.0
 48
0.0
140
2.5
141
2.5
142
0.0
143
0.03937007874016
144
1.0
145
0.0
146
1.0
147
0.625
 71
     0
 72
     0
 73
     0
 74
     0
 75
     0
 76
     0
 77
     1
 78
     8
170
     0
171
     3
172
     1
173
     0
174
     0
175
     0
176
     0
177
     0
178
     0
270
     2
271
     2
272
     2
273
     2
274
     3
340
71
275
     0
280
     0
281
     0
282
     0
283
     0
284
     8
285
     0
286
     0
287
     3
288
     0
  0
ENDTAB
  0
TABLE
  2
BLOCK_RECORD
  5
A01
330
0
100
AcDbSymbolTable
  70
5
  0
BLOCK_RECORD
  5
A02
330
A01
100
AcDbSymbolTableRecord
100
AcDbBlockTableRecord
  2
*MODEL_SPACE
  0
BLOCK_RECORD
  5
A03
330
A01
100
AcDbSymbolTableRecord
100
AcDbBlockTableRecord
  2
*PAPER_SPACE
  0
ENDTAB
  0
ENDSEC
  0
SECTION
  2
BLOCKS
  0
BLOCK
  5
A04
330
A02
100
AcDbEntity
  8
0
100
AcDbBlockBegin
  2
*MODEL_SPACE
 70
   0
 10
0
 20
0
 30
0
  3
*MODEL_SPACE
  1
 
  0
ENDBLK
  5
A05
330
A02
100
AcDbEntity
  8
0
100
AcDbBlockEnd
  0
BLOCK
  5
A06
330
A03
100
AcDbEntity
 67
1
  8
0
100
AcDbBlockBegin
  2
*PAPER_SPACE
 70
   0
 10
0
 20
0
 30
0
  3
*PAPER_SPACE
  1
 
  0
ENDBLK
  5
A07
330
A03
100
AcDbEntity
 67
    1
  8
0
100
AcDbBlockEnd
  0
ENDSEC
  0
SECTION
  2
ENTITIES
  0
LINE
  5
A08
330
A02
100
AcDbEntity
  8
Sketch
100
AcDbLine
 10
-53.8272
 20
39.6914
 30
0
 11
-43.0247
 21
29.2593
 31
0
  0
LINE
  5
A09
330
A02
100
AcDbEntity
  8
Sketch
100
AcDbLine
 10
-48.3951
 20
18.9506
 30
0
 11
-30.2469
 21
35.3086
 31
0
  0
LINE
  5
A0A
330
A02
100
AcDbEntity
  8
Sketch
100
AcDbLine
 10
26.1728
 20
41.6049
 30
0
 11
39.5413
 21
23.7042
 31
0
  0
LINE
  5
A0B
330
A02
100
AcDbEntity
  8
Sketch
100
AcDbLine
 10
30.4152
 20
15.425
 30
0
 11
53.0682
 21
35.9759
 31
0
  0
LINE
  5
A0C
330
A02
100
AcDbEntity
  8
Sketch
100
AcDbLine
 10
-51.0534
 20
-9.69334
 30
0
 11
-32.0411
 21
-32.1007
 31
0
  0
LINE
  5
A0D
330
A02
100
AcDbEntity
  8
Sketch
100
AcDbLine
 10
-56.4855
 20
-31.5452
 30
0
 11
-27.3497
 21
-11.2983
 31
0
  0
LINE
  5
A0E
330
A02
100
AcDbEntity
  8
Sketch
100
AcDbLine
 10
20.1338
 20
-13.4045
 30
0
 11
48.2819
 21
-7.72546
 31
0
  0
LINE
  5
A0F
330
A02
100
AcDbEntity
  8
Sketch
100
AcDbLine
 10
20.1338
 20
-13.4045
 30
0
 11
41.3684
 21
-33.281
 31
0
  0
LINE
  5
A10
330
A02
100
AcDbEntity
  8
Sketch
100
AcDbLine
 10
-59.1375
 20
-72.938
 30
0
 11
-41.6066
 21
-72.938
 31
0
  0
LINE
  5
A11
330
A02
100
AcDbEntity
  8
Sketch
100
AcDbLine
 10
-59.1375
 20
-72.938
 30
0
 11
-17.0387
 21
-72.938
 31
0
  0
LINE
  5
A12
330
A02
100
AcDbEntity
  8
Sketch
100
AcDbLine
 10
21.122
 20
-52.26
 30
0
 11
56.2455
 21
-82.0131
 31
0
  0
LINE
  5
A13
330
A02
100
AcDbEntity
  8
Sketch
100
AcDbLine
 10
19.1467
 20
-71.2106
 30
0
 11
39.1467
 21
-51.1489
 31
0
  0
LINE
  5
A14
330
A02
100
AcDbEntity
  8
Sketch
100
AcDbLine
 10
30.0109
 20
-77.8155
 30
0
 11
47.6652
 21
-59.7908
 31
0
  0
LINE
  5
A15
330
A02
100
AcDbEntity
  8
Sketch
100
AcDbLine
 10
88.549
 20
45.0739
 30
0
 11
126.759
 21
12.4813
 31
0
  0
LINE
  5
A16
330
A02
100
AcDbEntity
  8
Sketch
100
AcDbLine
 10
76.2033
 20
28.0986
 30
0
 11
134.29
 21
43.222
 31
0
  0
LINE
  5
A17
330
A02
100
AcDbEntity
  8
Sketch
100
AcDbLine
 10
106.08
 20
14.2097
 30
0
 11
121.08
 21
50.0121
 31
0
  0
LINE
  5
A18
330
A02
100
AcDbEntity
  8
Sketch
100
AcDbLine
 10
84.4425
 20
-15.1403
 30
0
 11
145.439
 21
-15.1403
 31
0
  0
LINE
  5
A19
330
A02
100
AcDbEntity
  8
Sketch
100
AcDbLine
 10
97.4935
 20
-15.1403
 30
0
 11
97.4935
 21
-41.7918
 31
0
  0
LINE
  5
A1A
330
A02
100
AcDbEntity
  8
Sketch
100
AcDbLine
 10
114.941
 20
-15.1403
 30
0
 11
114.941
 21
-40.8302
 31
0
  0
LINE
  5
A1B
330
A02
100
AcDbEntity
  8
Sketch
100
AcDbLine
 10
133.212
 20
-15.1403
 30
0
 11
133.212
 21
-41.1049
 31
0
  0
LINE
  5
A1C
330
A02
100
AcDbEntity
  8
Sketch
100
AcDbLine
 10
173.874
 20
-80.3394
 30
0
 11
270.338
 21
48.3081
 31
0
  0
LINE
  5
A1D
330
A02
100
AcDbEntity
  8
Sketch
100
AcDbLine
 10
167.834
 20
48.3081
 30
0
 11
315.517
 21
48.3081
 31
0
  0
LINE
  5
A1E
330
A02
100
AcDbEntity
  8
Sketch
100
AcDbLine
 10
315.517
 20
48.3081
 30
0
 11
289.984
 21
-30.3733
 31
0
  0
LINE
  5
A1F
330
A02
100
AcDbEntity
  8
Sketch
100
AcDbLine
 10
202.742
 20
72.2435
 30
0
 11
289.984
 21
-30.3733
 31
0
  0
LINE
  5
A20
330
A02
100
AcDbEntity
  8
Sketch
100
AcDbLine
 10
272.945
 20
-10.3319
 30
0
 11
226.367
 21
-10.3319
 31
0
  0
LINE
  5
A21
330
A02
100
AcDbEntity
  8
Sketch
100
AcDbLine
 10
110.949
 20
-139.998
 30
0
 11
86.5641
 21
-139.998
 31
0
  0
LINE
  5
A22
330
A02
100
AcDbEntity
  8
Sketch
100
AcDbLine
 10
86.5641
 20
-139.998
 30
0
 11
86.5641
 21
-116.274
 31
0
  0
LINE
  5
A23
330
A02
100
AcDbEntity
  8
Sketch
100
AcDbLine
 10
86.5641
 20
-116.274
 30
0
 11
177.921
 21
-116.274
 31
0
  0
LINE
  5
A24
330
A02
100
AcDbEntity
  8
Sketch
100
AcDbLine
 10
177.921
 20
-116.274
 30
0
 11
177.921
 21
-139.998
 31
0
  0
LINE
  5
A25
330
A02
100
AcDbEntity
  8
Sketch
100
AcDbLine
 10
177.921
 20
-139.998
 30
0
 11
86.5641
 21
-139.998
 31
0
  0
LINE
  5
A26
330
A02
100
AcDbEntity
  8
Sketch
100
AcDbLine
 10
86.5641
 20
-139.998
 30
0
 11
86.5641
 21
-62.6959
 31
0
  0
LINE
  5
A27
330
A02
100
AcDbEntity
  8
Sketch
100
AcDbLine
 10
86.5641
 20
-62.6959
 30
0
 11
110.949
 21
-62.6959
 31
0
  0
LINE
  5
A28
330
A02
100
AcDbEntity
  8
Sketch
100
AcDbLine
 10
110.949
 20
-62.6959
 30
0
 11
110.949
 21
-139.998
 31
0
  0
LINE
  5
A29
330
A02
100
AcDbEntity
  8
Sketch
100
AcDbLine
 10
-40.4612
 20
-91.2478
 30
0
 11
-40.4612
 21
-139.069
 31
0
  0
LINE
  5
A2A
330
A02
100
AcDbEntity
  8
Sketch
100
AcDbLine
 10
-63.2814
 20
-136.217
 30
0
 11
-34.2528
 21
-96.785
 31
0
  0
LINE
  5
A2B
330
A02
100
AcDbEntity
  8
Sketch
100
AcDbLine
 10
11.8909
 20
-121.451
 30
0
 11
62.7328
 21
-121.451
 31
0
  0
LINE
  5
A2C
330
A02
100
AcDbEntity
  8
Sketch
100
AcDbLine
 10
20.784
 20
-103.832
 30
0
 11
63.9074
 21
-138.23
 31
0
  0
LINE
  5
A2D
330
A02
100
AcDbEntity
  8
Sketch
100
AcDbLine
 10
-55.6701
 20
98.8665
 30
0
 11
-113.926
 21
44.7184
 31
0
  0
LINE
  5
A2E
330
A02
100
AcDbEntity
  8
Sketch
100
AcDbLine
 10
299.467
 20
104.468
 30
0
 11
376.394
 21
58.909
 31
0
  0
LINE
  5
A2F
330
A02
100
AcDbEntity
  8
Sketch
100
AcDbLine
 10
316.645
 20
-220.421
 30
0
 11
382.743
 21
-149.468
 31
0
  0
LINE
  5
A30
330
A02
100
AcDbEntity
  8
Sketch
100
AcDbLine
 10
-64.2591
 20
-220.047
 30
0
 11
-134.092
 21
-154.323
 31
0
  0
ENDSEC
  0
SECTION
  2
OBJECTS
  0
DICTIONARY
  5
F000
330
0
100
AcDbDictionary
  3
ACAD_GROUP
350
F001
  0
DICTIONARY
  5
F001
330
F000
100
AcDbDictionary
  0
ENDSEC
  0
EOF